<svg xmlns="http://www.w3.org/2000/svg">
<defs>
<font id="PTSerif-Regular" horiz-adv-x="533" >
  <font-face 
    font-family="PT Serif"
    font-weight="400"
    font-stretch="normal"
    units-per-em="1000"
    panose-1="2 10 6 3 4 5 5 2 2 4"
    ascent="778"
    descent="-222"
    x-height="500"
    cap-height="700"
    bbox="-376 -272 1145 1002.13"
    underline-thickness="50"
    underline-position="-50"
    unicode-range="U+0020-U+FB02"
  />
<missing-glyph horiz-adv-x="709" 
d="M50 700h650v-700h-650v700zM570 650l-195 -217l-195 217l-50 -50l197 -220l-197 -220l50 -50l195 217l195 -217l50 50l-198 220l198 220zM162 68h-35v-7h13v-35h9v35h13v7zM271 58h-2q-1 0 -2 1q-4 0 -9 -5v4h-7v-32h8v20q3 5 7 5q2 0 4 -1zM276 65q0 -5 4 -5q5 0 5 4
q0 5 -5 5q-4 0 -4 -4zM276 26h9v32h-9v-32zM291 51h5v-25h8v25h8v7h-8q0 2 1 3t3 1h3h3l1 6q0 1 -4 1h-5h-4q-1 0 -3 -1.5t-2 -2.5q-1 -2 -1 -5v-2h-5v-7zM331 45q0 -25 23 -25q11 0 17.5 6t6.5 19q0 23 -24 23q-10 0 -16.5 -6t-6.5 -17zM338 45q0 17 16 17q17 0 17 -17
q0 -18 -17 -18q-16 0 -16 18zM361 40q-2 -1 -4 -1q-5 0 -5 6q0 4 5 4h3l3 5q-4 2 -9 2q-10 0 -10 -11q0 -13 10 -13q5 0 9 2zM402 27h9v14h5q7 0 12.5 3t5.5 11q0 10 -6 12t-13 2h-13v-42zM416 62q9 0 9 -6t-2.5 -6.5t-7.5 -0.5h-4v13h5zM440 51q3 1 5.5 1.5t5.5 0.5
q5 0 5 -5v-2q-1 0 -2 0.5t-3 0.5q-15 0 -15 -12q0 -9 10 -9q7 0 10 6l3 -5h7q-1 1 -1 8v13q0 12 -12 12q-5 0 -9 -1.5t-6 -2.5zM450 33q-5 0 -5 5q0 4 6 4q2 0 3 -0.5t2 -0.5v-3q-1 -5 -6 -5zM494 59q-2 1 -5 1q-5 0 -7 -6h-1l-1 5h-7v-32h9v20q0 5 7 5q1 0 1 -0.5t1 -0.5h1
zM499 51q10 2 11 2q6 0 6 -5v-2q-2 0 -3 0.5t-3 0.5q-15 0 -15 -12q0 -9 10 -9q8 0 11 6h1l1 -5h7q-1 1 -1 8v13q0 12 -12 12q-5 0 -8 -1.5t-6 -2.5zM509 33q-5 0 -5 5q0 4 6 4q2 0 3 -0.5t3 -0.5v-3q-3 -5 -7 -5zM557 69h-36v-7h14v-35h8v35h14v7zM567 59h-10l14 -32
q-2 -5 -5 -5l-2 1l-2 -7q1 -1 6 -1q7 0 11 15l12 29h-9l-6 -18v-6h-1l-1 6zM595 15h9v13q2 -2 6 -2q16 0 16 18q0 16 -13 16q-6 0 -10 -5h-2l-1 4h-5v-44zM611 53q6 0 6 -9q0 -11 -9 -11q-2 0 -4 2v12q0 6 7 6zM656 35q-2 -2 -8 -2q-8 0 -8 7h21v7q0 13 -14 13

<glyph glyph-name="fi" unicode="fi" horiz-adv-x="600" 
d="M562 0h-222v25q31 17 66 24v401h-209v-401q26 -2 49.5 -8.5t44.5 -15.5v-25h-250v25q31 18 66 24v401h-76v26q35 22 76 33v35q0 62 20 102.5t52 64t73.5 32.5t83.5 9q20 0 44.5 -2.5t48 -7t43 -10.5t29.5 -13q-3 -33 -9 -52l-13 -41h-30l-83 86q-29 0 -58.5 -6t-54.5 -23
t-40.5 -49t-15.5 -84v-50h105q21 0 43.5 0.5t45 2t43 4t37.5 5.5h25v-463q20 -5 36 -10.5t30 -13.5v-25z" />
    <glyph glyph-name="fl" unicode="fl" horiz-adv-x="612" 
d="M409 682q-22 12 -46 20.5t-47 8.5q-27 0 -49 -6t-37.5 -23.5t-24 -49t-8.5 -83.5v-49h115v-50h-115v-401q52 -6 94 -24v-25h-250v25q31 18 66 24v401h-76v26q35 22 76 33v35q0 62 15 102.5t41.5 64t62 32.5t77.5 9q9 0 21.5 -1.5t25.5 -4.5t25 -6.5t21 -6.5l38 11t40 8
h25v-703q17 -4 37.5 -10t37.5 -14v-25h-230v25q16 8 32 14.5t33 9.5v633z" />
    <glyph glyph-name=".notdef" horiz-adv-x="709" 
d="M50 700h650v-700h-650v700zM570 650l-195 -217l-195 217l-50 -50l197 -220l-197 -220l50 -50l195 217l195 -217l50 50l-198 220l198 220zM162 68h-35v-7h13v-35h9v35h13v7zM271 58h-2q-1 0 -2 1q-4 0 -9 -5v4h-7v-32h8v20q3 5 7 5q2 0 4 -1zM276 65q0 -5 4 -5q5 0 5 4
q0 5 -5 5q-4 0 -4 -4zM276 26h9v32h-9v-32zM291 51h5v-25h8v25h8v7h-8q0 2 1 3t3 1h3h3l1 6q0 1 -4 1h-5h-4q-1 0 -3 -1.5t-2 -2.5q-1 -2 -1 -5v-2h-5v-7zM331 45q0 -25 23 -25q11 0 17.5 6t6.5 19q0 23 -24 23q-10 0 -16.5 -6t-6.5 -17zM338 45q0 17 16 17q17 0 17 -17
q0 -18 -17 -18q-16 0 -16 18zM361 40q-2 -1 -4 -1q-5 0 -5 6q0 4 5 4h3l3 5q-4 2 -9 2q-10 0 -10 -11q0 -13 10 -13q5 0 9 2zM402 27h9v14h5q7 0 12.5 3t5.5 11q0 10 -6 12t-13 2h-13v-42zM416 62q9 0 9 -6t-2.5 -6.5t-7.5 -0.5h-4v13h5zM440 51q3 1 5.5 1.5t5.5 0.5
q5 0 5 -5v-2q-1 0 -2 0.5t-3 0.5q-15 0 -15 -12q0 -9 10 -9q7 0 10 6l3 -5h7q-1 1 -1 8v13q0 12 -12 12q-5 0 -9 -1.5t-6 -2.5zM450 33q-5 0 -5 5q0 4 6 4q2 0 3 -0.5t2 -0.5v-3q-1 -5 -6 -5zM494 59q-2 1 -5 1q-5 0 -7 -6h-1l-1 5h-7v-32h9v20q0 5 7 5q1 0 1 -0.5t1 -0.5h1
zM499 51q10 2 11 2q6 0 6 -5v-2q-2 0 -3 0.5t-3 0.5q-15 0 -15 -12q0 -9 10 -9q8 0 11 6h1l1 -5h7q-1 1 -1 8v13q0 12 -12 12q-5 0 -8 -1.5t-6 -2.5zM509 33q-5 0 -5 5q0 4 6 4q2 0 3 -0.5t3 -0.5v-3q-3 -5 -7 -5zM557 69h-36v-7h14v-35h8v35h14v7zM567 59h-10l14 -32
q-2 -5 -5 -5l-2 1l-2 -7q1 -1 6 -1q7 0 11 15l12 29h-9l-6 -18v-6h-1l-1 6zM595 15h9v13q2 -2 6 -2q16 0 16 18q0 16 -13 16q-6 0 -10 -5h-2l-1 4h-5v-44zM611 53q6 0 6 -9q0 -11 -9 -11q-2 0 -4 2v12q0 6 7 6zM656 35q-2 -2 -8 -2q-8 0 -8 7h21v7q0 13 -14 13
q-16 0 -16 -18q0 -16 16 -16q8 0 12 4zM647 53q7 0 6 -7h-13q0 7 7 7zM92 27h9v14h5q7 0 12.5 3t5.5 11q0 10 -6 12t-13 2h-13v-42zM106 62q9 0 9 -6t-2.5 -6.5t-7.5 -0.5h-4v13h5zM200 38q0 -5 -8 -5q-3 0 -5 0.5t-6 2.5l-3 -9q4 -1 7 -1.5t8 -0.5q16 0 16 14q0 5 -3.5 7.5
t-7 4l-7 3t-3.5 4.5t7 3q3 0 5.5 -0.5t5.5 -1.5l2 8q-4 1 -7 1.5t-6 0.5q-16 0 -16 -13q0 -5 3.5 -7.5t7 -4l7 -3t3.5 -3.5zM239 34q-2 -2 -8 -2q-8 0 -8 7h21v7q0 13 -14 13q-16 0 -16 -18q0 -16 16 -16q8 0 12 4zM230 52q7 0 6 -7h-13q0 7 7 7z" />
    <glyph glyph-name=".null" horiz-adv-x="0" 
 />
    <glyph glyph-name="nonmarkingreturn" horiz-adv-x="243" 
 />
    <glyph glyph-name="space" unicode=" " horiz-adv-x="243" 
 />
    <glyph glyph-name="exclam" unicode="!" horiz-adv-x="327" 
d="M174 218l-32 176v296q22 11 45 11t45 -11v-296l-32 -176h-26zM119 57q0 30 19 48t49 18q31 0 50 -18t19 -48q0 -29 -19 -47t-50 -18q-30 0 -49 18t-19 47z" />
    <glyph glyph-name="quotedbl" unicode="&#x22;" horiz-adv-x="380" 
d="M207 670q5 13 15.5 21.5t27.5 8.5q31 0 42 -30l-32 -166h-20zM87 670q5 13 15.5 21.5t27.5 8.5q31 0 42 -30l-32 -166h-20z" />
    <glyph glyph-name="numbersign" unicode="#" 
d="M308 233h-142l-42 -175h-53l42 175h-80l14 46h76l36 150h-76l14 46h73l40 167h52l-39 -167h142l40 167h52l-40 -167h80l-17 -46h-74l-36 -150h77l-17 -46h-70l-42 -175h-52zM176 279h142l36 150h-142z" />
    <glyph glyph-name="dollar" unicode="$" 
d="M239 -12q-30 0 -58 4.5t-51.5 12t-42 16.5t-28.5 18q1 10 2 26.5t3 33.5t4.5 33t6.5 25h25l60 -97q13 -8 34 -13.5t45 -6.5v285q-4 0 -6 2l-32 15q-29 13 -56 29t-47.5 38.5t-33 52.5t-12.5 71q0 36 14 67t38.5 55t59 38.5t75.5 17.5v49h52v-49q48 -3 83.5 -13t61.5 -22
q-1 -32 -8.5 -53t-15.5 -37h-26l-50 68q-11 2 -21 3t-24 2v-267l29 -13q31 -15 60.5 -31.5t52.5 -39t37 -54.5t14 -79q0 -73 -51 -123t-142 -61v-61h-52v58zM394 168q0 52 -30 82.5t-73 50.5v-256q45 12 74 43.5t29 79.5zM142 551q0 -27 7.5 -47.5t20.5 -36.5t30.5 -28.5
t38.5 -23.5v244q-45 -5 -71 -35.5t-26 -72.5z" />
    <glyph glyph-name="percent" unicode="%" horiz-adv-x="807" 
d="M675 710l35 -31l-585 -686l-34 32zM52 542q0 39 13 70t36.5 53.5t55 34.5t69.5 12t70 -10.5t55 -31.5t36 -53t13 -75q0 -39 -13 -70.5t-36 -53.5t-55 -34t-70 -12t-69.5 10.5t-55 31.5t-36.5 53t-13 75zM136 542q0 -60 23 -96.5t67 -36.5q90 0 90 133q0 132 -90 132
t-90 -132zM405 159q0 39 13 70t36.5 53.5t55 34.5t69.5 12t70 -10.5t55 -31.5t36 -53t13 -75q0 -39 -13 -70.5t-36 -53.5t-55 -34t-70 -12t-69.5 10.5t-55 31.5t-36.5 53t-13 75zM489 159q0 -60 23 -96.5t67 -36.5q90 0 90 133q0 132 -90 132t-90 -132z" />
    <glyph glyph-name="ampersand" unicode="&#x26;" horiz-adv-x="869" 
d="M540 123q-30 27 -65.5 63.5t-68.5 74.5l-61 73t-44 58q-43 -42 -62 -81.5t-19 -92.5q0 -38 12.5 -70.5t34.5 -56.5t53 -37.5t67 -13.5q45 0 84 20.5t69 62.5zM282 583q0 -18 7 -38.5t18.5 -40.5t25 -39t26.5 -34q36 30 58.5 69.5t17.5 93.5q-2 32 -20 54t-57 22
q-22 0 -36.5 -7.5t-23.5 -20t-12.5 -28t-3.5 -31.5zM697 0l-53 34.5t-70 57.5q-14 -19 -35 -37.5t-49.5 -33.5t-63.5 -24t-76 -9q-53 0 -96 16t-73 43t-46.5 62t-16.5 73q0 49 18 88.5t43 69t52 50l45 33.5q-29 32 -49 75t-20 80q0 25 10 49.5t29.5 43t48 30t64.5 11.5
q66 0 106.5 -28.5t40.5 -82.5q0 -33 -11.5 -61.5t-29.5 -52.5t-40.5 -44t-44.5 -37q41 -51 95 -105t114 -108q8 11 20 37t22.5 61t17 76.5t3.5 82.5q-30 6 -59 24v26h203v-26q-27 -17 -66 -24q-9 -59 -23 -107t-29 -84.5t-28.5 -62t-21.5 -37.5q38 -31 74.5 -57.5
t81.5 -52.5l55 -24v-25h-142z" />
    <glyph glyph-name="quotesingle" unicode="'" horiz-adv-x="222" 
d="M87 670q5 13 15.5 21.5t27.5 8.5q31 0 42 -30l-32 -166h-20z" />
    <glyph glyph-name="parenleft" unicode="(" horiz-adv-x="343" 
d="M300 -210q-51 37 -95 81t-76.5 99t-51 122t-18.5 151q0 82 19 148t52 121t77.5 101.5t95.5 88.5l21 -18q-40 -43 -73 -88t-56.5 -98t-36.5 -115.5t-13 -139.5q0 -75 14 -138.5t38.5 -117t57 -97.5t69.5 -80z" />
    <glyph glyph-name="parenright" unicode=")" horiz-adv-x="343" 
d="M19 -190q37 36 69.5 81.5t56.5 101t38 120.5t14 140q0 77 -13 138t-36 112t-56 95t-73 86l21 18q51 -39 95.5 -83t77.5 -98t52 -120t19 -148q0 -83 -18 -151.5t-50 -125t-76.5 -103t-96.5 -83.5z" />
    <glyph glyph-name="asterisk" unicode="*" horiz-adv-x="465" 
d="M62 616q-3 7 -1 17.5t8 21t14.5 18.5t17.5 10l100 -87q0 -8 -3 -15t-11 -11zM100 444q-8 1 -16 8.5t-14 18t-9 21.5t0 19l125 43q15 -8 15 -24zM271 389q-5 -6 -15.5 -9t-22.5 -3t-22.5 3t-15.5 8l23 130q16 8 32 0zM402 511q4 -7 1.5 -18t-8.5 -21.5t-14 -18.5t-17 -9
l-98 84q0 9 3.5 14.5t9.5 10.5zM366 683q8 -1 16 -8.5t13.5 -18t8 -21.5t-0.5 -20l-124 -47q-14 10 -14 26zM194 737q4 6 14.5 9.5t22.5 3.5t23 -3.5t16 -9.5l-22 -130q-15 -10 -31 0z" />
    <glyph glyph-name="plus" unicode="+" 
d="M42 370h198v210h53v-210h198v-53h-198v-215h-53v215h-198v53z" />
    <glyph glyph-name="comma" unicode="," horiz-adv-x="283" 
d="M51 -149q19 7 36 21.5t29.5 32.5t19 39.5t4.5 42.5q-12 11 -32 22t-35 16q-5 19 -0.5 37t13.5 32t20.5 22.5t22.5 9.5q35 -5 61.5 -31t26.5 -78q0 -28 -10 -58.5t-29 -57.5t-46 -48.5t-61 -31.5z" />
    <glyph glyph-name="hyphen" unicode="-" horiz-adv-x="425" 
d="M71 313h282v-63h-282v63z" />
    <glyph glyph-name="period" unicode="." horiz-adv-x="279" 
d="M71 57q0 30 19 48t49 18q31 0 50 -18t19 -48q0 -29 -19 -47t-50 -18q-30 0 -49 18t-19 47z" />
    <glyph glyph-name="slash" unicode="/" horiz-adv-x="344" 
d="M327 712l42 -18l-365 -824l-41 19z" />
    <glyph glyph-name="zero" unicode="0" 
d="M35 350q0 180 60 271t172 91q121 0 177 -89.5t56 -272.5q0 -180 -60.5 -271t-178.5 -91q-61 0 -104 24.5t-70 71t-39.5 113.5t-12.5 153zM131 350q0 -72 7 -131t22.5 -101.5t40 -65.5t59.5 -23q79 0 111.5 78t32.5 243q0 72 -6 131t-22 101t-42.5 65t-66.5 23
q-75 0 -105.5 -77.5t-30.5 -242.5z" />
    <glyph glyph-name="one" unicode="1" 
d="M425 0h-292v29q25 11 50.5 19.5t51.5 14.5v491l4 59q-28 -11 -58 -15.5t-62 -3.5l-5 24q46 15 95 37.5t91 56.5h25v-649q25 -6 50 -14.5t50 -19.5v-29z" />
    <glyph glyph-name="two" unicode="2" 
d="M133 505h-25q-11 29 -22.5 68t-19.5 74q35 30 84 47.5t106 17.5q50 0 86 -14t59.5 -38t34.5 -55.5t11 -65.5q0 -56 -26 -115t-64.5 -114.5t-83.5 -104.5t-83 -86l-42 -39v-4l56 6h172l49 112h25q2 -22 4 -48t3.5 -52.5t2.5 -51t1 -42.5h-413v32l53.5 56t65.5 73t67.5 85
t59.5 91.5t42.5 92.5t16.5 88q0 29 -7.5 55t-22.5 45.5t-36.5 30.5t-49.5 11q-21 0 -37 -3t-35 -9z" />
    <glyph glyph-name="three" unicode="3" 
d="M256 35q28 0 52 12.5t42 34t28.5 49.5t10.5 59q0 37 -11.5 65t-31.5 46.5t-46.5 28t-57.5 9.5h-65v27l168 225l34 35v4l-54 -6h-169l-39 -102h-25q-4 21 -7.5 45t-6.5 47.5t-5 45.5t-2 40h391v-31l-167 -223l-43 -44v-2l34 7q47 -2 84 -18t62.5 -42.5t39 -62t13.5 -77.5
q0 -50 -20 -90.5t-53.5 -69t-77 -44t-91.5 -15.5q-23 0 -49 3.5t-51 10.5t-46.5 16t-36.5 21l28 90h20q6 -7 16.5 -18l22 -23l22.5 -24l19 -21l26 -5t42 -3z" />
    <glyph glyph-name="four" unicode="4" 
d="M477 0h-260v29q49 17 92 24v140h-305v23l370 496h27v-467h127v-52h-127v-140q39 -8 76 -24v-29zM309 502l11 72h-3l-39 -72l-168 -231l-40 -33l71 7h168v257z" />
    <glyph glyph-name="five" unicode="5" 
d="M431 755h25q-1 -15 -2.5 -33.5t-4.5 -37l-6 -35.5t-7 -28h-246l-24 -193h65q50 0 91.5 -13.5t71 -40t46 -64.5t16.5 -87q0 -58 -20 -102t-53 -73.5t-75 -44.5t-87 -15q-20 0 -43 3.5t-45.5 10.5t-42.5 16.5t-34 20.5l29 90h20l15 -18l18.5 -23l19 -24t17.5 -21
q10 -2 18.5 -5t26.5 -3q33 0 60.5 13t47.5 35.5t31 52.5t11 65q0 40 -15 69.5t-41 48t-60.5 27.5t-72.5 8l-71 -1l40 347h238z" />
    <glyph glyph-name="six" unicode="6" 
d="M502 211q0 -46 -16 -86.5t-45 -71t-70 -48t-91 -17.5q-56 0 -99 19.5t-72.5 54.5t-44.5 83t-15 105q0 94 31 172.5t82.5 139t118 100.5t138.5 56l11 -30q-53 -19 -100.5 -51.5t-85 -76.5t-62.5 -98.5t-31 -117.5q16 27 57 49.5t95 22.5q43 0 80 -14t63 -40t41 -64t15 -87
zM406 203q0 71 -34.5 116t-96.5 45q-47 0 -80.5 -23.5t-47.5 -52.5q-2 -14 -2 -33v-30q0 -32 8.5 -65.5t26 -61.5t44 -46t61.5 -18q32 0 55 14.5t37.5 38.5t21.5 54.5t7 61.5z" />
    <glyph glyph-name="seven" unicode="7" 
d="M111 521h-25q-4 21 -8 45t-7 48t-4.5 46t-1.5 40h414v-29q-50 -89 -83 -164t-56.5 -151.5t-40.5 -162t-34 -193.5h-100q37 146 92 290t127 290l30 48l-52 -5h-212z" />
    <glyph glyph-name="eight" unicode="8" 
d="M49 157q0 34 12 64.5t33.5 55t51 43.5t64.5 31q-28 15 -52.5 33t-42.5 41t-28.5 50.5t-10.5 61.5q0 39 14 71t39.5 55t62 36t81.5 13q88 0 137 -44.5t49 -114.5q0 -58 -38 -101.5t-99 -71.5q35 -18 65 -40t51.5 -48t34 -56.5t12.5 -65.5q0 -37 -14.5 -70t-43 -58
t-70 -39.5t-95.5 -14.5q-55 0 -95 14t-66.5 37.5t-39 54t-12.5 63.5zM397 153q0 34 -13.5 61.5t-36 49t-52 39.5t-60.5 33q-29 -17 -48 -38t-30.5 -43.5t-16.5 -44.5t-5 -41q0 -24 7.5 -48.5t23.5 -43.5t41.5 -31t62.5 -12q31 0 55 10.5t40 27.5t24 38.5t8 42.5zM162 550
q0 -31 11.5 -54t30.5 -41.5t43.5 -33.5t50.5 -28q42 34 59 68t17 75q0 62 -27.5 95.5t-75.5 33.5q-27 0 -47 -10t-34 -26t-21 -36.5t-7 -42.5z" />
    <glyph glyph-name="nine" unicode="9" 
d="M47 487q0 49 14.5 90t43 71t70 47t95.5 17q58 0 100.5 -19.5t70.5 -54.5t41 -85.5t13 -111.5q0 -93 -27 -172t-73.5 -138.5t-110 -96.5t-136.5 -46l-18 29q59 16 104.5 47t78 73.5t52.5 94t28 108.5q-23 -24 -54.5 -40.5t-85.5 -16.5q-45 0 -83 13.5t-65 39.5t-42.5 64
t-15.5 87zM143 488q0 -29 9 -56.5t26 -49t41 -34.5t54 -13q48 0 79.5 16.5t46.5 41.5q2 13 2 32.5v30.5q0 36 -7.5 73.5t-23.5 67.5t-42 49t-62 19q-60 0 -91.5 -47.5t-31.5 -129.5z" />
    <glyph glyph-name="colon" unicode=":" horiz-adv-x="327" 
d="M119 442q0 30 19 48t49 18q31 0 50 -18t19 -48q0 -29 -19 -47t-50 -18q-30 0 -49 18t-19 47zM119 57q0 30 19 48t49 18q31 0 50 -18t19 -48q0 -29 -19 -47t-50 -18q-30 0 -49 18t-19 47z" />
    <glyph glyph-name="semicolon" unicode=";" horiz-adv-x="332" 
d="M124 442q0 30 19 48t49 18q31 0 50 -18t19 -48q0 -29 -19 -47t-50 -18q-30 0 -49 18t-19 47zM104 -149q19 7 36 21.5t29.5 32.5t19 39.5t4.5 42.5q-12 11 -32 22t-35 16q-5 19 -0.5 37t13.5 32t20.5 22.5t22.5 9.5q35 -5 61.5 -31t26.5 -78q0 -28 -10 -58.5t-29 -57.5
t-46 -48.5t-61 -31.5z" />
    <glyph glyph-name="less" unicode="&#x3c;" 
d="M44 324v31l385 235l25 -44l-250 -151l-86 -40l85 -31l265 -156l-40 -65z" />
    <glyph glyph-name="equal" unicode="=" 
d="M42 450h450v-53h-450v53zM42 290h450v-53h-450v53z" />
    <glyph glyph-name="greater" unicode="&#x3e;" 
d="M490 369v-31l-385 -235l-24 44l250 151l86 40l-85 31l-265 156l39 65z" />
    <glyph glyph-name="question" unicode="?" horiz-adv-x="473" 
d="M127 519h-25q-8 27 -18 69.5t-14 81.5q38 23 81.5 32.5t106.5 9.5q45 0 78.5 -12.5t56 -34t34 -51.5t11.5 -65q0 -45 -16.5 -78.5t-41 -60.5t-53.5 -50.5t-54 -49.5t-41.5 -57t-16.5 -73h-20q-7 29 -7 57q0 36 11.5 63.5t28.5 50.5t37 43.5t37 42t28.5 46t11.5 56.5
q0 22 -6.5 43.5t-20 39t-34.5 28t-51 10.5q-32 0 -52 -5t-28 -13zM143 57q0 30 19 48t49 18q31 0 50 -18t19 -48q0 -29 -19 -47t-50 -18q-30 0 -49 18t-19 47z" />
    <glyph glyph-name="at" unicode="@" horiz-adv-x="1064" 
d="M669 474q37 17 75 16l-51 -286q-6 -33 -8.5 -60t0 -46.5t11 -30t25.5 -10.5q33 0 68 18.5t64.5 53.5t48.5 85t19 112q0 76 -29 138t-79.5 105.5t-118 67t-144.5 23.5q-92 0 -165.5 -32.5t-125.5 -89t-80 -133t-28 -163.5q0 -89 29 -157.5t81.5 -116t125 -72t159.5 -24.5
q29 0 66 7t67 21l16 -44q-35 -20 -77 -28t-93 -8q-86 0 -164 26t-137.5 78t-94.5 130t-35 182q0 109 36 197t98.5 150t146.5 95.5t180 33.5q90 0 167.5 -26.5t134.5 -76t89 -121t32 -162.5q0 -65 -22.5 -123t-61 -102t-88.5 -70t-105 -26q-30 0 -51 9.5t-32 31t-11.5 55.5
t10.5 82h-4q-11 -32 -30.5 -63.5t-44.5 -57t-53.5 -41.5t-57.5 -16q-60 0 -92.5 41.5t-32.5 110.5q0 64 21.5 125t58 109t84.5 77t101 29q36 0 57 -6t45 -17zM652 426q-16 10 -32.5 15t-42.5 5q-38 0 -72 -26.5t-59 -67.5t-39.5 -89.5t-14.5 -93.5q0 -48 15 -75t57 -27
q19 0 41 18.5t43.5 48.5t42 67.5t36.5 75.5z" />
    <glyph glyph-name="A" unicode="A" horiz-adv-x="683" 
d="M222 0h-222v29q36 16 72 24l253 659h29l253 -659q20 -4 39.5 -9t36.5 -15v-29h-256v29q20 8 41 14t41 10l-68 183h-239l-66 -183q42 -6 86 -24v-29zM222 288h202l-79 212l-19 86h-2l-25 -88z" />
    <glyph glyph-name="B" unicode="B" horiz-adv-x="615" 
d="M29 0v29q40 19 82 24v593q-20 4 -41 10.5t-41 14.5v29h106q19 0 36.5 1l36.5 2t41 2t50 1q40 0 81.5 -6.5t75 -24.5t54.5 -50.5t21 -84.5q0 -26 -8 -52t-24.5 -48.5t-41.5 -39.5t-59 -25v-4q30 -5 59.5 -17t52.5 -32.5t37.5 -50.5t14.5 -72q0 -54 -24 -93t-62.5 -64
t-87.5 -36.5t-99 -11.5q-35 0 -79 3t-85 3h-96zM296 46q36 0 67.5 11t54 30.5t35.5 47t13 59.5q0 40 -15.5 66.5t-42 42t-61 21.5t-71.5 6h-75v-276q14 -4 33.5 -6t61.5 -2zM251 382q17 0 40.5 1.5t38.5 3.5q46 16 75.5 51.5t29.5 83.5q0 66 -39.5 99t-105.5 33
q-31 0 -53 -1t-36 -3v-268h50z" />
    <glyph glyph-name="C" unicode="C" horiz-adv-x="644" 
d="M547 182h26q5 -28 9 -70.5t2 -82.5q-15 -12 -36 -19.5t-44.5 -12.5t-48 -7t-46.5 -2q-84 0 -150 21.5t-111.5 65.5t-70 112.5t-24.5 162.5q0 98 27 166.5t73 112t107 63.5t128 20q66 0 111 -8.5t79 -25.5q0 -16 -1 -37.5t-3 -45.5t-5 -47t-6 -42h-26l-52 144
q-11 6 -36.5 8t-50.5 2q-50 0 -94.5 -18.5t-78 -57t-53.5 -97t-20 -137.5q0 -71 18 -128.5t52 -98t83 -62t111 -21.5q33 0 55 5t29 13z" />
    <glyph glyph-name="D" unicode="D" horiz-adv-x="708" 
d="M29 0v29q35 16 82 24v593q-23 5 -44 11.5t-38 13.5v29h102q17 0 40 1t47.5 2.5l47 3t37.5 1.5q170 0 261.5 -91t91.5 -258q0 -79 -22.5 -146.5t-68.5 -116.5t-116.5 -77t-166.5 -28q-15 0 -34 1.5t-40 3l-42.5 3t-40.5 1.5h-96zM289 656q-26 0 -50 -0.5t-38 -3.5v-606
q5 -1 18 -1.5t28 -1t28.5 -0.5h19.5q69 0 117 26t78.5 69.5t44.5 100.5t14 120q0 49 -13.5 101.5t-44 96t-80.5 71.5t-122 28z" />
    <glyph glyph-name="E" unicode="E" horiz-adv-x="582" 
d="M503 700q-1 -40 -3.5 -80.5t-7.5 -81.5h-26l-41 110h-218v-265h163l39 74h25q6 -99 0 -202h-25l-39 76h-163v-279h230l49 120h25q7 -42 10 -85t1 -87h-493v29q35 16 82 24v593q-20 4 -41 10.5t-41 14.5v29h474z" />
    <glyph glyph-name="F" unicode="F" horiz-adv-x="544" 
d="M197 53q44 -6 86 -24v-29h-254v29q17 8 35 14t37 10v593q-22 5 -40 11.5t-32 13.5v29h469q-1 -39 -3.5 -80t-7.5 -82h-26l-41 110h-223v-285h173l41 74h23q2 -23 3 -48.5t1 -51.5q0 -27 -1 -53t-3 -49h-23l-41 77h-173v-259z" />
    <glyph glyph-name="G" unicode="G" horiz-adv-x="688" 
d="M609 48q-19 -11 -44.5 -21.5t-54 -19t-57 -14t-53.5 -5.5q-80 0 -144 21.5t-109 66t-69.5 112.5t-24.5 162q0 98 28.5 167t76 112.5t108 63t123.5 19.5q66 0 111.5 -8.5t79.5 -25.5q0 -15 -1 -37t-3 -46t-5 -47.5t-6 -41.5h-26l-52 144q-11 6 -37 8t-51 2
q-50 0 -95 -18.5t-78.5 -57t-53.5 -97t-20 -137.5q0 -71 19.5 -128t54 -97.5t81 -62.5t100.5 -22q20 0 39 4t35 9.5t26.5 11.5t14.5 10v202q-26 2 -49.5 9t-46.5 15v29h245v-29q-10 -7 -24 -13t-38 -11v-229z" />
    <glyph glyph-name="H" unicode="H" horiz-adv-x="728" 
d="M282 0h-253v29q40 16 82 24v593q-47 7 -82 25v29h253v-29q-17 -9 -36 -15t-39 -10v-261h314v261q-21 5 -39.5 11t-35.5 14v29h253v-29q-18 -10 -39.5 -15.5t-42.5 -9.5v-593q23 -4 44 -10t38 -14v-29h-253v29q36 16 75 24v280h-314v-280q20 -4 39 -10t36 -14v-29z" />
    <glyph glyph-name="I" unicode="I" horiz-adv-x="352" 
d="M304 0h-256v29q39 18 80 24v593q-20 4 -40 10.5t-40 14.5v29h256v-29q-18 -8 -39 -14.5t-41 -10.5v-593q21 -4 42 -10t38 -14v-29z" />
    <glyph glyph-name="J" unicode="J" horiz-adv-x="341" 
d="M39 700h254v-29q-18 -8 -37 -14.5t-39 -10.5v-560q0 -70 -16 -115t-39.5 -72.5t-50 -40.5t-48.5 -18l-11 15q15 13 27.5 29.5t22 41.5t14.5 61t5 88v571q-22 5 -43 11t-39 14v29z" />
    <glyph glyph-name="K" unicode="K" horiz-adv-x="646" 
d="M382 700h221v-29q-20 -9 -39 -15t-37 -10l-201 -266l57.5 -74l68 -84.5l73 -88l73.5 -84.5l48 -24v-25h-125l-34 24q-59 69 -117.5 149l-113.5 162h-49v-282q46 -8 75 -24v-29h-253v29q40 16 82 24v593q-45 6 -82 25v29h253v-29q-16 -7 -35 -13.5t-40 -11.5v-277l60 14
l187 263q-20 5 -38 11t-34 14v29z" />
    <glyph glyph-name="L" unicode="L" horiz-adv-x="549" 
d="M29 700h274v-29q-24 -9 -48 -15.5t-48 -9.5v-594h230l59 161h26q3 -21 5.5 -48.5t4 -57t1.5 -57.5t-1 -50h-503v29q24 11 44 16t38 8v593q-23 4 -44 10.5t-38 14.5v29z" />
    <glyph glyph-name="M" unicode="M" horiz-adv-x="867" 
d="M837 0h-248v29q20 8 40 13.5t41 10.5v450l4 117h-8l-33 -107l-205 -513h-26l-195 513l-36 117h-9l1 -127v-450q19 -4 38 -10t38 -14v-29h-209v29q19 8 39.5 14.5t41.5 10.5v592q-21 4 -41.5 10.5t-40.5 14.5v29h205l174 -457l34 -103h1l34 105l180 455h181v-29
q-18 -8 -37 -14.5t-39 -10.5v-594q21 -4 39.5 -9.5t35.5 -13.5v-29z" />
    <glyph glyph-name="N" unicode="N" horiz-adv-x="732" 
d="M487 700h216v-29q-42 -28 -82 -40v-643h-57l-363 551l-39 78h-3l9 -78v-475q41 -11 77 -35v-29h-216v29q18 11 38.5 19.5t43.5 15.5v573q-20 8 -39.5 17t-36.5 18v28h169l315 -475l46 -86h4l-5 86v406q-21 9 -40.5 19t-36.5 21v29z" />
    <glyph glyph-name="O" unicode="O" horiz-adv-x="740" 
d="M53 350q0 78 21.5 144.5t62 115t99.5 75.5t134 27t134 -27t99.5 -75.5t62 -115t21.5 -144.5t-21.5 -144.5t-62 -115t-99.5 -75.5t-134 -27t-134 27t-99.5 75.5t-62 115t-21.5 144.5zM160 350q0 -64 13.5 -120.5t40.5 -98.5t68 -66.5t97 -24.5q51 0 89 24.5t62.5 66.5
t37 98.5t12.5 120.5t-13 120.5t-40 98.5t-68 66.5t-97 24.5q-55 0 -93.5 -24.5t-62.5 -66.5t-35 -98.5t-11 -120.5z" />
    <glyph glyph-name="P" unicode="P" horiz-adv-x="596" 
d="M207 53q27 -3 51 -9.5t45 -14.5v-29h-274v29q20 10 41 15t41 9v593q-23 4 -43 10.5t-39 14.5v29h90q40 0 87 4t90 4q49 0 96 -10.5t83.5 -35.5t59 -66.5t22.5 -103.5q0 -59 -23 -101t-61.5 -69t-87.5 -39.5t-101 -12.5h-15.5t-22.5 0.5t-23 1.5t-16 2v-221zM275 656
q-24 0 -39 -1t-29 -4v-324q5 -2 14.5 -2.5t20 -1.5t20.5 -1h16q35 0 66 9.5t54.5 30.5t37.5 53t14 77q0 82 -46.5 123t-128.5 41z" />
    <glyph glyph-name="Q" unicode="Q" horiz-adv-x="740" 
d="M760 -115q-40 -36 -82 -61.5t-90 -24.5q-41 0 -86 15t-96 36l-108.5 44t-124.5 40l30 20q22 3 43 3q50 0 98.5 -12t97.5 -26t99 -26t102 -12q27 0 55 4t57 14zM53 350q0 78 21.5 144.5t62 115t99.5 75.5t134 27t134 -27t99.5 -75.5t62 -115t21.5 -144.5t-21.5 -144.5
t-62 -115t-99.5 -75.5t-134 -27t-134 27t-99.5 75.5t-62 115t-21.5 144.5zM160 350q0 -64 13.5 -120.5t40.5 -98.5t68 -66.5t97 -24.5q51 0 89 24.5t62.5 66.5t37 98.5t12.5 120.5t-13 120.5t-40 98.5t-68 66.5t-97 24.5q-55 0 -93.5 -24.5t-62.5 -66.5t-35 -98.5
t-11 -120.5z" />
    <glyph glyph-name="R" unicode="R" horiz-adv-x="637" 
d="M207 53q23 -5 44 -10.5t41 -13.5v-29h-263v29q22 10 42 15t40 9v593q-26 5 -46 11.5t-36 13.5v29h88q40 0 87.5 4t92.5 4q49 0 91.5 -11t73.5 -35t48.5 -61t17.5 -89q0 -73 -38.5 -121t-104.5 -69q43 -68 90 -135t98 -133l54 -29v-25h-121l-38 28q-28 35 -51 68.5t-43 68
t-37.5 70l-35.5 75.5h-94v-257zM275 656q-24 0 -39.5 -1t-28.5 -4v-299h72q69 0 109.5 44t40.5 116q0 74 -43 109t-111 35z" />
    <glyph glyph-name="S" unicode="S" horiz-adv-x="536" 
d="M150 69q12 -12 31 -20.5t57 -8.5q32 0 60 8.5t48.5 25t32.5 40t12 53.5q0 40 -24.5 67t-61 48t-79.5 41t-79.5 47.5t-61 66t-24.5 96.5q0 42 15 75t42.5 56t65.5 35.5t85 12.5q61 0 111.5 -9.5t79.5 -23.5q0 -17 -2.5 -39.5t-6 -46.5t-7.5 -46.5t-8 -39.5h-26l-40 137
q-18 8 -45.5 12t-58.5 4q-51 0 -82 -28.5t-31 -79.5q0 -41 24.5 -69t61.5 -50t79.5 -42.5t79.5 -47.5t61.5 -64t24.5 -92q0 -45 -16.5 -82t-47.5 -63t-76 -40t-102 -14q-63 0 -113 15t-71 32q1 17 3.5 41t6 49.5t7.5 49.5t8 41h26z" />
    <glyph glyph-name="T" unicode="T" horiz-adv-x="619" 
d="M450 0h-281v29q22 8 44.5 14t48.5 10v595h-153l-53 -143h-25q-3 20 -5 45.5t-3.5 52t-2.5 52t-1 45.5h581q0 -20 -1 -45t-2.5 -51.5l-3 -52t-4.5 -46.5h-26l-52 143h-153v-595q26 -5 48.5 -10t43.5 -14v-29z" />
    <glyph glyph-name="U" unicode="U" horiz-adv-x="672" 
d="M10 700h254v-29q-19 -8 -38 -14t-38 -11v-409q0 -53 11.5 -88.5t33.5 -57t54.5 -31t73.5 -9.5q79 0 123 43.5t44 143.5v399q-23 8 -43 16.5t-36 17.5v29h213v-29q-19 -11 -38.5 -20t-39.5 -14v-401q0 -64 -17 -110t-47.5 -76t-74 -44.5t-96.5 -14.5q-125 0 -191 56.5
t-66 173.5v425q-41 6 -82 25v29z" />
    <glyph glyph-name="V" unicode="V" horiz-adv-x="684" 
d="M545 646q-24 5 -45 11.5t-41 13.5v29h225v-29q-29 -16 -72 -25l-226 -646l-55 -12l-255 658q-20 5 -39 11.5t-37 13.5v29h265v-29q-17 -7 -38 -13.5t-44 -11.5l171 -457l21 -80h2l20 82z" />
    <glyph glyph-name="W" unicode="W" horiz-adv-x="934" 
d="M796 646q-21 3 -42 9.5t-44 15.5v29h224v-29q-34 -15 -72 -25l-167 -646l-62 -12l-161 544l-158 -532l-61 -12l-177 658q-20 5 -39 11t-37 14v29h260v-29q-19 -7 -39 -13.5t-43 -11.5l99 -403l22 -130h2l35 132l135 455h34l145 -455l29 -130h2l23 132z" />
    <glyph glyph-name="X" unicode="X" horiz-adv-x="670" 
d="M395 700h230v-29q-17 -7 -36 -13.5t-39 -11.5l-176 -271l205 -322q48 -8 82 -24v-29h-266v29q36 18 76 24l-158 251l-152 -252q21 -3 41 -7.5t39 -15.5v-29h-231v29q19 10 37.5 15t36.5 9l196 299l-188 294l-39.5 12t-39.5 13v29h265v-29q-15 -6 -33.5 -12t-42.5 -13
l140 -226l136 226q-41 9 -83 25v29z" />
    <glyph glyph-name="Y" unicode="Y" horiz-adv-x="644" 
d="M424 700h220v-29q-38 -19 -76 -25l-189 -348v-245q39 -5 76 -24v-29h-254v29q36 18 82 24v244l-202 349q-23 4 -42.5 10.5t-38.5 14.5v29h265v-29q-15 -6 -34 -12.5t-43 -12.5l164 -294l154 294q-23 5 -43.5 11.5t-38.5 13.5v29z" />
    <glyph glyph-name="Z" unicode="Z" horiz-adv-x="610" 
d="M533 192h26q3 -20 5.5 -45t4 -51t2 -51t-0.5 -45h-531v51l416 597h-308l-61 -140h-25q-3 21 -5.5 46t-4 51t-2 50.5t-0.5 44.5h511v-52l-414 -596h326z" />
    <glyph glyph-name="bracketleft" unicode="[" horiz-adv-x="307" 
d="M83 700h189v-42h-104v-847h104v-41h-189v930z" />
    <glyph glyph-name="backslash" unicode="\" horiz-adv-x="382" 
d="M409 -107l-41 -23l-415 820l42 22z" />
    <glyph glyph-name="bracketright" unicode="]" horiz-adv-x="307" 
d="M224 -230h-189v41h104v847h-104v42h189v-930z" />
    <glyph glyph-name="asciicircum" unicode="^" horiz-adv-x="500" 
d="M233 711h32l170 -277h-88l-88 151l-24 67l-32 -68l-100 -150h-56z" />
    <glyph glyph-name="underscore" unicode="_" horiz-adv-x="410" 
d="M0 -143h410v-53h-410v53z" />
    <glyph glyph-name="grave" unicode="`" horiz-adv-x="328" 
d="M268 593l-22 -17l-186 149v20q6 5 19.5 9.5t29.5 7.5t30.5 4.5t22.5 0.5z" />
    <glyph glyph-name="a" unicode="a" horiz-adv-x="505" 
d="M410 131q0 -22 1 -38t2 -34l69 -10v-21q-25 -13 -55.5 -23t-58.5 -15h-25q-10 23 -12 50.5t-3 60.5h-5q-4 -20 -15.5 -40.5t-30 -36.5t-43.5 -26t-57 -10q-61 0 -99.5 37t-38.5 97q0 46 18.5 75.5t54.5 46.5t89 24.5t123 11.5q4 43 2.5 77.5t-11 59t-28 38t-48.5 13.5
q-14 0 -31.5 -1.5t-34.5 -8.5l-47 -120h-26q-10 30 -17.5 62t-9.5 63q38 23 84.5 36t103.5 13q51 0 81.5 -14.5t46.5 -37.5t21 -51t5 -56q0 -60 -2.5 -115.5t-2.5 -106.5zM217 50q25 0 44 10t32 24t21 28.5t11 24.5v105q-58 0 -95 -6t-58 -19t-29 -32.5t-8 -44.5
q0 -43 22 -66.5t60 -23.5z" />
    <glyph glyph-name="b" unicode="b" horiz-adv-x="545" 
d="M77 682l-76 8v26q31 13 69.5 21l71.5 15h25v-351h2q17 51 57.5 81t89.5 30q91 0 139.5 -62t48.5 -191q0 -132 -66.5 -200t-191.5 -68q-25 0 -50 3.5t-48 8.5t-41.5 12t-29.5 14v653zM289 450q-48 0 -78 -32.5t-44 -82.5v-279q18 -10 44 -15.5t55 -5.5q66 0 104 57.5
t38 166.5q0 39 -6.5 74t-21 61t-37 41t-54.5 15z" />
    <glyph glyph-name="c" unicode="c" horiz-adv-x="466" 
d="M427 70q-18 -35 -58.5 -58.5t-94.5 -23.5q-59 0 -102.5 18.5t-72.5 53t-43.5 83t-14.5 107.5q0 127 62 194.5t169 67.5q49 0 87.5 -8.5t65.5 -22.5q-3 -33 -11 -74t-20 -68h-27l-42 119q-7 5 -16 7.5t-30 2.5q-68 0 -105 -49.5t-37 -167.5q0 -38 10.5 -74t32 -64.5
t54 -45.5t75.5 -17q35 0 61 10t44 24z" />
    <glyph glyph-name="d" unicode="d" horiz-adv-x="555" 
d="M373 99q-5 -22 -17 -42t-29.5 -35.5t-40 -24.5t-48.5 -9q-99 0 -148 63t-49 196q0 128 62.5 195t168.5 67q37 0 58 -3.5t46 -12.5v189l-76 8v26q29 12 67.5 21t73.5 15h25v-695l66 -8v-21q-29 -14 -60 -24t-61 -14h-25l-9 109h-4zM258 50q49 0 78 31t40 84v282
q-17 10 -40 14t-59 4q-68 0 -104 -59.5t-36 -158.5q0 -41 7 -76.5t22 -62.5t37.5 -42.5t54.5 -15.5z" />
    <glyph glyph-name="e" unicode="e" horiz-adv-x="503" 
d="M446 70q-8 -17 -25 -32t-39 -26t-48 -17.5t-53 -6.5q-59 0 -104 18.5t-75 53t-45.5 82.5t-15.5 108q0 128 59 195t167 67q35 0 69 -9.5t60.5 -31.5t43 -58.5t16.5 -90.5q0 -17 -1.5 -34.5t-5.5 -37.5h-312q0 -42 10.5 -78.5t31.5 -63.5t53 -42.5t75 -15.5q35 0 71 10
t54 26zM263 468q-57 0 -87 -38.5t-36 -135.5h220q1 9 1.5 17.5t0.5 16.5q0 64 -24 102t-75 38z" />
    <glyph glyph-name="f" unicode="f" horiz-adv-x="342" 
d="M306 752q9 0 21 -1t25 -2.5t25 -4t21 -5.5q-3 -33 -8.5 -61.5t-13.5 -51.5h-25l-44 86q-29 0 -49.5 -6t-34 -23t-20 -49t-6.5 -84v-50h115v-50h-115v-401q52 -6 96 -24v-25h-252v25q31 18 66 24v401h-76v26q35 22 76 33v35q0 62 15 102.5t42 64t63.5 32.5t78.5 9z" />
    <glyph glyph-name="g" unicode="g" horiz-adv-x="526" 
d="M247 512q54 0 91 -10.5t62 -32.5q59 40 123 58q8 -11 11.5 -27t3.5 -30l-13 -24h-105q25 -36 25 -95q0 -72 -50.5 -117t-147.5 -45q-19 0 -31 1t-27 3l-11.5 -20t-6.5 -23q0 -20 23 -31.5t57.5 -20.5t75 -18.5t75.5 -26t58.5 -43t24.5 -68.5q1 -36 -16.5 -65t-48.5 -48.5
t-74.5 -30t-95.5 -10.5q-109 0 -164.5 37t-55.5 93q0 27 8.5 47t24.5 35t40 26.5t55 21.5q-22 10 -36.5 27.5t-14.5 42.5q0 23 19.5 45.5t39.5 35.5q-57 15 -87.5 57t-30.5 95q0 34 13 63.5t38 51.5t62 34t86 12zM395 -81q0 32 -21.5 51t-53.5 31t-69 20t-69 18
q-38 -23 -50 -48.5t-12 -52.5q0 -53 38 -79.5t110 -26.5q37 0 61.5 7t39 18.5t20.5 27.5t6 34zM138 351q0 -24 5.5 -45.5t18 -37.5t33.5 -25.5t52 -9.5q58 0 83 34t25 84q0 54 -24.5 85.5t-83.5 31.5q-61 0 -85 -30.5t-24 -86.5z" />
    <glyph glyph-name="h" unicode="h" horiz-adv-x="587" 
d="M570 0h-216v25q24 13 60 24v234q0 78 -22 122.5t-80 44.5q-26 0 -47 -9.5t-38 -24.5t-29 -34.5t-18 -40.5v-292q16 -4 30.5 -9t28.5 -15v-25h-215v25q31 16 66 24v633l-76 8v26q29 12 67.5 21t73.5 15h25v-353h1q21 47 60.5 80t95.5 33q40 0 71.5 -9.5t52.5 -33.5
t32 -64.5t11 -102.5v-253q17 -4 34 -9t32 -15v-25z" />
    <glyph glyph-name="i" unicode="i" horiz-adv-x="301" 
d="M263 0h-222v25q15 8 31 13.5t35 10.5v393l-66 8v26q29 12 63 21t68 15h25v-463q20 -5 36 -10.5t30 -13.5v-25zM88 670q0 27 17.5 43t46.5 16t46 -16t17 -43t-17 -42.5t-46 -15.5t-46.5 15.5t-17.5 42.5z" />
    <glyph glyph-name="j" unicode="j" horiz-adv-x="288" 
d="M106 442l-66 8v26q29 14 63.5 22.5t67.5 13.5h25v-469q0 -71 -18 -118t-42 -76t-49 -43t-40 -18l-12 19q12 6 24.5 21t23 41.5t17 64.5t6.5 90v418zM87 670q0 27 17.5 43t46.5 16t46 -16t17 -43t-17 -42.5t-46 -15.5t-46.5 15.5t-17.5 42.5z" />
    <glyph glyph-name="k" unicode="k" horiz-adv-x="516" 
d="M300 500h193v-26q-19 -8 -37.5 -14t-38.5 -10q-15 -20 -34.5 -43l-39.5 -46l-38.5 -43l-31.5 -33l36.5 -48.5l46.5 -60.5l51.5 -65t52.5 -62l56 -24v-25h-124l-27 24q-53 66 -88 117.5l-64 96.5l-33 10v-199q33 -6 65 -24v-25h-221v25q33 16 66 24v633l-76 8v26
q28 13 67 21l74 15h25v-478h26l35 40l38 45.5l37 46.5l33 44q-25 7 -49 24v26z" />
    <glyph glyph-name="l" unicode="l" horiz-adv-x="301" 
d="M263 0h-222v25q33 16 66 24v633l-76 8v26q26 12 65 21t76 15h25v-703q33 -8 66 -24v-25z" />
    <glyph glyph-name="m" unicode="m" horiz-adv-x="863" 
d="M548 0h-214v25q10 6 24.5 12.5t34.5 11.5v231q0 40 -3.5 72t-13 53.5t-27.5 33t-47 11.5q-22 0 -40.5 -9t-33 -24t-25 -34t-16.5 -40v-294q16 -5 30.5 -10.5t28.5 -13.5v-25h-215v25q14 7 31 13t35 11v393l-66 8v26q32 14 65.5 22.5t65.5 13.5h25v-113h1q16 47 54.5 80
t95.5 33q24 0 46 -5t41 -18.5t32 -37.5t19 -62q18 55 58 89t100 34q37 0 64.5 -9.5t45.5 -33.5t26.5 -65t8.5 -104v-251q34 -6 66 -24v-25h-215v25q30 16 59 24v249q0 36 -3.5 64t-13.5 47.5t-28 30t-48 10.5q-48 0 -74.5 -33t-38.5 -84v-284q35 -10 65 -24v-25z" />
    <glyph glyph-name="n" unicode="n" horiz-adv-x="594" 
d="M577 0h-215v25q27 14 59 24v237q0 76 -22 120t-80 44q-25 0 -46.5 -9t-38 -24.5t-28.5 -35t-19 -40.5v-292q31 -6 60 -24v-25h-216v25q25 13 66 24v393l-66 8v26q26 11 60 20t71 16h25v-112h1q21 46 60.5 79t95.5 33q40 0 71.5 -9.5t52.5 -33.5t32 -64.5t11 -102.5v-253
q40 -7 66 -24v-25z" />
    <glyph glyph-name="o" unicode="o" horiz-adv-x="553" 
d="M41 250q0 63 16.5 111.5t47.5 82t74.5 51t96.5 17.5q62 0 107 -19t73.5 -53.5t42 -82.5t13.5 -107q0 -126 -64 -194t-172 -68q-60 0 -104 18.5t-73 53t-43.5 83t-14.5 107.5zM137 250q0 -45 8.5 -85t27 -69.5t48.5 -46.5t72 -17q54 0 88.5 53t34.5 165q0 46 -8.5 85.5
t-26.5 69t-46 46.5t-67 17q-59 0 -95 -53t-36 -165z" />
    <glyph glyph-name="p" unicode="p" horiz-adv-x="566" 
d="M253 -200h-222v25q34 16 66 24v593l-66 8v26q32 14 65.5 22.5t65.5 13.5h25v-112h1q20 51 56 81.5t94 30.5q89 0 138 -59t49 -192q0 -63 -16.5 -114t-47 -86t-74 -54t-96.5 -19q-37 0 -58 4.5t-46 15.5v-159q16 -2 32 -7.5t34 -16.5v-25zM306 450q-49 0 -78 -31t-41 -85
v-280q18 -11 40.5 -16.5t58.5 -5.5q33 0 59.5 17t45 48t28.5 72.5t10 91.5q0 41 -6.5 75.5t-21 60t-38 39.5t-57.5 14z" />
    <glyph glyph-name="q" unicode="q" horiz-adv-x="548" 
d="M372 89q-14 -40 -49 -70.5t-89 -30.5q-96 0 -144.5 63.5t-48.5 195.5q0 130 64.5 196t185.5 66q54 0 103 -10t72 -21v-629q17 -3 33 -8.5t33 -15.5v-25h-222v25q31 16 66 24v240h-4zM258 50q49 0 77.5 31t40.5 83v287q-18 6 -42.5 10t-56.5 4q-67 0 -103.5 -52
t-36.5 -164q0 -42 6 -78t20.5 -63t37.5 -42.5t57 -15.5z" />
    <glyph glyph-name="r" unicode="r" horiz-adv-x="384" 
d="M244 425q-11 -6 -27.5 -24.5t-29.5 -54.5v-297q20 -2 40 -7.5t40 -16.5v-25h-236v25q18 10 34 15t32 9v393l-66 8v26q32 14 66 22.5t65 13.5h25v-106h4q9 20 25.5 40t38 36t47 24.5t52.5 5.5q7 -13 12.5 -28.5t10.5 -32.5v-26h-133z" />
    <glyph glyph-name="s" unicode="s" horiz-adv-x="433" 
d="M295 114q0 28 -17.5 47.5t-44.5 36.5t-57.5 33t-57.5 37.5t-44.5 49.5t-17.5 69q0 27 12.5 50t33.5 39.5t49 26t60 9.5q54 0 88.5 -6t66.5 -17q-4 -32 -9.5 -64.5t-15.5 -66.5h-25l-38 102q-12 5 -27 6.5t-31 1.5q-18 0 -31.5 -6.5t-23 -16.5t-14.5 -23t-5 -26
q0 -27 17.5 -46.5t44.5 -36t57.5 -32.5t57.5 -36t44.5 -46.5t17.5 -63.5q0 -34 -14.5 -61t-40 -46t-59 -29.5t-71.5 -10.5q-43 0 -79 7.5t-75 21.5q2 36 9 69.5t18 64.5h25l44 -109q11 -8 26.5 -9t28.5 -1q44 0 71 24t27 58z" />
    <glyph glyph-name="t" unicode="t" horiz-adv-x="371" 
d="M15 476q38 24 80 34v85q13 11 30.5 19.5l34.5 16.5h25v-131h150v-50h-150v-290q0 -60 19 -85t57 -25q18 0 45 2.5t46 9.5l7 -15q-8 -9 -22.5 -19t-33 -19t-40.5 -15t-45 -6q-60 0 -91.5 34t-31.5 110v318h-80v26z" />
    <glyph glyph-name="u" unicode="u" horiz-adv-x="574" 
d="M77 198q0 63 3 123.5t3 120.5l-66 8v26q32 12 65.5 21t65.5 15h25q0 -75 -3 -149t-3 -147q0 -39 4.5 -70t16 -52t31.5 -32.5t51 -11.5q45 0 75.5 32.5t47.5 84.5v275l-65 8v26q31 12 64.5 21t65.5 15h25v-455l66 -8v-21q-29 -13 -58.5 -23t-61.5 -15h-25l-7 119h-4
q-5 -21 -17.5 -42.5t-32.5 -39t-45.5 -28.5t-55.5 -11q-40 0 -70.5 9.5t-51.5 33.5t-32 64.5t-11 102.5z" />
    <glyph glyph-name="v" unicode="v" horiz-adv-x="507" 
d="M238 -12l-195 462q-29 10 -53 24v26h209v-25q-13 -7 -26.5 -13.5t-30.5 -11.5l116 -301l20 -62h2l15 63l107 300q-16 4 -29.5 10t-25.5 14v26h170v-26q-10 -7 -24.5 -13t-32.5 -11l-177 -450z" />
    <glyph glyph-name="w" unicode="w" horiz-adv-x="728" 
d="M200 -12l-157 462q-14 5 -27.5 10.5t-25.5 13.5v26h208v-25q-14 -8 -28 -14.5t-29 -10.5l87 -292l13 -72h2l15 74l108 330l30 10l115 -341l18 -73h2l15 73l77 291q-11 2 -25.5 8t-29.5 16v26h170v-26q-21 -14 -57 -24l-142 -450l-53 -12l-99 283l-19 83h-3l-23 -83
l-90 -271z" />
    <glyph glyph-name="x" unicode="x" horiz-adv-x="519" 
d="M298 268l158 -219q14 -5 27.5 -10.5t25.5 -13.5v-25h-205v24l26 14.5t24 10.5l-111 164l-112 -164q14 -5 26 -11t24 -13v-25h-171v25q28 17 56 24l149 199l-150 202q-14 5 -25.5 10.5t-23.5 13.5v26h201v-25q-12 -8 -23.5 -14.5t-25.5 -10.5l104 -150l102 150
q-34 11 -50 24v26h167v-26q-19 -13 -56 -24z" />
    <glyph glyph-name="y" unicode="y" horiz-adv-x="505" 
d="M42 450q-15 4 -27.5 10t-25.5 14v26h209v-25q-21 -14 -57 -25l128 -296l19 -62h2l15 63l95 295q-30 6 -55 24v26h171v-26q-21 -14 -57 -24l-156 -450q-24 -64 -45.5 -103.5t-43 -62.5t-44 -33.5t-48.5 -15.5q-11 19 -19.5 42t-14.5 44l13 24h104q6 8 10.5 15.5t9.5 18.5
t11 28t14 43z" />
    <glyph glyph-name="z" unicode="z" horiz-adv-x="488" 
d="M423 171q7 -42 10.5 -84.5t1.5 -86.5h-392v25l285 431h-189l-44 -118h-25q-8 43 -9.5 84.5t-1.5 77.5h376v-26l-286 -430h195l54 127h25z" />
    <glyph glyph-name="braceleft" unicode="{" horiz-adv-x="348" 
d="M135 111q0 51 -21 80t-59 29v30q38 0 59 30.5t21 74.5v239q0 48 24 77t72 29h90v-42h-48q-27 0 -39.5 -14t-12.5 -46v-233q0 -33 -10.5 -56t-27 -37.5t-35.5 -22t-37 -9.5v-6q17 -2 36.5 -10t36 -24t27 -39.5t10.5 -55.5v-234q0 -31 12 -45.5t41 -14.5h47v-41h-90
q-45 0 -70.5 26.5t-25.5 78.5v236z" />
    <glyph glyph-name="bar" unicode="|" horiz-adv-x="237" 
d="M93 700h52v-830h-52v830z" />
    <glyph glyph-name="braceright" unicode="}" horiz-adv-x="348" 
d="M238 360q0 -51 21 -80t59 -29v-30q-38 0 -59 -30.5t-21 -74.5v-240q0 -48 -24 -77t-72 -29h-90v41h49q27 0 39.5 14t12.5 46v235q0 33 9 56t23.5 37.5t32 22t35.5 9.5v6q-17 2 -35 10t-32.5 24t-23.5 39.5t-9 55.5v232q0 31 -12 45.5t-41 14.5h-48v42h91q45 0 70 -26.5
t25 -78.5v-235z" />
    <glyph glyph-name="asciitilde" unicode="~" horiz-adv-x="530" 
d="M58 322q36 54 69 74.5t63 20.5q25 0 49 -10.5t47 -23.5t46.5 -23.5t48.5 -10.5q18 0 37.5 7.5t39.5 26.5l13 -21q-29 -42 -57.5 -59.5t-55.5 -17.5q-26 0 -50.5 10.5t-48.5 23.5t-48 23.5t-48 10.5q-22 0 -44.5 -12t-45.5 -43z" />
    <glyph glyph-name="uni00A0" unicode="&#xa0;" horiz-adv-x="243" 
 />
    <glyph glyph-name="exclamdown" unicode="&#xa1;" horiz-adv-x="327" 
d="M153 286l32 -176v-296q-21 -11 -45 -11t-45 11v296l32 176h26zM208 446q0 -29 -19 -47t-49 -18q-31 0 -50 18t-19 47q0 30 19 48t50 18q30 0 49 -18t19 -48z" />
    <glyph glyph-name="cent" unicode="&#xa2;" 
d="M480 70q-20 -36 -60 -58.5t-94 -23.5v-158h-53v162q-105 15 -158 83.5t-53 174.5q0 55 15.5 99.5t43.5 77.5t66.5 53t85.5 28v152h53v-148q48 0 86.5 -8.5t65.5 -22.5q-3 -33 -11.5 -74t-20.5 -68h-25l-41 119q-7 5 -16 7.5t-29 2.5h-10v-415q18 -3 36 -3q35 0 61 10
t44 24zM158 251q0 -57 29.5 -108t86.5 -76v393q-53 -16 -84.5 -66t-31.5 -143z" />
    <glyph glyph-name="sterling" unicode="&#xa3;" 
d="M30 381h85q-15 32 -26 67t-11 86q0 41 15 74t42 56t65 35.5t85 12.5q61 0 112 -10t80 -24q-1 -16 -3.5 -38.5t-6 -46t-7.5 -46.5t-8 -40h-25l-40 137q-19 8 -46 12t-58 4q-39 0 -66.5 -17t-38.5 -48q-8 -22 -8 -46q1 -51 13 -91t26 -77h156v-51h-138q7 -25 11 -49.5
t2 -53.5q-1 -34 -13.5 -65t-40.5 -54l-33 -28v-4l56 6h199l49 112h25q2 -22 4 -48t3.5 -52.5t2.5 -51t1 -42.5h-460v31q64 28 95.5 67t32.5 100q0 11 -0.5 20.5t-1.5 19.5q-6 54 -21 92h-108v51z" />
    <glyph glyph-name="currency" unicode="&#xa4;" 
d="M36 170l83 82l35 11q-14 17 -20 38t-6 45q0 23 6 44.5t20 38.5l-35 11l-82 83l54 54l82 -83l12 -34q17 13 37.5 20t44.5 7q24 -1 45 -7.5t37 -19.5l13 34l82 82l53 -54l-83 -82l-32 -11q23 -34 23 -83q1 -47 -23 -84l32 -10l82 -83l-53 -54l-82 82l-12 34
q-16 -11 -37 -17.5t-45 -6.5t-44.5 6.5t-39.5 17.5l-10 -33l-83 -82zM267 264q36 0 60.5 23t24.5 59t-24.5 59.5t-60.5 23.5q-36 1 -60.5 -23t-24.5 -60t24.5 -59t60.5 -23z" />
    <glyph glyph-name="yen" unicode="&#xa5;" 
d="M359 700h220v-29q-40 -19 -76 -25l-160 -311h144v-52h-163v-63h163v-52h-163v-115q39 -5 76 -24v-29h-254v29q36 18 82 24v115h-163v52h163v63h-163v52h142l-171 311q-23 4 -42.5 10.5t-38.5 14.5v29h265v-29q-15 -6 -34 -12.5t-43 -12.5l154 -295l144 295
q-23 5 -43.5 11.5t-38.5 13.5v29z" />
    <glyph glyph-name="brokenbar" unicode="&#xa6;" horiz-adv-x="237" 
d="M93 190h52v-320h-52v320zM145 380h-52v320h52v-320z" />
    <glyph glyph-name="section" unicode="&#xa7;" horiz-adv-x="527" 
d="M347 44q0 30 -21.5 48t-53.5 31.5t-69 26t-69 31t-53.5 47.5t-21.5 76q0 50 38 86t93 59q-21 10 -39 22t-31.5 28.5t-21.5 38t-8 49.5q0 27 12 50t33.5 39.5t51.5 26t67 9.5q54 0 93 -5.5t71 -17.5q-2 -16 -4 -27.5t-5 -22.5t-7 -23l-9 -28h-25l-56 72q-12 5 -22.5 6.5
t-26.5 1.5q-43 0 -63 -23t-20 -49q0 -30 21.5 -49.5t53.5 -34.5t69 -28.5t69 -32.5t53.5 -46t21.5 -68q0 -29 -12 -52.5t-31 -42.5t-42 -33.5t-44 -24.5q20 -9 38 -19.5t31.5 -24.5t21 -31.5t7.5 -40.5q0 -70 -53 -110t-142 -40q-83 0 -162 29q1 18 3.5 30.5t5.5 24t7 23
t9 27.5h25l64 -79q11 -9 21.5 -10t24.5 -1q48 0 77.5 24t29.5 58zM378 313q0 24 -12 41.5t-32 30t-45.5 23l-52.5 21.5q-34 -16 -60.5 -43.5t-26.5 -59.5q0 -26 12.5 -45t32.5 -33t46.5 -25t53.5 -21q17 10 32 24t26.5 28.5t18.5 29.5t7 29z" />
    <glyph glyph-name="dieresis" unicode="&#xa8;" horiz-adv-x="450" 
d="M60 663q0 24 15 38.5t39 14.5t39 -14.5t15 -38.5q0 -23 -15 -37t-39 -14t-39 14t-15 37zM282 663q0 24 15 38.5t39 14.5t39 -14.5t15 -38.5q0 -23 -15 -37t-39 -14t-39 14t-15 37z" />
    <glyph glyph-name="copyright" unicode="&#xa9;" horiz-adv-x="807" 
d="M51 290q0 83 29.5 148.5t78.5 110.5t112.5 69t132.5 24t132.5 -24t112 -69t78 -110.5t29.5 -148.5t-29.5 -148.5t-78 -110.5t-112 -69t-132.5 -24q-72 0 -136.5 24t-112.5 69t-76 110.5t-28 148.5zM103 290q0 -69 23.5 -125.5t64.5 -96t96 -61.5t117 -22t117 22
t95.5 61.5t64 96t23.5 125.5t-25 125.5t-66.5 96t-96 61.5t-112.5 22q-66 0 -121.5 -22t-95 -62t-62 -96t-22.5 -125zM510 206h25q4 -15 6 -45.5t-1 -54.5q-9 -7 -22.5 -11.5t-28.5 -7.5t-31 -4t-29 -1q-49 0 -89.5 13.5t-70 40t-46 65.5t-16.5 90q0 52 18.5 91t48 65
t67 39.5t75.5 13.5q39 0 70 -5.5t51 -15.5q1 -9 1 -23.5t-1 -30.5t-3 -31t-5 -25h-25l-30 83q-7 5 -22 5.5t-29 0.5q-57 0 -88.5 -44.5t-31.5 -122.5q0 -33 7 -63.5t22.5 -54t40.5 -37t60 -13.5q20 0 32.5 4t16.5 8z" />
    <glyph glyph-name="ordfeminine" unicode="&#xaa;" horiz-adv-x="430" 
d="M99 605q-10 11 -17 30.5t-8 40.5q25 13 61.5 22.5t98.5 9.5q64 0 87.5 -26t23.5 -75q0 -19 -0.5 -41.5l-1 -44.5l-1 -42.5t-0.5 -36.5l50 -10v-26q-19 -11 -40.5 -18.5t-44.5 -9.5h-17q-7 17 -9.5 33.5t-3.5 33.5h-4q-5 -9 -14 -21t-23.5 -22.5t-34.5 -18t-47 -7.5
q-46 0 -75.5 25.5t-29.5 69.5q0 31 15.5 50.5t42.5 30.5t62.5 15.5t75.5 4.5q7 0 13.5 -0.5t13.5 -0.5q1 6 1 16.5v15.5q0 13 -3 25t-11 21.5t-21.5 15t-35.5 5.5q-12 0 -26 -2t-28 -7l-22 -56h-27zM182 422q21 0 36 7t25.5 16.5t17.5 20.5t11 20v52q-11 1 -21 1h-20
q-20 0 -38.5 -3.5t-32.5 -11t-22.5 -19.5t-8.5 -29q0 -20 13.5 -37t39.5 -17z" />
    <glyph glyph-name="guillemotleft" unicode="&#xab;" horiz-adv-x="471" 
d="M218 259l169 205l25 -19l-106 -179l112 -189l-24 -20zM24 259l213 207l26 -20l-140 -181l146 -189l-26 -21z" />
    <glyph glyph-name="logicalnot" unicode="&#xac;" horiz-adv-x="510" 
d="M43 387h425v-189h-62v126h-363v63z" />
    <glyph glyph-name="uni00AD" unicode="&#xad;" horiz-adv-x="425" 
d="M71 313h282v-63h-282v63z" />
    <glyph glyph-name="registered" unicode="&#xae;" horiz-adv-x="700" 
d="M83 451q0 64 21.5 113.5t58 83.5t85 51.5t102.5 17.5q56 0 104.5 -17.5t84.5 -51.5t57 -83.5t21 -113.5q0 -65 -21.5 -114.5t-58 -83.5t-85 -51.5t-102.5 -17.5q-56 0 -104.5 17.5t-84.5 51.5t-57 83.5t-21 114.5zM130 451q0 -52 17.5 -93.5t47.5 -71t70 -45t85 -15.5
q47 0 87.5 15.5t70 44.5t46 70.5t16.5 94.5q0 52 -17.5 93.5t-47.5 70.5t-70 45t-85 15q-48 1 -88 -15t-69.5 -45t-46 -70.5t-16.5 -93.5zM316 342q13 -1 21.5 -3.5t15.5 -5.5v-24h-124v24q17 6 35 9v233q-11 1 -19 3.5t-16 7.5v22h38q18 0 43 2t41 2q22 0 42.5 -4.5
t36.5 -15t25 -26.5t9 -38q0 -31 -21.5 -49t-49.5 -27l34.5 -56.5t45.5 -53.5l23 -12v-21h-50l-28 11q-25 30 -40 62t-26 61h-36v-101zM346 580q-11 0 -17.5 -0.5t-12.5 -2.5v-105h32q60 0 58 56q-1 26 -17.5 39t-42.5 13z" />
    <glyph glyph-name="macron" unicode="&#xaf;" horiz-adv-x="373" 
d="M60 637v52h253v-52h-253z" />
    <glyph glyph-name="degree" unicode="&#xb0;" horiz-adv-x="424" 
d="M83 571q0 31 11 57t30.5 44.5t45.5 29t55 10.5t55 -9t45 -26.5t30 -44t11 -61.5q0 -33 -11 -59t-30 -44.5t-45 -28t-55 -9.5t-55 9.5t-45.5 28t-30.5 44.5t-11 59zM139 571q0 -41 25.5 -66.5t60.5 -25.5q38 0 62 24t24 68q0 42 -24 67t-62 25t-62 -25t-24 -67z" />
    <glyph glyph-name="plusminus" unicode="&#xb1;" 
d="M42 490h198v210h53v-210h198v-53h-198v-154h-53v154h-198v53zM42 230h449v-53h-449v53z" />
    <glyph glyph-name="twosuperior" unicode="&#xb2;" horiz-adv-x="431" 
d="M109 639h-23q-7 10 -14.5 27t-14.5 36t-11.5 36t-5.5 27q32 18 75.5 33t93.5 15q44 0 73 -9.5t46.5 -25t24.5 -36.5t7 -45q0 -33 -16.5 -66.5t-46 -65.5t-70 -62t-88.5 -55v-6l31 7h137l44 67h22q2 -14 3.5 -31.5l3 -36t2 -35t0.5 -27.5h-339v33q41 23 82.5 54.5t75 67.5
t54.5 73t21 70q0 38 -17 59.5t-67 21.5q-38 0 -63 -15z" />
    <glyph glyph-name="threesuperior" unicode="&#xb3;" horiz-adv-x="431" 
d="M207 423q25 0 42 7t28 18t16 24.5t5 26.5q0 43 -24 61t-80 18h-33v26l86 109l44 42v2l-62 -4h-89l-36 -92h-22q-6 13 -11 32.5t-8.5 40.5t-6 40t-2.5 30h307v-36l-91 -106l-39 -40v-1l31 4q24 0 45.5 -7.5t38 -22t26.5 -36.5t10 -51q0 -65 -51.5 -98t-135.5 -33
q-41 0 -83.5 13.5t-68.5 32.5l34 92h18q5 -5 11 -15l13 -21.5t13.5 -23.5l11.5 -22q9 -3 24 -6.5t39 -3.5z" />
    <glyph glyph-name="acute" unicode="&#xb4;" horiz-adv-x="329" 
d="M177 767q8 1 21 -0.5t27 -4.5t26 -7.5t18 -9.5v-19l-187 -151l-22 18z" />
    <glyph glyph-name="mu" unicode="&#xb5;" horiz-adv-x="574" 
d="M134 15l35 -190v-25q-48 -14 -92 0v642l-60 8v26q32 12 65.5 21t65.5 15h25q0 -75 -3 -149t-3 -147q0 -39 4.5 -70t16 -52t31.5 -32.5t51 -11.5q45 0 76 32.5t48 84.5v275l-66 8v26q31 12 65 21t66 15h25v-455l66 -8v-21q-29 -13 -59 -23t-62 -15h-25l-7 119h-4
q-5 -21 -17.5 -42.5t-32 -39t-45 -28.5t-55.5 -11q-32 0 -57.5 6t-45.5 21h-6z" />
    <glyph glyph-name="mu" unicode="&#x3bc;" horiz-adv-x="574" 
d="M134 15l35 -190v-25q-48 -14 -92 0v642l-60 8v26q32 12 65.5 21t65.5 15h25q0 -75 -3 -149t-3 -147q0 -39 4.5 -70t16 -52t31.5 -32.5t51 -11.5q45 0 76 32.5t48 84.5v275l-66 8v26q31 12 65 21t66 15h25v-455l66 -8v-21q-29 -13 -59 -23t-62 -15h-25l-7 119h-4
q-5 -21 -17.5 -42.5t-32 -39t-45 -28.5t-55.5 -11q-32 0 -57.5 6t-45.5 21h-6z" />
    <glyph glyph-name="paragraph" unicode="&#xb6;" horiz-adv-x="511" 
d="M376 94q-1 -67 -10 -109.5t-26 -68t-40.5 -37.5t-52.5 -18q-20 -32 -46.5 -48.5t-52.5 -24.5l-12 20q22 9 41 24.5t32.5 40.5t21 62t7.5 89v286q-32 0 -63.5 10t-57 32.5t-41.5 59t-16 88.5q0 42 12.5 78.5t37 63.5t62.5 42.5t89 15.5h190v-30q-17 -8 -34.5 -14
t-40.5 -10v-552zM259 -116q42 17 56 69t14 141v557h-44v-627q0 -40 -6 -77t-20 -63z" />
    <glyph glyph-name="periodcentered" unicode="&#xb7;" horiz-adv-x="240" 
d="M53 307q0 30 19 48t49 18q31 0 50 -18t19 -48q0 -29 -19 -47t-50 -18q-30 0 -49 18t-19 47z" />
    <glyph glyph-name="cedilla" unicode="&#xb8;" horiz-adv-x="284" 
d="M117 -68q55 -2 80 -20.5t26 -50.5q1 -29 -14.5 -50.5t-39.5 -35.5t-53 -20.5t-56 -5.5v30q38 5 61 20t22 46q0 25 -20 36t-62 14l37 106h45z" />
    <glyph glyph-name="onesuperior" unicode="&#xb9;" horiz-adv-x="431" 
d="M365 386h-280v21q27 11 51.5 20t49.5 14v247l4 45q-24 -7 -53.5 -9.5t-58.5 -1.5v29q42 9 81 25.5t75 36.5h31v-372q26 -6 51.5 -14t48.5 -20v-21z" />
    <glyph glyph-name="ordmasculine" unicode="&#xba;" horiz-adv-x="435" 
d="M43 542q0 39 13 70t36.5 53.5t55 34.5t69.5 12t70 -10.5t55 -31.5t36 -53t13 -75q0 -39 -13 -70.5t-36 -53.5t-55 -34t-70 -12t-69.5 10.5t-55 31.5t-36.5 53t-13 75zM127 542q0 -60 23 -96.5t67 -36.5q90 0 90 133q0 132 -90 132t-90 -132z" />
    <glyph glyph-name="guillemotright" unicode="&#xbb;" horiz-adv-x="471" 
d="M77 57l-24 20l112 184l-107 184l25 19l170 -205zM228 55l-26 21l145 184l-140 186l26 20l213 -207z" />
    <glyph glyph-name="onequarter" unicode="&#xbc;" horiz-adv-x="938" 
d="M347 282h-280v21q27 11 51.5 20t49.5 14v247l4 45q-24 -7 -53.5 -9.5t-58.5 -1.5v29q42 9 81 25.5t75 36.5h31v-372q26 -6 51.5 -14t48.5 -20v-21zM753 710l35 -31l-585 -686l-34 32zM836 0h-211v21q17 8 35 14t38 10v72h-244v24l287 286h36v-263h94v-47h-94v-72
q14 -3 28 -8t31 -16v-21zM698 294l10 43h-3l-35 -43l-111 -114l-36 -23l63 7h112v130z" />
    <glyph glyph-name="onehalf" unicode="&#xbd;" horiz-adv-x="1004" 
d="M347 282h-280v21q27 11 51.5 20t49.5 14v247l4 45q-24 -7 -53.5 -9.5t-58.5 -1.5v29q42 9 81 25.5t75 36.5h31v-372q26 -6 51.5 -14t48.5 -20v-21zM753 710l35 -31l-585 -686l-34 32zM662 253h-23q-7 10 -14.5 27t-14.5 36t-11.5 36t-5.5 27q32 18 75.5 33t93.5 15
q44 0 73 -9.5t46.5 -25t24.5 -36.5t7 -45q0 -33 -16.5 -66.5t-46 -65.5t-70 -62t-88.5 -55v-6l31 7h137l44 67h22q2 -14 3.5 -31.5l3 -36t2 -35t0.5 -27.5h-339v33q41 23 82.5 54.5t75 67.5t54.5 73t21 70q0 38 -17 59.5t-67 21.5q-38 0 -63 -15z" />
    <glyph glyph-name="threequarters" unicode="&#xbe;" horiz-adv-x="991" 
d="M805 710l35 -31l-585 -686l-34 32zM888 0h-211v21q17 8 35 14t38 10v72h-244v24l287 286h36v-263h94v-47h-94v-72q14 -3 28 -8t31 -16v-21zM750 294l10 43h-3l-35 -43l-111 -114l-36 -23l63 7h112v130zM232 319q25 0 42 7t28 18t16 24.5t5 26.5q0 43 -24 61t-80 18h-33
v26l86 109l44 42v2l-62 -4h-89l-36 -92h-22q-6 13 -11 32.5t-8.5 40.5t-6 40t-2.5 30h307v-36l-91 -106l-39 -40v-1l31 4q24 0 45.5 -7.5t38 -22t26.5 -36.5t10 -51q0 -65 -51.5 -98t-135.5 -33q-41 0 -83.5 13.5t-68.5 32.5l34 92h18q5 -5 11 -15l13 -21.5t13.5 -23.5
l11.5 -22q9 -3 24 -6.5t39 -3.5z" />
    <glyph glyph-name="questiondown" unicode="&#xbf;" horiz-adv-x="473" 
d="M346 -15h25q8 -27 18 -69.5t14 -81.5q-38 -23 -81.5 -32.5t-106.5 -9.5q-45 0 -78.5 12.5t-56 34t-34 51.5t-11.5 65q0 45 16.5 78.5t41 60.5t53.5 50.5t54 49t41.5 56.5t16.5 73h20q12 -48 6 -83.5t-22.5 -63.5t-39 -51t-43 -47t-34.5 -51t-14 -62q0 -22 6 -43.5
t19.5 -39t35 -28t51.5 -10.5q32 0 52 5t28 13zM330 446q0 -29 -18.5 -47t-48.5 -18q-31 0 -50 18t-19 47q0 30 19 48t50 18q30 0 48.5 -18t18.5 -48z" />
    <glyph glyph-name="Agrave" unicode="&#xc0;" horiz-adv-x="683" 
d="M222 0h-222v29q36 16 72 24l253 659h29l253 -659q20 -4 39.5 -9t36.5 -15v-29h-256v29q20 8 41 14t41 10l-68 183h-239l-66 -183q42 -6 86 -24v-29zM222 288h202l-79 212l-19 86h-2l-25 -88zM370 769l-18 -19l-225 91v20q6 7 19 13.5t28 11t29 6.5t22 1z" />
    <glyph glyph-name="Aacute" unicode="&#xc1;" horiz-adv-x="683" 
d="M222 0h-222v29q36 16 72 24l253 659h29l253 -659q20 -4 39.5 -9t36.5 -15v-29h-256v29q20 8 41 14t41 10l-68 183h-239l-66 -183q42 -6 86 -24v-29zM222 288h202l-79 212l-19 86h-2l-25 -88zM451 893q9 1 23 -1t28.5 -6.5t27 -11t18.5 -13.5v-20l-226 -91l-17 19z" />
    <glyph glyph-name="Acircumflex" unicode="&#xc2;" horiz-adv-x="683" 
d="M222 0h-222v29q36 16 72 24l253 659h29l253 -659q20 -4 39.5 -9t36.5 -15v-29h-256v29q20 8 41 14t41 10l-68 183h-239l-66 -183q42 -6 86 -24v-29zM222 288h202l-79 212l-19 86h-2l-25 -88zM216 752l-14 19l127 112q5 3 12.5 3.5t13.5 -3.5l125 -109l-15 -21l-127 56z
" />
    <glyph glyph-name="Atilde" unicode="&#xc3;" horiz-adv-x="683" 
d="M222 0h-222v29q36 16 72 24l253 659h29l253 -659q20 -4 39.5 -9t36.5 -15v-29h-256v29q20 8 41 14t41 10l-68 183h-239l-66 -183q42 -6 86 -24v-29zM222 288h202l-79 212l-19 86h-2l-25 -88zM501 821q-32 -32 -58.5 -44t-51.5 -12q-19 0 -35.5 5.5t-32.5 11.5l-31 11.5
t-31 5.5q-14 0 -28.5 -5.5t-30.5 -19.5l-19 29q38 34 67.5 46.5t54.5 12.5q18 0 34.5 -5t31.5 -11t30 -11t31 -5q13 0 26.5 4.5t29.5 15.5z" />
    <glyph glyph-name="Adieresis" unicode="&#xc4;" horiz-adv-x="683" 
d="M222 0h-222v29q36 16 72 24l253 659h29l253 -659q20 -4 39.5 -9t36.5 -15v-29h-256v29q20 8 41 14t41 10l-68 183h-239l-66 -183q42 -6 86 -24v-29zM222 288h202l-79 212l-19 86h-2l-25 -88zM174 789q0 24 16 36t41 12q24 0 40 -12t16 -36q0 -23 -16 -35t-40 -12
q-25 0 -41 12t-16 35zM397 789q0 24 16 36t40 12q25 0 41 -12t16 -36q0 -23 -16 -35t-41 -12q-24 0 -40 12t-16 35z" />
    <glyph glyph-name="Aring" unicode="&#xc5;" horiz-adv-x="683" 
d="M230 788q0 20 9 36t25 27t36.5 17t44.5 6q19 0 38.5 -5t35.5 -15t25.5 -25.5t9.5 -37.5q0 -37 -29.5 -58t-69.5 -24l252 -656q20 -4 39.5 -9t36.5 -15v-29h-256v29q20 8 41 14t41 10l-68 183h-239l-66 -183q42 -6 86 -24v-29h-222v29q36 16 72 24l252 657q-42 4 -68 24
t-26 54zM222 288h202l-79 212l-19 86h-2l-25 -88zM286 788q0 -20 17.5 -29t36.5 -9q26 0 42 9t16 28q0 26 -18 36t-37 10q-25 0 -41 -9.5t-16 -35.5z" />
    <glyph glyph-name="AE" unicode="&#xc6;" horiz-adv-x="921" 
d="M842 700q-1 -40 -3 -80.5t-8 -81.5h-25l-42 110h-217v-265h162l40 74h24q8 -99 0 -202h-24l-40 76h-162v-279h230l48 120h26q6 -42 9.5 -85t1.5 -87h-493v29q35 16 82 24v203h-196l-116 -203q41 -6 85 -24v-29h-224v29q36 16 72 24l354 599l-29 8.5t-29 10.5v29h474z
M285 308h166v303h-2l-41 -93z" />
    <glyph glyph-name="Ccedilla" unicode="&#xc7;" horiz-adv-x="644" 
d="M547 182h26q5 -28 9 -70.5t2 -82.5q-17 -13 -40.5 -21t-49.5 -12.5t-52.5 -6t-49.5 -1.5l-24 -63q60 -1 88.5 -22.5t28.5 -56.5q0 -30 -17.5 -52t-44 -37t-58.5 -22t-61 -7v33q40 6 67 22t26 45q-1 28 -23 40.5t-67 15.5l36 108q-138 15 -214 101.5t-76 256.5
q0 98 27 166.5t73 112t107 63.5t128 20q66 0 111 -8.5t79 -25.5q0 -16 -1 -37.5t-3 -45.5t-5 -47t-6 -42h-26l-52 144q-11 6 -36.5 8t-50.5 2q-50 0 -94.5 -18.5t-78 -57t-53.5 -97t-20 -137.5q0 -71 18 -128.5t52 -98t83 -62t111 -21.5q33 0 55 5t29 13z" />
    <glyph glyph-name="Egrave" unicode="&#xc8;" horiz-adv-x="582" 
d="M503 700q-1 -40 -3.5 -80.5t-7.5 -81.5h-26l-41 110h-218v-265h163l39 74h25q6 -99 0 -202h-25l-39 76h-163v-279h230l49 120h25q7 -42 10 -85t1 -87h-493v29q35 16 82 24v593q-20 4 -41 10.5t-41 14.5v29h474zM356 769l-18 -19l-225 91v20q6 7 19 13.5t28 11t29 6.5
t22 1z" />
    <glyph glyph-name="Eacute" unicode="&#xc9;" horiz-adv-x="582" 
d="M503 700q-1 -40 -3.5 -80.5t-7.5 -81.5h-26l-41 110h-218v-265h163l39 74h25q6 -99 0 -202h-25l-39 76h-163v-279h230l49 120h25q7 -42 10 -85t1 -87h-493v29q35 16 82 24v593q-20 4 -41 10.5t-41 14.5v29h474zM361 893q9 1 23 -1t28.5 -6.5t27 -11t18.5 -13.5v-20
l-226 -91l-17 19z" />
    <glyph glyph-name="Ecircumflex" unicode="&#xca;" horiz-adv-x="582" 
d="M503 700q-1 -40 -3.5 -80.5t-7.5 -81.5h-26l-41 110h-218v-265h163l39 74h25q6 -99 0 -202h-25l-39 76h-163v-279h230l49 120h25q7 -42 10 -85t1 -87h-493v29q35 16 82 24v593q-20 4 -41 10.5t-41 14.5v29h474zM175 752l-14 19l127 112q5 3 12.5 3.5t13.5 -3.5l125 -109
l-15 -21l-127 56z" />
    <glyph glyph-name="Edieresis" unicode="&#xcb;" horiz-adv-x="582" 
d="M503 700q-1 -40 -3.5 -80.5t-7.5 -81.5h-26l-41 110h-218v-265h163l39 74h25q6 -99 0 -202h-25l-39 76h-163v-279h230l49 120h25q7 -42 10 -85t1 -87h-493v29q35 16 82 24v593q-20 4 -41 10.5t-41 14.5v29h474zM119 789q0 24 16 36t41 12q24 0 40 -12t16 -36
q0 -23 -16 -35t-40 -12q-25 0 -41 12t-16 35zM342 789q0 24 16 36t40 12q25 0 41 -12t16 -36q0 -23 -16 -35t-41 -12q-24 0 -40 12t-16 35z" />
    <glyph glyph-name="Igrave" unicode="&#xcc;" horiz-adv-x="352" 
d="M304 0h-256v29q39 18 80 24v593q-20 4 -40 10.5t-40 14.5v29h256v-29q-18 -8 -39 -14.5t-41 -10.5v-593q21 -4 42 -10t38 -14v-29zM279 769l-18 -19l-225 91v20q6 7 19 13.5t28 11t29 6.5t22 1z" />
    <glyph glyph-name="Iacute" unicode="&#xcd;" horiz-adv-x="352" 
d="M304 0h-256v29q39 18 80 24v593q-20 4 -40 10.5t-40 14.5v29h256v-29q-18 -8 -39 -14.5t-41 -10.5v-593q21 -4 42 -10t38 -14v-29zM240 893q9 1 23 -1t28.5 -6.5t27 -11t18.5 -13.5v-20l-226 -91l-17 19z" />
    <glyph glyph-name="Icircumflex" unicode="&#xce;" horiz-adv-x="352" 
d="M304 0h-256v29q39 18 80 24v593q-20 4 -40 10.5t-40 14.5v29h256v-29q-18 -8 -39 -14.5t-41 -10.5v-593q21 -4 42 -10t38 -14v-29zM52 752l-14 19l127 112q5 3 12.5 3.5t13.5 -3.5l125 -109l-15 -21l-127 56z" />
    <glyph glyph-name="Idieresis" unicode="&#xcf;" horiz-adv-x="352" 
d="M304 0h-256v29q39 18 80 24v593q-20 4 -40 10.5t-40 14.5v29h256v-29q-18 -8 -39 -14.5t-41 -10.5v-593q21 -4 42 -10t38 -14v-29zM9 789q0 24 16 36t41 12q24 0 40 -12t16 -36q0 -23 -16 -35t-40 -12q-25 0 -41 12t-16 35zM232 789q0 24 16 36t40 12q25 0 41 -12t16 -36
q0 -23 -16 -35t-41 -12q-24 0 -40 12t-16 35z" />
    <glyph glyph-name="Eth" unicode="&#xd0;" horiz-adv-x="709" 
d="M22 384h89v262q-23 5 -44 11.5t-38 13.5v29h102q17 0 40 1t47.5 2.5l47 3t37.5 1.5q85 0 150.5 -23.5t110.5 -68t68.5 -109.5t23.5 -148q0 -79 -22.5 -146.5t-68.5 -116.5t-116.5 -77t-166.5 -28q-14 0 -33.5 1.5l-40.5 3l-42.5 3t-40.5 1.5h-96v29q35 16 82 24v279h-89
v52zM289 656q-26 0 -50 -0.5t-38 -3.5v-268h167v-52h-167v-286q5 -1 18.5 -1.5t28.5 -1t28.5 -0.5h19.5q69 0 117 26t78 69.5t44 100.5t14 120q0 49 -13.5 101.5t-44 96t-80 71.5t-122.5 28z" />
    <glyph glyph-name="Ntilde" unicode="&#xd1;" horiz-adv-x="732" 
d="M487 700h216v-29q-42 -28 -82 -40v-643h-57l-363 551l-39 78h-3l9 -78v-475q41 -11 77 -35v-29h-216v29q18 11 38.5 19.5t43.5 15.5v573q-20 8 -39.5 17t-36.5 18v28h169l315 -475l46 -86h4l-5 86v406q-21 9 -40.5 19t-36.5 21v29zM525 821q-32 -32 -58.5 -44t-51.5 -12
q-19 0 -35.5 5.5t-32.5 11.5l-31 11.5t-31 5.5q-14 0 -28.5 -5.5t-30.5 -19.5l-19 29q38 34 67.5 46.5t54.5 12.5q18 0 34.5 -5t31.5 -11t30 -11t31 -5q13 0 26.5 4.5t29.5 15.5z" />
    <glyph glyph-name="Ograve" unicode="&#xd2;" horiz-adv-x="740" 
d="M53 350q0 78 21.5 144.5t62 115t99.5 75.5t134 27t134 -27t99.5 -75.5t62 -115t21.5 -144.5t-21.5 -144.5t-62 -115t-99.5 -75.5t-134 -27t-134 27t-99.5 75.5t-62 115t-21.5 144.5zM160 350q0 -64 13.5 -120.5t40.5 -98.5t68 -66.5t97 -24.5q51 0 89 24.5t62.5 66.5
t37 98.5t12.5 120.5t-13 120.5t-40 98.5t-68 66.5t-97 24.5q-55 0 -93.5 -24.5t-62.5 -66.5t-35 -98.5t-11 -120.5zM438 769l-18 -19l-225 91v20q6 7 19 13.5t28 11t29 6.5t22 1z" />
    <glyph glyph-name="Oacute" unicode="&#xd3;" horiz-adv-x="740" 
d="M53 350q0 78 21.5 144.5t62 115t99.5 75.5t134 27t134 -27t99.5 -75.5t62 -115t21.5 -144.5t-21.5 -144.5t-62 -115t-99.5 -75.5t-134 -27t-134 27t-99.5 75.5t-62 115t-21.5 144.5zM160 350q0 -64 13.5 -120.5t40.5 -98.5t68 -66.5t97 -24.5q51 0 89 24.5t62.5 66.5
t37 98.5t12.5 120.5t-13 120.5t-40 98.5t-68 66.5t-97 24.5q-55 0 -93.5 -24.5t-62.5 -66.5t-35 -98.5t-11 -120.5zM422 893q9 1 23 -1t28.5 -6.5t27 -11t18.5 -13.5v-20l-226 -91l-17 19z" />
    <glyph glyph-name="Ocircumflex" unicode="&#xd4;" horiz-adv-x="740" 
d="M53 350q0 78 21.5 144.5t62 115t99.5 75.5t134 27t134 -27t99.5 -75.5t62 -115t21.5 -144.5t-21.5 -144.5t-62 -115t-99.5 -75.5t-134 -27t-134 27t-99.5 75.5t-62 115t-21.5 144.5zM160 350q0 -64 13.5 -120.5t40.5 -98.5t68 -66.5t97 -24.5q51 0 89 24.5t62.5 66.5
t37 98.5t12.5 120.5t-13 120.5t-40 98.5t-68 66.5t-97 24.5q-55 0 -93.5 -24.5t-62.5 -66.5t-35 -98.5t-11 -120.5zM245 752l-14 19l127 112q5 3 12.5 3.5t13.5 -3.5l125 -109l-15 -21l-127 56z" />
    <glyph glyph-name="Otilde" unicode="&#xd5;" horiz-adv-x="740" 
d="M53 350q0 78 21.5 144.5t62 115t99.5 75.5t134 27t134 -27t99.5 -75.5t62 -115t21.5 -144.5t-21.5 -144.5t-62 -115t-99.5 -75.5t-134 -27t-134 27t-99.5 75.5t-62 115t-21.5 144.5zM160 350q0 -64 13.5 -120.5t40.5 -98.5t68 -66.5t97 -24.5q51 0 89 24.5t62.5 66.5
t37 98.5t12.5 120.5t-13 120.5t-40 98.5t-68 66.5t-97 24.5q-55 0 -93.5 -24.5t-62.5 -66.5t-35 -98.5t-11 -120.5zM529 821q-32 -32 -58.5 -44t-51.5 -12q-19 0 -35.5 5.5t-32.5 11.5l-31 11.5t-31 5.5q-14 0 -28.5 -5.5t-30.5 -19.5l-19 29q38 34 67.5 46.5t54.5 12.5
q18 0 34.5 -5t31.5 -11t30 -11t31 -5q13 0 26.5 4.5t29.5 15.5z" />
    <glyph glyph-name="Odieresis" unicode="&#xd6;" horiz-adv-x="740" 
d="M53 350q0 78 21.5 144.5t62 115t99.5 75.5t134 27t134 -27t99.5 -75.5t62 -115t21.5 -144.5t-21.5 -144.5t-62 -115t-99.5 -75.5t-134 -27t-134 27t-99.5 75.5t-62 115t-21.5 144.5zM160 350q0 -64 13.5 -120.5t40.5 -98.5t68 -66.5t97 -24.5q51 0 89 24.5t62.5 66.5
t37 98.5t12.5 120.5t-13 120.5t-40 98.5t-68 66.5t-97 24.5q-55 0 -93.5 -24.5t-62.5 -66.5t-35 -98.5t-11 -120.5zM202 789q0 24 16 36t41 12q24 0 40 -12t16 -36q0 -23 -16 -35t-40 -12q-25 0 -41 12t-16 35zM425 789q0 24 16 36t40 12q25 0 41 -12t16 -36q0 -23 -16 -35
t-41 -12q-24 0 -40 12t-16 35z" />
    <glyph glyph-name="multiply" unicode="&#xd7;" 
d="M88 204l140 140l-138 139l37 37l139 -138l140 140l37 -37l-140 -140l143 -143l-38 -38l-143 143l-140 -140z" />
    <glyph glyph-name="Oslash" unicode="&#xd8;" horiz-adv-x="740" 
d="M53 350q0 78 21.5 144.5t62 115t99.5 75.5t134 27q49 0 90.5 -12t76.5 -33l28 46l51 -29l-34 -53q51 -49 78 -121t27 -160q0 -78 -21.5 -144.5t-62 -115t-99.5 -75.5t-134 -27q-48 0 -89.5 11.5t-76.5 31.5l-28 -44l-47 29l30 49q-52 49 -79 122t-27 163zM160 350
q0 -60 12 -113t36 -94l290 463q-26 26 -60 40t-76 14q-55 0 -93.5 -24.5t-62.5 -66.5t-35 -98.5t-11 -120.5zM580 350q0 60 -11.5 111.5t-35.5 92.5l-289 -461q26 -26 59 -39.5t76 -13.5q51 0 89 24.5t62.5 66.5t37 98.5t12.5 120.5z" />
    <glyph glyph-name="Ugrave" unicode="&#xd9;" horiz-adv-x="672" 
d="M10 700h254v-29q-19 -8 -38 -14t-38 -11v-409q0 -53 11.5 -88.5t33.5 -57t54.5 -31t73.5 -9.5q79 0 123 43.5t44 143.5v399q-23 8 -43 16.5t-36 17.5v29h213v-29q-19 -11 -38.5 -20t-39.5 -14v-401q0 -64 -17 -110t-47.5 -76t-74 -44.5t-96.5 -14.5q-125 0 -191 56.5
t-66 173.5v425q-41 6 -82 25v29zM401 769l-18 -19l-225 91v20q6 7 19 13.5t28 11t29 6.5t22 1z" />
    <glyph glyph-name="Uacute" unicode="&#xda;" horiz-adv-x="672" 
d="M10 700h254v-29q-19 -8 -38 -14t-38 -11v-409q0 -53 11.5 -88.5t33.5 -57t54.5 -31t73.5 -9.5q79 0 123 43.5t44 143.5v399q-23 8 -43 16.5t-36 17.5v29h213v-29q-19 -11 -38.5 -20t-39.5 -14v-401q0 -64 -17 -110t-47.5 -76t-74 -44.5t-96.5 -14.5q-125 0 -191 56.5
t-66 173.5v425q-41 6 -82 25v29zM465 893q9 1 23 -1t28.5 -6.5t27 -11t18.5 -13.5v-20l-226 -91l-17 19z" />
    <glyph glyph-name="Ucircumflex" unicode="&#xdb;" horiz-adv-x="672" 
d="M10 700h254v-29q-19 -8 -38 -14t-38 -11v-409q0 -53 11.5 -88.5t33.5 -57t54.5 -31t73.5 -9.5q79 0 123 43.5t44 143.5v399q-23 8 -43 16.5t-36 17.5v29h213v-29q-19 -11 -38.5 -20t-39.5 -14v-401q0 -64 -17 -110t-47.5 -76t-74 -44.5t-96.5 -14.5q-125 0 -191 56.5
t-66 173.5v425q-41 6 -82 25v29zM232 752l-14 19l127 112q5 3 12.5 3.5t13.5 -3.5l125 -109l-15 -21l-127 56z" />
    <glyph glyph-name="Udieresis" unicode="&#xdc;" horiz-adv-x="672" 
d="M10 700h254v-29q-19 -8 -38 -14t-38 -11v-409q0 -53 11.5 -88.5t33.5 -57t54.5 -31t73.5 -9.5q79 0 123 43.5t44 143.5v399q-23 8 -43 16.5t-36 17.5v29h213v-29q-19 -11 -38.5 -20t-39.5 -14v-401q0 -64 -17 -110t-47.5 -76t-74 -44.5t-96.5 -14.5q-125 0 -191 56.5
t-66 173.5v425q-41 6 -82 25v29zM189 789q0 24 16 36t41 12q24 0 40 -12t16 -36q0 -23 -16 -35t-40 -12q-25 0 -41 12t-16 35zM412 789q0 24 16 36t40 12q25 0 41 -12t16 -36q0 -23 -16 -35t-41 -12q-24 0 -40 12t-16 35z" />
    <glyph glyph-name="Yacute" unicode="&#xdd;" horiz-adv-x="644" 
d="M424 700h220v-29q-38 -19 -76 -25l-189 -348v-245q39 -5 76 -24v-29h-254v29q36 18 82 24v244l-202 349q-23 4 -42.5 10.5t-38.5 14.5v29h265v-29q-15 -6 -34 -12.5t-43 -12.5l164 -294l154 294q-23 5 -43.5 11.5t-38.5 13.5v29zM465 893q9 1 23 -1t28.5 -6.5t27 -11
t18.5 -13.5v-20l-226 -91l-17 19z" />
    <glyph glyph-name="Thorn" unicode="&#xde;" horiz-adv-x="595" 
d="M207 53q56 -8 96 -25v-28h-274v28q20 11 41 16t41 9v594q-41 8 -80 25v28h256v-28q-18 -9 -39 -15t-41 -10v-49q23 2 45.5 3t44.5 1q49 0 96 -10.5t83.5 -35t58.5 -65t22 -100.5q0 -57 -23 -97.5t-61.5 -67t-87.5 -39t-101 -12.5h-15.5t-22.5 0.5t-23 1.5t-16 2v-126z
M275 550q-24 0 -39 -1t-29 -5v-313q5 -2 14.5 -2.5t20 -1t20.5 -0.5h16q35 0 66 9.5t54.5 29.5t37.5 51t14 74q0 78 -46.5 118.5t-128.5 40.5z" />
    <glyph glyph-name="germandbls" unicode="&#xdf;" horiz-adv-x="638" 
d="M433 590q0 22 -8.5 43t-22.5 37.5t-32 27t-39 10.5q-27 0 -51 -5.5t-42.5 -24.5t-29.5 -55t-11 -97v-526h-156v25q31 18 66 24v401h-76v26q35 22 76 33v35q0 62 22 102.5t54.5 64t70.5 32.5t71 9q54 0 91.5 -15t61 -40t34 -57t11.5 -66q-38 -5 -68 -14.5t-51 -25.5
t-32 -39.5t-11 -56.5q0 -31 17.5 -53.5t44 -42t57.5 -38t57.5 -42t44 -53.5t17.5 -71q0 -70 -48 -110t-137 -40q-83 0 -162 29q2 25 8.5 46.5t15.5 38.5h25l65 -62q11 -5 21.5 -6.5t24.5 -1.5q48 0 72.5 24t24.5 58q0 33 -17.5 56t-44 42.5t-57.5 38t-57.5 42.5t-44 56
t-17.5 78q0 55 36.5 96t125.5 67z" />
    <glyph glyph-name="agrave" unicode="&#xe0;" horiz-adv-x="505" 
d="M410 131q0 -22 1 -38t2 -34l69 -10v-21q-25 -13 -55.5 -23t-58.5 -15h-25q-10 23 -12 50.5t-3 60.5h-5q-4 -20 -15.5 -40.5t-30 -36.5t-43.5 -26t-57 -10q-61 0 -99.5 37t-38.5 97q0 46 18.5 75.5t54.5 46.5t89 24.5t123 11.5q4 43 2.5 77.5t-11 59t-28 38t-48.5 13.5
q-14 0 -31.5 -1.5t-34.5 -8.5l-47 -120h-26q-10 30 -17.5 62t-9.5 63q38 23 84.5 36t103.5 13q51 0 81.5 -14.5t46.5 -37.5t21 -51t5 -56q0 -60 -2.5 -115.5t-2.5 -106.5zM217 50q25 0 44 10t32 24t21 28.5t11 24.5v105q-58 0 -95 -6t-58 -19t-29 -32.5t-8 -44.5
q0 -43 22 -66.5t60 -23.5zM316 593l-22 -17l-186 149v20q6 5 19.5 9.5t29.5 7.5t30.5 4.5t22.5 0.5z" />
    <glyph glyph-name="aacute" unicode="&#xe1;" horiz-adv-x="505" 
d="M410 131q0 -22 1 -38t2 -34l69 -10v-21q-25 -13 -55.5 -23t-58.5 -15h-25q-10 23 -12 50.5t-3 60.5h-5q-4 -20 -15.5 -40.5t-30 -36.5t-43.5 -26t-57 -10q-61 0 -99.5 37t-38.5 97q0 46 18.5 75.5t54.5 46.5t89 24.5t123 11.5q4 43 2.5 77.5t-11 59t-28 38t-48.5 13.5
q-14 0 -31.5 -1.5t-34.5 -8.5l-47 -120h-26q-10 30 -17.5 62t-9.5 63q38 23 84.5 36t103.5 13q51 0 81.5 -14.5t46.5 -37.5t21 -51t5 -56q0 -60 -2.5 -115.5t-2.5 -106.5zM217 50q25 0 44 10t32 24t21 28.5t11 24.5v105q-58 0 -95 -6t-58 -19t-29 -32.5t-8 -44.5
q0 -43 22 -66.5t60 -23.5zM305 767q8 1 21 -0.5t27 -4.5t26 -7.5t18 -9.5v-19l-187 -151l-22 18z" />
    <glyph glyph-name="acircumflex" unicode="&#xe2;" horiz-adv-x="505" 
d="M410 131q0 -22 1 -38t2 -34l69 -10v-21q-25 -13 -55.5 -23t-58.5 -15h-25q-10 23 -12 50.5t-3 60.5h-5q-4 -20 -15.5 -40.5t-30 -36.5t-43.5 -26t-57 -10q-61 0 -99.5 37t-38.5 97q0 46 18.5 75.5t54.5 46.5t89 24.5t123 11.5q4 43 2.5 77.5t-11 59t-28 38t-48.5 13.5
q-14 0 -31.5 -1.5t-34.5 -8.5l-47 -120h-26q-10 30 -17.5 62t-9.5 63q38 23 84.5 36t103.5 13q51 0 81.5 -14.5t46.5 -37.5t21 -51t5 -56q0 -60 -2.5 -115.5t-2.5 -106.5zM217 50q25 0 44 10t32 24t21 28.5t11 24.5v105q-58 0 -95 -6t-58 -19t-29 -32.5t-8 -44.5
q0 -43 22 -66.5t60 -23.5zM157 590l-29 16l110 186q5 3 12.5 3.5t12.5 -3.5l114 -185l-27 -17l-103 107z" />
    <glyph glyph-name="atilde" unicode="&#xe3;" horiz-adv-x="505" 
d="M410 131q0 -22 1 -38t2 -34l69 -10v-21q-25 -13 -55.5 -23t-58.5 -15h-25q-10 23 -12 50.5t-3 60.5h-5q-4 -20 -15.5 -40.5t-30 -36.5t-43.5 -26t-57 -10q-61 0 -99.5 37t-38.5 97q0 46 18.5 75.5t54.5 46.5t89 24.5t123 11.5q4 43 2.5 77.5t-11 59t-28 38t-48.5 13.5
q-14 0 -31.5 -1.5t-34.5 -8.5l-47 -120h-26q-10 30 -17.5 62t-9.5 63q38 23 84.5 36t103.5 13q51 0 81.5 -14.5t46.5 -37.5t21 -51t5 -56q0 -60 -2.5 -115.5t-2.5 -106.5zM217 50q25 0 44 10t32 24t21 28.5t11 24.5v105q-58 0 -95 -6t-58 -19t-29 -32.5t-8 -44.5
q0 -43 22 -66.5t60 -23.5zM396 672q-32 -32 -58.5 -44.5t-49.5 -12.5q-18 0 -34 5.5t-31 11.5l-29.5 11.5t-29.5 5.5q-13 0 -26.5 -5t-29.5 -19l-19 28q37 35 66 47t52 12q18 0 33.5 -5t29.5 -11t28.5 -11t29.5 -5q13 0 26 4.5t29 15.5z" />
    <glyph glyph-name="adieresis" unicode="&#xe4;" horiz-adv-x="505" 
d="M410 131q0 -22 1 -38t2 -34l69 -10v-21q-25 -13 -55.5 -23t-58.5 -15h-25q-10 23 -12 50.5t-3 60.5h-5q-4 -20 -15.5 -40.5t-30 -36.5t-43.5 -26t-57 -10q-61 0 -99.5 37t-38.5 97q0 46 18.5 75.5t54.5 46.5t89 24.5t123 11.5q4 43 2.5 77.5t-11 59t-28 38t-48.5 13.5
q-14 0 -31.5 -1.5t-34.5 -8.5l-47 -120h-26q-10 30 -17.5 62t-9.5 63q38 23 84.5 36t103.5 13q51 0 81.5 -14.5t46.5 -37.5t21 -51t5 -56q0 -60 -2.5 -115.5t-2.5 -106.5zM217 50q25 0 44 10t32 24t21 28.5t11 24.5v105q-58 0 -95 -6t-58 -19t-29 -32.5t-8 -44.5
q0 -43 22 -66.5t60 -23.5zM77 663q0 24 15 38.5t39 14.5t39 -14.5t15 -38.5q0 -23 -15 -37t-39 -14t-39 14t-15 37zM299 663q0 24 15 38.5t39 14.5t39 -14.5t15 -38.5q0 -23 -15 -37t-39 -14t-39 14t-15 37z" />
    <glyph glyph-name="aring" unicode="&#xe5;" horiz-adv-x="505" 
d="M410 131q0 -22 1 -38t2 -34l69 -10v-21q-25 -13 -55.5 -23t-58.5 -15h-25q-10 23 -12 50.5t-3 60.5h-5q-4 -20 -15.5 -40.5t-30 -36.5t-43.5 -26t-57 -10q-61 0 -99.5 37t-38.5 97q0 46 18.5 75.5t54.5 46.5t89 24.5t123 11.5q4 43 2.5 77.5t-11 59t-28 38t-48.5 13.5
q-14 0 -31.5 -1.5t-34.5 -8.5l-47 -120h-26q-10 30 -17.5 62t-9.5 63q38 23 84.5 36t103.5 13q51 0 81.5 -14.5t46.5 -37.5t21 -51t5 -56q0 -60 -2.5 -115.5t-2.5 -106.5zM217 50q25 0 44 10t32 24t21 28.5t11 24.5v105q-58 0 -95 -6t-58 -19t-29 -32.5t-8 -44.5
q0 -43 22 -66.5t60 -23.5zM143 683q0 41 28.5 69t71.5 28q39 0 66.5 -25t27.5 -69q0 -21 -8 -38t-21 -29t-30.5 -19t-35.5 -7q-45 0 -72 24t-27 66zM195 685q0 -26 13.5 -38.5t30.5 -12.5q20 0 32.5 11.5t12.5 36.5q0 27 -12 42t-32 15q-24 0 -34.5 -15t-10.5 -39z" />
    <glyph glyph-name="ae" unicode="&#xe6;" horiz-adv-x="778" 
d="M390 453q11 12 24 23t30.5 19t41 12.5t56.5 4.5q35 0 69 -9.5t60.5 -31.5t43 -58.5t16.5 -90.5q0 -17 -1.5 -34.5t-5.5 -37.5h-310q0 -42 10.5 -78.5t31 -63.5t52 -42.5t74.5 -15.5q17 0 35.5 2.5t35.5 7.5t31 11.5t23 14.5l15 -16q-8 -17 -25 -32t-39.5 -26t-48.5 -17.5
t-53 -6.5t-56.5 5t-58 17.5t-52.5 34t-39 53.5q-8 -23 -24 -43t-38.5 -35t-50.5 -23.5t-60 -8.5q-61 0 -99.5 37t-38.5 97q0 46 18.5 75.5t54.5 46.5t89 24.5t123 11.5q3 31 3 58q0 61 -19 95.5t-69 34.5q-14 0 -31.5 -1.5t-34.5 -8.5l-47 -120h-26q-10 30 -17.5 62t-9.5 63
q38 23 84.5 36t103.5 13t87 -16.5t42 -42.5zM217 50q25 0 43.5 9.5t31.5 23t21 27.5t11 24v108q-58 0 -95 -6t-58 -19t-28.5 -32.5t-7.5 -44.5q0 -43 22 -66.5t60 -23.5zM538 468q-56 0 -86 -38.5t-36 -135.5h219q1 9 1.5 17.5t0.5 16.5q0 64 -24 102t-75 38z" />
    <glyph glyph-name="ccedilla" unicode="&#xe7;" horiz-adv-x="466" 
d="M427 70q-19 -36 -60 -59t-98 -23l-21 -56q55 -2 79.5 -20.5t26.5 -50.5q1 -29 -14.5 -50.5t-39.5 -35.5t-53 -20.5t-56 -5.5v30q38 5 61 20t22 46q-1 25 -20.5 36t-61.5 14l34 97q-93 14 -139 83t-46 175q0 127 62 194.5t169 67.5q49 0 87.5 -8.5t65.5 -22.5
q-3 -33 -11 -74t-20 -68h-27l-42 119q-7 5 -16 7.5t-30 2.5q-68 0 -105 -49.5t-37 -167.5q0 -38 10.5 -74t32 -64.5t54 -45.5t75.5 -17q35 0 61 10t44 24z" />
    <glyph glyph-name="egrave" unicode="&#xe8;" horiz-adv-x="503" 
d="M446 70q-8 -17 -25 -32t-39 -26t-48 -17.5t-53 -6.5q-59 0 -104 18.5t-75 53t-45.5 82.5t-15.5 108q0 128 59 195t167 67q35 0 69 -9.5t60.5 -31.5t43 -58.5t16.5 -90.5q0 -17 -1.5 -34.5t-5.5 -37.5h-312q0 -42 10.5 -78.5t31.5 -63.5t53 -42.5t75 -15.5q35 0 71 10
t54 26zM263 468q-57 0 -87 -38.5t-36 -135.5h220q1 9 1.5 17.5t0.5 16.5q0 64 -24 102t-75 38zM325 593l-22 -17l-186 149v20q6 5 19.5 9.5t29.5 7.5t30.5 4.5t22.5 0.5z" />
    <glyph glyph-name="eacute" unicode="&#xe9;" horiz-adv-x="503" 
d="M446 70q-8 -17 -25 -32t-39 -26t-48 -17.5t-53 -6.5q-59 0 -104 18.5t-75 53t-45.5 82.5t-15.5 108q0 128 59 195t167 67q35 0 69 -9.5t60.5 -31.5t43 -58.5t16.5 -90.5q0 -17 -1.5 -34.5t-5.5 -37.5h-312q0 -42 10.5 -78.5t31.5 -63.5t53 -42.5t75 -15.5q35 0 71 10
t54 26zM263 468q-57 0 -87 -38.5t-36 -135.5h220q1 9 1.5 17.5t0.5 16.5q0 64 -24 102t-75 38zM322 767q8 1 21 -0.5t27 -4.5t26 -7.5t18 -9.5v-19l-187 -151l-22 18z" />
    <glyph glyph-name="ecircumflex" unicode="&#xea;" horiz-adv-x="503" 
d="M446 70q-8 -17 -25 -32t-39 -26t-48 -17.5t-53 -6.5q-59 0 -104 18.5t-75 53t-45.5 82.5t-15.5 108q0 128 59 195t167 67q35 0 69 -9.5t60.5 -31.5t43 -58.5t16.5 -90.5q0 -17 -1.5 -34.5t-5.5 -37.5h-312q0 -42 10.5 -78.5t31.5 -63.5t53 -42.5t75 -15.5q35 0 71 10
t54 26zM263 468q-57 0 -87 -38.5t-36 -135.5h220q1 9 1.5 17.5t0.5 16.5q0 64 -24 102t-75 38zM166 590l-29 16l110 186q5 3 12.5 3.5t12.5 -3.5l114 -185l-27 -17l-103 107z" />
    <glyph glyph-name="edieresis" unicode="&#xeb;" horiz-adv-x="503" 
d="M446 70q-8 -17 -25 -32t-39 -26t-48 -17.5t-53 -6.5q-59 0 -104 18.5t-75 53t-45.5 82.5t-15.5 108q0 128 59 195t167 67q35 0 69 -9.5t60.5 -31.5t43 -58.5t16.5 -90.5q0 -17 -1.5 -34.5t-5.5 -37.5h-312q0 -42 10.5 -78.5t31.5 -63.5t53 -42.5t75 -15.5q35 0 71 10
t54 26zM263 468q-57 0 -87 -38.5t-36 -135.5h220q1 9 1.5 17.5t0.5 16.5q0 64 -24 102t-75 38zM93 663q0 24 15 38.5t39 14.5t39 -14.5t15 -38.5q0 -23 -15 -37t-39 -14t-39 14t-15 37zM315 663q0 24 15 38.5t39 14.5t39 -14.5t15 -38.5q0 -23 -15 -37t-39 -14t-39 14
t-15 37z" />
    <glyph glyph-name="igrave" unicode="&#xec;" horiz-adv-x="301" 
d="M263 0h-222v25q15 8 31 13.5t35 10.5v393l-66 8v26q29 12 63 21t68 15h25v-463q20 -5 36 -10.5t30 -13.5v-25zM202 593l-22 -17l-186 149v20q6 5 19.5 9.5t29.5 7.5t30.5 4.5t22.5 0.5z" />
    <glyph glyph-name="iacute" unicode="&#xed;" horiz-adv-x="301" 
d="M263 0h-222v25q15 8 31 13.5t35 10.5v393l-66 8v26q29 12 63 21t68 15h25v-463q20 -5 36 -10.5t30 -13.5v-25zM199 767q8 1 21 -0.5t27 -4.5t26 -7.5t18 -9.5v-19l-187 -151l-22 18z" />
    <glyph glyph-name="icircumflex" unicode="&#xee;" horiz-adv-x="301" 
d="M263 0h-222v25q15 8 31 13.5t35 10.5v393l-66 8v26q29 12 63 21t68 15h25v-463q20 -5 36 -10.5t30 -13.5v-25zM55 590l-29 16l110 186q5 3 12.5 3.5t12.5 -3.5l114 -185l-27 -17l-103 107z" />
    <glyph glyph-name="idieresis" unicode="&#xef;" horiz-adv-x="301" 
d="M263 0h-222v25q15 8 31 13.5t35 10.5v393l-66 8v26q29 12 63 21t68 15h25v-463q20 -5 36 -10.5t30 -13.5v-25zM-14 663q0 24 15 38.5t39 14.5t39 -14.5t15 -38.5q0 -23 -15 -37t-39 -14t-39 14t-15 37zM208 663q0 24 15 38.5t39 14.5t39 -14.5t15 -38.5q0 -23 -15 -37
t-39 -14t-39 14t-15 37z" />
    <glyph glyph-name="eth" unicode="&#xf0;" horiz-adv-x="535" 
d="M158 604l114 46q-26 27 -56.5 48.5t-64.5 34.5v17h61q31 -9 62.5 -27.5t60.5 -46.5l110 46l19 -43l-93 -38q54 -63 90 -152t36 -200q0 -65 -14.5 -120.5t-44 -95.5t-73.5 -62.5t-103 -22.5q-54 0 -97.5 18.5t-74 52.5t-46.5 80.5t-16 102.5q0 67 19 118t49.5 84.5
t69.5 50.5t79 17q53 0 85.5 -16.5t55.5 -40.5q-12 38 -32.5 79t-49.5 79l-126 -52zM124 242q0 -41 9.5 -78.5t28.5 -66.5t45.5 -46t61.5 -17q32 0 57 17t41.5 48.5t25 75.5t8.5 99q0 53 -3.5 84t-6.5 44q-15 25 -47.5 41.5t-79.5 16.5q-61 0 -100.5 -54.5t-39.5 -163.5z" />
    <glyph glyph-name="ntilde" unicode="&#xf1;" horiz-adv-x="594" 
d="M577 0h-215v25q27 14 59 24v237q0 76 -22 120t-80 44q-25 0 -46.5 -9t-38 -24.5t-28.5 -35t-19 -40.5v-292q31 -6 60 -24v-25h-216v25q25 13 66 24v393l-66 8v26q26 11 60 20t71 16h25v-112h1q21 46 60.5 79t95.5 33q40 0 71.5 -9.5t52.5 -33.5t32 -64.5t11 -102.5v-253
q40 -7 66 -24v-25zM451 672q-32 -32 -58.5 -44.5t-49.5 -12.5q-18 0 -34 5.5t-31 11.5l-29.5 11.5t-29.5 5.5q-13 0 -26.5 -5t-29.5 -19l-19 28q37 35 66 47t52 12q18 0 33.5 -5t29.5 -11t28.5 -11t29.5 -5q13 0 26 4.5t29 15.5z" />
    <glyph glyph-name="ograve" unicode="&#xf2;" horiz-adv-x="553" 
d="M41 250q0 63 16.5 111.5t47.5 82t74.5 51t96.5 17.5q62 0 107 -19t73.5 -53.5t42 -82.5t13.5 -107q0 -126 -64 -194t-172 -68q-60 0 -104 18.5t-73 53t-43.5 83t-14.5 107.5zM137 250q0 -45 8.5 -85t27 -69.5t48.5 -46.5t72 -17q54 0 88.5 53t34.5 165q0 46 -8.5 85.5
t-26.5 69t-46 46.5t-67 17q-59 0 -95 -53t-36 -165zM340 593l-22 -17l-186 149v20q6 5 19.5 9.5t29.5 7.5t30.5 4.5t22.5 0.5z" />
    <glyph glyph-name="oacute" unicode="&#xf3;" horiz-adv-x="553" 
d="M41 250q0 63 16.5 111.5t47.5 82t74.5 51t96.5 17.5q62 0 107 -19t73.5 -53.5t42 -82.5t13.5 -107q0 -126 -64 -194t-172 -68q-60 0 -104 18.5t-73 53t-43.5 83t-14.5 107.5zM137 250q0 -45 8.5 -85t27 -69.5t48.5 -46.5t72 -17q54 0 88.5 53t34.5 165q0 46 -8.5 85.5
t-26.5 69t-46 46.5t-67 17q-59 0 -95 -53t-36 -165zM329 767q8 1 21 -0.5t27 -4.5t26 -7.5t18 -9.5v-19l-187 -151l-22 18z" />
    <glyph glyph-name="ocircumflex" unicode="&#xf4;" horiz-adv-x="553" 
d="M41 250q0 63 16.5 111.5t47.5 82t74.5 51t96.5 17.5q62 0 107 -19t73.5 -53.5t42 -82.5t13.5 -107q0 -126 -64 -194t-172 -68q-60 0 -104 18.5t-73 53t-43.5 83t-14.5 107.5zM137 250q0 -45 8.5 -85t27 -69.5t48.5 -46.5t72 -17q54 0 88.5 53t34.5 165q0 46 -8.5 85.5
t-26.5 69t-46 46.5t-67 17q-59 0 -95 -53t-36 -165zM180 590l-29 16l110 186q5 3 12.5 3.5t12.5 -3.5l114 -185l-27 -17l-103 107z" />
    <glyph glyph-name="otilde" unicode="&#xf5;" horiz-adv-x="553" 
d="M41 250q0 63 16.5 111.5t47.5 82t74.5 51t96.5 17.5q62 0 107 -19t73.5 -53.5t42 -82.5t13.5 -107q0 -126 -64 -194t-172 -68q-60 0 -104 18.5t-73 53t-43.5 83t-14.5 107.5zM137 250q0 -45 8.5 -85t27 -69.5t48.5 -46.5t72 -17q54 0 88.5 53t34.5 165q0 46 -8.5 85.5
t-26.5 69t-46 46.5t-67 17q-59 0 -95 -53t-36 -165zM429 672q-32 -32 -58.5 -44.5t-49.5 -12.5q-18 0 -34 5.5t-31 11.5l-29.5 11.5t-29.5 5.5q-13 0 -26.5 -5t-29.5 -19l-19 28q37 35 66 47t52 12q18 0 33.5 -5t29.5 -11t28.5 -11t29.5 -5q13 0 26 4.5t29 15.5z" />
    <glyph glyph-name="odieresis" unicode="&#xf6;" horiz-adv-x="553" 
d="M41 250q0 63 16.5 111.5t47.5 82t74.5 51t96.5 17.5q62 0 107 -19t73.5 -53.5t42 -82.5t13.5 -107q0 -126 -64 -194t-172 -68q-60 0 -104 18.5t-73 53t-43.5 83t-14.5 107.5zM137 250q0 -45 8.5 -85t27 -69.5t48.5 -46.5t72 -17q54 0 88.5 53t34.5 165q0 46 -8.5 85.5
t-26.5 69t-46 46.5t-67 17q-59 0 -95 -53t-36 -165zM111 663q0 24 15 38.5t39 14.5t39 -14.5t15 -38.5q0 -23 -15 -37t-39 -14t-39 14t-15 37zM333 663q0 24 15 38.5t39 14.5t39 -14.5t15 -38.5q0 -23 -15 -37t-39 -14t-39 14t-15 37z" />
    <glyph glyph-name="divide" unicode="&#xf7;" 
d="M42 372h450v-53h-450v53zM198 535q0 30 19 48t49 18q31 0 50 -18t19 -48q0 -29 -19 -47t-50 -18q-30 0 -49 18t-19 47zM198 154q0 30 19 48t49 18q31 0 50 -18t19 -48q0 -29 -19 -47t-50 -18q-30 0 -49 18t-19 47z" />
    <glyph glyph-name="oslash" unicode="&#xf8;" horiz-adv-x="553" 
d="M116 41q-38 35 -56.5 88t-18.5 121q0 63 16.5 111.5t47.5 82t74.5 51t96.5 17.5q77 0 128 -30l46 71l38 -26l-47 -71q36 -35 53.5 -87.5t17.5 -118.5q0 -126 -64 -194t-172 -68q-36 0 -66.5 7t-55.5 20l-50 -77l-38 27zM137 250q0 -39 6.5 -73.5t20.5 -62.5l202 311
q-18 21 -42 32t-56 11q-60 0 -95.5 -53t-35.5 -165zM416 250q0 37 -6 70t-19 61l-200 -310q36 -39 102 -39q54 0 88.5 53t34.5 165z" />
    <glyph glyph-name="ugrave" unicode="&#xf9;" horiz-adv-x="574" 
d="M77 198q0 63 3 123.5t3 120.5l-66 8v26q32 12 65.5 21t65.5 15h25q0 -75 -3 -149t-3 -147q0 -39 4.5 -70t16 -52t31.5 -32.5t51 -11.5q45 0 75.5 32.5t47.5 84.5v275l-65 8v26q31 12 64.5 21t65.5 15h25v-455l66 -8v-21q-29 -13 -58.5 -23t-61.5 -15h-25l-7 119h-4
q-5 -21 -17.5 -42.5t-32.5 -39t-45.5 -28.5t-55.5 -11q-40 0 -70.5 9.5t-51.5 33.5t-32 64.5t-11 102.5zM351 593l-22 -17l-186 149v20q6 5 19.5 9.5t29.5 7.5t30.5 4.5t22.5 0.5z" />
    <glyph glyph-name="uacute" unicode="&#xfa;" horiz-adv-x="574" 
d="M77 198q0 63 3 123.5t3 120.5l-66 8v26q32 12 65.5 21t65.5 15h25q0 -75 -3 -149t-3 -147q0 -39 4.5 -70t16 -52t31.5 -32.5t51 -11.5q45 0 75.5 32.5t47.5 84.5v275l-65 8v26q31 12 64.5 21t65.5 15h25v-455l66 -8v-21q-29 -13 -58.5 -23t-61.5 -15h-25l-7 119h-4
q-5 -21 -17.5 -42.5t-32.5 -39t-45.5 -28.5t-55.5 -11q-40 0 -70.5 9.5t-51.5 33.5t-32 64.5t-11 102.5zM338 767q8 1 21 -0.5t27 -4.5t26 -7.5t18 -9.5v-19l-187 -151l-22 18z" />
    <glyph glyph-name="ucircumflex" unicode="&#xfb;" horiz-adv-x="574" 
d="M77 198q0 63 3 123.5t3 120.5l-66 8v26q32 12 65.5 21t65.5 15h25q0 -75 -3 -149t-3 -147q0 -39 4.5 -70t16 -52t31.5 -32.5t51 -11.5q45 0 75.5 32.5t47.5 84.5v275l-65 8v26q31 12 64.5 21t65.5 15h25v-455l66 -8v-21q-29 -13 -58.5 -23t-61.5 -15h-25l-7 119h-4
q-5 -21 -17.5 -42.5t-32.5 -39t-45.5 -28.5t-55.5 -11q-40 0 -70.5 9.5t-51.5 33.5t-32 64.5t-11 102.5zM190 590l-29 16l110 186q5 3 12.5 3.5t12.5 -3.5l114 -185l-27 -17l-103 107z" />
    <glyph glyph-name="udieresis" unicode="&#xfc;" horiz-adv-x="574" 
d="M77 198q0 63 3 123.5t3 120.5l-66 8v26q32 12 65.5 21t65.5 15h25q0 -75 -3 -149t-3 -147q0 -39 4.5 -70t16 -52t31.5 -32.5t51 -11.5q45 0 75.5 32.5t47.5 84.5v275l-65 8v26q31 12 64.5 21t65.5 15h25v-455l66 -8v-21q-29 -13 -58.5 -23t-61.5 -15h-25l-7 119h-4
q-5 -21 -17.5 -42.5t-32.5 -39t-45.5 -28.5t-55.5 -11q-40 0 -70.5 9.5t-51.5 33.5t-32 64.5t-11 102.5zM121 663q0 24 15 38.5t39 14.5t39 -14.5t15 -38.5q0 -23 -15 -37t-39 -14t-39 14t-15 37zM343 663q0 24 15 38.5t39 14.5t39 -14.5t15 -38.5q0 -23 -15 -37t-39 -14
t-39 14t-15 37z" />
    <glyph glyph-name="yacute" unicode="&#xfd;" horiz-adv-x="505" 
d="M42 450q-15 4 -27.5 10t-25.5 14v26h209v-25q-21 -14 -57 -25l128 -296l19 -62h2l15 63l95 295q-30 6 -55 24v26h171v-26q-21 -14 -57 -24l-156 -450q-24 -64 -45.5 -103.5t-43 -62.5t-44 -33.5t-48.5 -15.5q-11 19 -19.5 42t-14.5 44l13 24h104q6 8 10.5 15.5t9.5 18.5
t11 28t14 43zM315 767q8 1 21 -0.5t27 -4.5t26 -7.5t18 -9.5v-19l-187 -151l-22 18z" />
    <glyph glyph-name="thorn" unicode="&#xfe;" horiz-adv-x="566" 
d="M95 682l-76 8v26q26 12 65 21t76 15h25v-352h1q20 51 56 81.5t94 30.5q89 0 138 -59t49 -192q0 -63 -16.5 -114t-47 -86t-74 -54t-96.5 -19q-37 0 -58 4.5t-46 15.5v-159q16 -2 32 -7.5t34 -16.5v-25h-222v25q34 16 66 24v833zM304 450q-49 0 -78 -31t-41 -85v-280
q18 -11 40.5 -16.5t58.5 -5.5q33 0 59.5 17t45 48t28.5 72.5t10 91.5q0 41 -6.5 75.5t-21 60t-38 39.5t-57.5 14z" />
    <glyph glyph-name="ydieresis" unicode="&#xff;" horiz-adv-x="505" 
d="M42 450q-15 4 -27.5 10t-25.5 14v26h209v-25q-21 -14 -57 -25l128 -296l19 -62h2l15 63l95 295q-30 6 -55 24v26h171v-26q-21 -14 -57 -24l-156 -450q-24 -64 -45.5 -103.5t-43 -62.5t-44 -33.5t-48.5 -15.5q-11 19 -19.5 42t-14.5 44l13 24h104q6 8 10.5 15.5t9.5 18.5
t11 28t14 43zM98 663q0 24 15 38.5t39 14.5t39 -14.5t15 -38.5q0 -23 -15 -37t-39 -14t-39 14t-15 37zM320 663q0 24 15 38.5t39 14.5t39 -14.5t15 -38.5q0 -23 -15 -37t-39 -14t-39 14t-15 37z" />
    <glyph glyph-name="Amacron" unicode="&#x100;" horiz-adv-x="683" 
d="M222 0h-222v29q36 16 72 24l253 659h29l253 -659q20 -4 39.5 -9t36.5 -15v-29h-256v29q20 8 41 14t41 10l-68 183h-239l-66 -183q42 -6 86 -24v-29zM222 288h202l-79 212l-19 86h-2l-25 -88zM192 788v52h301v-52h-301z" />
    <glyph glyph-name="amacron" unicode="&#x101;" horiz-adv-x="505" 
d="M410 131q0 -22 1 -38t2 -34l69 -10v-21q-25 -13 -55.5 -23t-58.5 -15h-25q-10 23 -12 50.5t-3 60.5h-5q-4 -20 -15.5 -40.5t-30 -36.5t-43.5 -26t-57 -10q-61 0 -99.5 37t-38.5 97q0 46 18.5 75.5t54.5 46.5t89 24.5t123 11.5q4 43 2.5 77.5t-11 59t-28 38t-48.5 13.5
q-14 0 -31.5 -1.5t-34.5 -8.5l-47 -120h-26q-10 30 -17.5 62t-9.5 63q38 23 84.5 36t103.5 13q51 0 81.5 -14.5t46.5 -37.5t21 -51t5 -56q0 -60 -2.5 -115.5t-2.5 -106.5zM217 50q25 0 44 10t32 24t21 28.5t11 24.5v105q-58 0 -95 -6t-58 -19t-29 -32.5t-8 -44.5
q0 -43 22 -66.5t60 -23.5zM125 637v52h253v-52h-253z" />
    <glyph glyph-name="Abreve" unicode="&#x102;" horiz-adv-x="683" 
d="M222 0h-222v29q36 16 72 24l253 659h29l253 -659q20 -4 39.5 -9t36.5 -15v-29h-256v29q20 8 41 14t41 10l-68 183h-239l-66 -183q42 -6 86 -24v-29zM222 288h202l-79 212l-19 86h-2l-25 -88zM461 883q16 2 32 -14q-9 -22 -23.5 -42t-34 -35t-42.5 -24t-48 -9
q-54 0 -94.5 29t-59.5 83q12 19 42 15q7 -12 19.5 -22.5t28.5 -18t33 -12t32 -4.5q32 -1 63.5 11t51.5 43z" />
    <glyph glyph-name="abreve" unicode="&#x103;" horiz-adv-x="505" 
d="M410 131q0 -22 1 -38t2 -34l69 -10v-21q-25 -13 -55.5 -23t-58.5 -15h-25q-10 23 -12 50.5t-3 60.5h-5q-4 -20 -15.5 -40.5t-30 -36.5t-43.5 -26t-57 -10q-61 0 -99.5 37t-38.5 97q0 46 18.5 75.5t54.5 46.5t89 24.5t123 11.5q4 43 2.5 77.5t-11 59t-28 38t-48.5 13.5
q-14 0 -31.5 -1.5t-34.5 -8.5l-47 -120h-26q-10 30 -17.5 62t-9.5 63q38 23 84.5 36t103.5 13q51 0 81.5 -14.5t46.5 -37.5t21 -51t5 -56q0 -60 -2.5 -115.5t-2.5 -106.5zM217 50q25 0 44 10t32 24t21 28.5t11 24.5v105q-58 0 -95 -6t-58 -19t-29 -32.5t-8 -44.5
q0 -43 22 -66.5t60 -23.5zM388 719q-9 -22 -21.5 -44t-29.5 -39t-37.5 -28t-45.5 -11q-27 0 -48 9.5t-38 26t-30 39t-22 49.5l28 13q7 -13 19.5 -24.5t27.5 -20.5t32 -14.5t32 -5.5q68 -2 109 61z" />
    <glyph glyph-name="Aogonek" unicode="&#x104;" horiz-adv-x="683" 
d="M222 0h-222v29q36 16 72 24l253 659h29l253 -659q20 -4 39.5 -9t36.5 -15v-29h-42q-43 -24 -72 -57.5t-29 -77.5q0 -28 18 -46t49 -18t55 6v-29q-14 -11 -36 -20t-55 -9q-23 0 -43.5 7t-36 20t-24.5 31.5t-9 40.5q0 26 9.5 47.5t26.5 40t40.5 34t51.5 30.5h-159v29
q20 8 41 14t41 10l-68 183h-239l-66 -183q42 -6 86 -24v-29zM222 288h202l-79 212l-19 86h-2l-25 -88z" />
    <glyph glyph-name="aogonek" unicode="&#x105;" horiz-adv-x="505" 
d="M410 131q0 -22 1 -38t2 -34l69 -10v-21q-7 -4 -14 -7t-15 -6q-44 -23 -73.5 -55.5t-29.5 -77.5q0 -10 3.5 -20.5t10.5 -19.5t18 -14.5t26 -5.5q14 0 26.5 2.5t26.5 6.5v-33q-14 -8 -35.5 -14t-39.5 -6q-60 0 -90 25t-30 63q0 40 26 70.5t68 53.5h-8h-9q-10 23 -12 50.5
t-3 60.5h-5q-4 -20 -15.5 -40.5t-30 -36.5t-43.5 -26t-57 -10q-61 0 -99.5 37t-38.5 97q0 46 18.5 75.5t54.5 46.5t89 24.5t123 11.5q4 43 2.5 77.5t-11 59t-28 38t-48.5 13.5q-14 0 -31.5 -1.5t-34.5 -8.5l-47 -120h-26q-10 30 -17.5 62t-9.5 63q38 23 84.5 36t103.5 13
q51 0 81.5 -14.5t46.5 -37.5t21 -51t5 -56q0 -60 -2.5 -115.5t-2.5 -106.5zM217 50q25 0 44 10t32 24t21 28.5t11 24.5v105q-58 0 -95 -6t-58 -19t-29 -32.5t-8 -44.5q0 -43 22 -66.5t60 -23.5z" />
    <glyph glyph-name="Cacute" unicode="&#x106;" horiz-adv-x="644" 
d="M547 182h26q5 -28 9 -70.5t2 -82.5q-15 -12 -36 -19.5t-44.5 -12.5t-48 -7t-46.5 -2q-84 0 -150 21.5t-111.5 65.5t-70 112.5t-24.5 162.5q0 98 27 166.5t73 112t107 63.5t128 20q66 0 111 -8.5t79 -25.5q0 -16 -1 -37.5t-3 -45.5t-5 -47t-6 -42h-26l-52 144
q-11 6 -36.5 8t-50.5 2q-50 0 -94.5 -18.5t-78 -57t-53.5 -97t-20 -137.5q0 -71 18 -128.5t52 -98t83 -62t111 -21.5q33 0 55 5t29 13zM440 893q9 1 23 -1t28.5 -6.5t27 -11t18.5 -13.5v-20l-226 -91l-17 19z" />
    <glyph glyph-name="cacute" unicode="&#x107;" horiz-adv-x="466" 
d="M427 70q-18 -35 -58.5 -58.5t-94.5 -23.5q-59 0 -102.5 18.5t-72.5 53t-43.5 83t-14.5 107.5q0 127 62 194.5t169 67.5q49 0 87.5 -8.5t65.5 -22.5q-3 -33 -11 -74t-20 -68h-27l-42 119q-7 5 -16 7.5t-30 2.5q-68 0 -105 -49.5t-37 -167.5q0 -38 10.5 -74t32 -64.5
t54 -45.5t75.5 -17q35 0 61 10t44 24zM315 767q8 1 21 -0.5t27 -4.5t26 -7.5t18 -9.5v-19l-187 -151l-22 18z" />
    <glyph glyph-name="Ccircumflex" unicode="&#x108;" horiz-adv-x="644" 
d="M547 182h26q5 -28 9 -70.5t2 -82.5q-15 -12 -36 -19.5t-44.5 -12.5t-48 -7t-46.5 -2q-84 0 -150 21.5t-111.5 65.5t-70 112.5t-24.5 162.5q0 98 27 166.5t73 112t107 63.5t128 20q66 0 111 -8.5t79 -25.5q0 -16 -1 -37.5t-3 -45.5t-5 -47t-6 -42h-26l-52 144
q-11 6 -36.5 8t-50.5 2q-50 0 -94.5 -18.5t-78 -57t-53.5 -97t-20 -137.5q0 -71 18 -128.5t52 -98t83 -62t111 -21.5q33 0 55 5t29 13zM246 752l-14 19l127 112q5 3 12.5 3.5t13.5 -3.5l125 -109l-15 -21l-127 56z" />
    <glyph glyph-name="ccircumflex" unicode="&#x109;" horiz-adv-x="466" 
d="M427 70q-18 -35 -58.5 -58.5t-94.5 -23.5q-59 0 -102.5 18.5t-72.5 53t-43.5 83t-14.5 107.5q0 127 62 194.5t169 67.5q49 0 87.5 -8.5t65.5 -22.5q-3 -33 -11 -74t-20 -68h-27l-42 119q-7 5 -16 7.5t-30 2.5q-68 0 -105 -49.5t-37 -167.5q0 -38 10.5 -74t32 -64.5
t54 -45.5t75.5 -17q35 0 61 10t44 24zM167 590l-29 16l110 186q5 3 12.5 3.5t12.5 -3.5l114 -185l-27 -17l-103 107z" />
    <glyph glyph-name="Ccaron" unicode="&#x10c;" horiz-adv-x="644" 
d="M547 182h26q5 -28 9 -70.5t2 -82.5q-15 -12 -36 -19.5t-44.5 -12.5t-48 -7t-46.5 -2q-84 0 -150 21.5t-111.5 65.5t-70 112.5t-24.5 162.5q0 98 27 166.5t73 112t107 63.5t128 20q66 0 111 -8.5t79 -25.5q0 -16 -1 -37.5t-3 -45.5t-5 -47t-6 -42h-26l-52 144
q-11 6 -36.5 8t-50.5 2q-50 0 -94.5 -18.5t-78 -57t-53.5 -97t-20 -137.5q0 -71 18 -128.5t52 -98t83 -62t111 -21.5q33 0 55 5t29 13zM499 888q8 0 15 -5t10 -12l-127 -112q-5 -2 -12.5 -2.5t-13.5 2.5l-125 109q4 7 9.5 13.5t15.5 6.5l117 -55z" />
    <glyph glyph-name="ccaron" unicode="&#x10d;" horiz-adv-x="466" 
d="M427 70q-18 -35 -58.5 -58.5t-94.5 -23.5q-59 0 -102.5 18.5t-72.5 53t-43.5 83t-14.5 107.5q0 127 62 194.5t169 67.5q49 0 87.5 -8.5t65.5 -22.5q-3 -33 -11 -74t-20 -68h-27l-42 119q-7 5 -16 7.5t-30 2.5q-68 0 -105 -49.5t-37 -167.5q0 -38 10.5 -74t32 -64.5
t54 -45.5t75.5 -17q35 0 61 10t44 24zM359 796q9 1 17.5 -4t11.5 -12l-124 -185q-5 -2 -12 -2.5t-13 2.5l-121 184q4 8 14 13t20 4l107 -106z" />
    <glyph glyph-name="Dcaron" unicode="&#x10e;" horiz-adv-x="708" 
d="M29 0v29q35 16 82 24v593q-23 5 -44 11.5t-38 13.5v29h102q17 0 40 1t47.5 2.5l47 3t37.5 1.5q170 0 261.5 -91t91.5 -258q0 -79 -22.5 -146.5t-68.5 -116.5t-116.5 -77t-166.5 -28q-15 0 -34 1.5t-40 3l-42.5 3t-40.5 1.5h-96zM289 656q-26 0 -50 -0.5t-38 -3.5v-606
q5 -1 18 -1.5t28 -1t28.5 -0.5h19.5q69 0 117 26t78.5 69.5t44.5 100.5t14 120q0 49 -13.5 101.5t-44 96t-80.5 71.5t-122 28zM412 888q8 0 15 -5t10 -12l-127 -112q-5 -2 -12.5 -2.5t-13.5 2.5l-125 109q4 7 9.5 13.5t15.5 6.5l117 -55z" />
    <glyph glyph-name="dcaron" unicode="&#x10f;" horiz-adv-x="555" 
d="M373 99q-5 -22 -17 -42t-29.5 -35.5t-40 -24.5t-48.5 -9q-99 0 -148 63t-49 196q0 128 62.5 195t168.5 67q37 0 58 -3.5t46 -12.5v189l-76 8v26q29 12 67.5 21t73.5 15h25v-695l66 -8v-21q-29 -14 -60 -24t-61 -14h-25l-9 109h-4zM258 50q49 0 78 31t40 84v282
q-17 10 -40 14t-59 4q-68 0 -104 -59.5t-36 -158.5q0 -41 7 -76.5t22 -62.5t37.5 -42.5t54.5 -15.5zM507 543q21 45 32 97.5t11 93.5l12 16q7 1 18.5 -0.5t23.5 -5t22.5 -8t16.5 -9.5q-5 -28 -17.5 -56.5t-29 -54.5t-35 -47.5t-34.5 -36.5z" />
    <glyph glyph-name="Dcroat" unicode="&#x110;" horiz-adv-x="709" 
d="M22 384h89v262q-23 5 -44 11.5t-38 13.5v29h102q17 0 40 1t47.5 2.5l47 3t37.5 1.5q85 0 150.5 -23.5t110.5 -68t68.5 -109.5t23.5 -148q0 -79 -22.5 -146.5t-68.5 -116.5t-116.5 -77t-166.5 -28q-14 0 -33.5 1.5l-40.5 3l-42.5 3t-40.5 1.5h-96v29q35 16 82 24v279h-89
v52zM289 656q-26 0 -50 -0.5t-38 -3.5v-268h167v-52h-167v-286q5 -1 18.5 -1.5t28.5 -1t28.5 -0.5h19.5q69 0 117 26t78 69.5t44 100.5t14 120q0 49 -13.5 101.5t-44 96t-80 71.5t-122.5 28z" />
    <glyph glyph-name="dcroat" unicode="&#x111;" horiz-adv-x="555" 
d="M223 623h153v59l-76 8v26q29 12 67.5 21t73.5 15h25v-129h92v-52h-92v-514l66 -8v-21q-29 -14 -60 -24t-61 -14h-25l-9 109h-4q-5 -22 -17 -42t-29.5 -35.5t-40 -24.5t-48.5 -9q-99 0 -148 63t-49 196q0 128 62.5 195t168.5 67q37 0 58 -3.5t46 -12.5v78h-153v52zM258 50
q49 0 78 31t40 84v282q-17 10 -40 14t-59 4q-68 0 -104 -59.5t-36 -158.5q0 -41 7 -76.5t22 -62.5t37.5 -42.5t54.5 -15.5z" />
    <glyph glyph-name="Emacron" unicode="&#x112;" horiz-adv-x="582" 
d="M503 700q-1 -40 -3.5 -80.5t-7.5 -81.5h-26l-41 110h-218v-265h163l39 74h25q6 -99 0 -202h-25l-39 76h-163v-279h230l49 120h25q7 -42 10 -85t1 -87h-493v29q35 16 82 24v593q-20 4 -41 10.5t-41 14.5v29h474zM151 788v52h301v-52h-301z" />
    <glyph glyph-name="emacron" unicode="&#x113;" horiz-adv-x="503" 
d="M446 70q-8 -17 -25 -32t-39 -26t-48 -17.5t-53 -6.5q-59 0 -104 18.5t-75 53t-45.5 82.5t-15.5 108q0 128 59 195t167 67q35 0 69 -9.5t60.5 -31.5t43 -58.5t16.5 -90.5q0 -17 -1.5 -34.5t-5.5 -37.5h-312q0 -42 10.5 -78.5t31.5 -63.5t53 -42.5t75 -15.5q35 0 71 10
t54 26zM263 468q-57 0 -87 -38.5t-36 -135.5h220q1 9 1.5 17.5t0.5 16.5q0 64 -24 102t-75 38zM134 637v52h253v-52h-253z" />
    <glyph glyph-name="Edotaccent" unicode="&#x116;" horiz-adv-x="582" 
d="M503 700q-1 -40 -3.5 -80.5t-7.5 -81.5h-26l-41 110h-218v-265h163l39 74h25q6 -99 0 -202h-25l-39 76h-163v-279h230l49 120h25q7 -42 10 -85t1 -87h-493v29q35 16 82 24v593q-20 4 -41 10.5t-41 14.5v29h474zM226 817q0 26 19 40t46 14t45 -14t18 -40t-18 -40t-45 -14
t-46 14t-19 40z" />
    <glyph glyph-name="edotaccent" unicode="&#x117;" horiz-adv-x="503" 
d="M446 70q-8 -17 -25 -32t-39 -26t-48 -17.5t-53 -6.5q-59 0 -104 18.5t-75 53t-45.5 82.5t-15.5 108q0 128 59 195t167 67q35 0 69 -9.5t60.5 -31.5t43 -58.5t16.5 -90.5q0 -17 -1.5 -34.5t-5.5 -37.5h-312q0 -42 10.5 -78.5t31.5 -63.5t53 -42.5t75 -15.5q35 0 71 10
t54 26zM263 468q-57 0 -87 -38.5t-36 -135.5h220q1 9 1.5 17.5t0.5 16.5q0 64 -24 102t-75 38zM196 670q0 27 17.5 43t46.5 16t46 -16t17 -43t-17 -42.5t-46 -15.5t-46.5 15.5t-17.5 42.5z" />
    <glyph glyph-name="Eogonek" unicode="&#x118;" horiz-adv-x="582" 
d="M503 700q-1 -40 -3.5 -80.5t-7.5 -81.5h-26l-41 110h-218v-265h163l39 74h25q6 -99 0 -202h-25l-39 76h-163v-279h230l49 120h25q3 -13 5.5 -36.5t4 -49.5t1.5 -49.5v-36.5h-44q-42 -24 -71.5 -57.5t-29.5 -77.5q0 -28 18 -46t50 -18q31 0 55 6v-29q-14 -11 -36.5 -20
t-54.5 -9q-23 0 -44 7t-36.5 20t-24.5 31.5t-9 40.5q0 26 9.5 47.5t27 40t41 34t51.5 30.5h-395v29q35 16 82 24v593q-20 4 -41 10.5t-41 14.5v29h474z" />
    <glyph glyph-name="eogonek" unicode="&#x119;" horiz-adv-x="503" 
d="M446 70q-10 -20 -31 -37t-48 -28q-38 -22 -62 -52.5t-24 -70.5q0 -10 3 -20.5t10 -19.5t18 -14.5t27 -5.5q14 0 26.5 2.5t26.5 6.5v-33q-14 -8 -35.5 -14t-39.5 -6q-60 0 -90 25t-30 63q0 39 25 69t65 53q-122 0 -184 69t-62 193q0 128 59 195t167 67q40 0 78.5 -12.5
t66 -43t39 -81t-1.5 -125.5h-312q0 -42 10.5 -78.5t31.5 -63.5t53 -42.5t75 -15.5q35 0 71 10t54 26zM263 468q-57 0 -87 -38.5t-36 -135.5h220q7 78 -16.5 126t-80.5 48z" />
    <glyph glyph-name="Ecaron" unicode="&#x11a;" horiz-adv-x="582" 
d="M503 700q-1 -40 -3.5 -80.5t-7.5 -81.5h-26l-41 110h-218v-265h163l39 74h25q6 -99 0 -202h-25l-39 76h-163v-279h230l49 120h25q7 -42 10 -85t1 -87h-493v29q35 16 82 24v593q-20 4 -41 10.5t-41 14.5v29h474zM409 888q8 0 15 -5t10 -12l-127 -112q-5 -2 -12.5 -2.5
t-13.5 2.5l-125 109q4 7 9.5 13.5t15.5 6.5l117 -55z" />
    <glyph glyph-name="ecaron" unicode="&#x11b;" horiz-adv-x="503" 
d="M446 70q-8 -17 -25 -32t-39 -26t-48 -17.5t-53 -6.5q-59 0 -104 18.5t-75 53t-45.5 82.5t-15.5 108q0 128 59 195t167 67q35 0 69 -9.5t60.5 -31.5t43 -58.5t16.5 -90.5q0 -17 -1.5 -34.5t-5.5 -37.5h-312q0 -42 10.5 -78.5t31.5 -63.5t53 -42.5t75 -15.5q35 0 71 10
t54 26zM263 468q-57 0 -87 -38.5t-36 -135.5h220q1 9 1.5 17.5t0.5 16.5q0 64 -24 102t-75 38zM358 796q9 1 17.5 -4t11.5 -12l-124 -185q-5 -2 -12 -2.5t-13 2.5l-121 184q4 8 14 13t20 4l107 -106z" />
    <glyph glyph-name="Gcircumflex" unicode="&#x11c;" horiz-adv-x="688" 
d="M609 48q-19 -11 -44.5 -21.5t-54 -19t-57 -14t-53.5 -5.5q-80 0 -144 21.5t-109 66t-69.5 112.5t-24.5 162q0 98 28.5 167t76 112.5t108 63t123.5 19.5q66 0 111.5 -8.5t79.5 -25.5q0 -15 -1 -37t-3 -46t-5 -47.5t-6 -41.5h-26l-52 144q-11 6 -37 8t-51 2
q-50 0 -95 -18.5t-78.5 -57t-53.5 -97t-20 -137.5q0 -71 19.5 -128t54 -97.5t81 -62.5t100.5 -22q20 0 39 4t35 9.5t26.5 11.5t14.5 10v202q-26 2 -49.5 9t-46.5 15v29h245v-29q-10 -7 -24 -13t-38 -11v-229zM248 752l-14 19l127 112q5 3 12.5 3.5t13.5 -3.5l125 -109
l-15 -21l-127 56z" />
    <glyph glyph-name="gcircumflex" unicode="&#x11d;" horiz-adv-x="526" 
d="M247 512q54 0 91 -10.5t62 -32.5q59 40 123 58q8 -11 11.5 -27t3.5 -30l-13 -24h-105q25 -36 25 -95q0 -72 -50.5 -117t-147.5 -45q-19 0 -31 1t-27 3l-11.5 -20t-6.5 -23q0 -20 23 -31.5t57.5 -20.5t75 -18.5t75.5 -26t58.5 -43t24.5 -68.5q1 -36 -16.5 -65t-48.5 -48.5
t-74.5 -30t-95.5 -10.5q-109 0 -164.5 37t-55.5 93q0 27 8.5 47t24.5 35t40 26.5t55 21.5q-22 10 -36.5 27.5t-14.5 42.5q0 23 19.5 45.5t39.5 35.5q-57 15 -87.5 57t-30.5 95q0 34 13 63.5t38 51.5t62 34t86 12zM395 -81q0 32 -21.5 51t-53.5 31t-69 20t-69 18
q-38 -23 -50 -48.5t-12 -52.5q0 -53 38 -79.5t110 -26.5q37 0 61.5 7t39 18.5t20.5 27.5t6 34zM138 351q0 -24 5.5 -45.5t18 -37.5t33.5 -25.5t52 -9.5q58 0 83 34t25 84q0 54 -24.5 85.5t-83.5 31.5q-61 0 -85 -30.5t-24 -86.5zM149 590l-29 16l110 186q5 3 12.5 3.5
t12.5 -3.5l114 -185l-27 -17l-103 107z" />
    <glyph glyph-name="Gbreve" unicode="&#x11e;" horiz-adv-x="688" 
d="M609 48q-19 -11 -44.5 -21.5t-54 -19t-57 -14t-53.5 -5.5q-80 0 -144 21.5t-109 66t-69.5 112.5t-24.5 162q0 98 28.5 167t76 112.5t108 63t123.5 19.5q66 0 111.5 -8.5t79.5 -25.5q0 -15 -1 -37t-3 -46t-5 -47.5t-6 -41.5h-26l-52 144q-11 6 -37 8t-51 2
q-50 0 -95 -18.5t-78.5 -57t-53.5 -97t-20 -137.5q0 -71 19.5 -128t54 -97.5t81 -62.5t100.5 -22q20 0 39 4t35 9.5t26.5 11.5t14.5 10v202q-26 2 -49.5 9t-46.5 15v29h245v-29q-10 -7 -24 -13t-38 -11v-229zM515 883q16 2 32 -14q-9 -22 -23.5 -42t-34 -35t-42.5 -24
t-48 -9q-54 0 -94.5 29t-59.5 83q12 19 42 15q7 -12 19.5 -22.5t28.5 -18t33 -12t32 -4.5q32 -1 63.5 11t51.5 43z" />
    <glyph glyph-name="gbreve" unicode="&#x11f;" horiz-adv-x="526" 
d="M247 512q54 0 91 -10.5t62 -32.5q59 40 123 58q8 -11 11.5 -27t3.5 -30l-13 -24h-105q25 -36 25 -95q0 -72 -50.5 -117t-147.5 -45q-19 0 -31 1t-27 3l-11.5 -20t-6.5 -23q0 -20 23 -31.5t57.5 -20.5t75 -18.5t75.5 -26t58.5 -43t24.5 -68.5q1 -36 -16.5 -65t-48.5 -48.5
t-74.5 -30t-95.5 -10.5q-109 0 -164.5 37t-55.5 93q0 27 8.5 47t24.5 35t40 26.5t55 21.5q-22 10 -36.5 27.5t-14.5 42.5q0 23 19.5 45.5t39.5 35.5q-57 15 -87.5 57t-30.5 95q0 34 13 63.5t38 51.5t62 34t86 12zM395 -81q0 32 -21.5 51t-53.5 31t-69 20t-69 18
q-38 -23 -50 -48.5t-12 -52.5q0 -53 38 -79.5t110 -26.5q37 0 61.5 7t39 18.5t20.5 27.5t6 34zM138 351q0 -24 5.5 -45.5t18 -37.5t33.5 -25.5t52 -9.5q58 0 83 34t25 84q0 54 -24.5 85.5t-83.5 31.5q-61 0 -85 -30.5t-24 -86.5zM379 719q-9 -22 -21.5 -44t-29.5 -39
t-37.5 -28t-45.5 -11q-27 0 -48 9.5t-38 26t-30 39t-22 49.5l28 13q7 -13 19.5 -24.5t27.5 -20.5t32 -14.5t32 -5.5q68 -2 109 61z" />
    <glyph glyph-name="Gcommaaccent" unicode="&#x122;" horiz-adv-x="688" 
d="M609 48q-19 -11 -44.5 -21.5t-54 -19t-57 -14t-53.5 -5.5q-80 0 -144 21.5t-109 66t-69.5 112.5t-24.5 162q0 98 28.5 167t76 112.5t108 63t123.5 19.5q66 0 111.5 -8.5t79.5 -25.5q0 -15 -1 -37t-3 -46t-5 -47.5t-6 -41.5h-26l-52 144q-11 6 -37 8t-51 2
q-50 0 -95 -18.5t-78.5 -57t-53.5 -97t-20 -137.5q0 -71 19.5 -128t54 -97.5t81 -62.5t100.5 -22q20 0 39 4t35 9.5t26.5 11.5t14.5 10v202q-26 2 -49.5 9t-46.5 15v29h245v-29q-10 -7 -24 -13t-38 -11v-229zM321 -238q18 8 35.5 27t14.5 48q-11 9 -31 18t-35 14
q-5 16 -0.5 31t13.5 26.5t20.5 19t22.5 7.5q34 -3 60.5 -25.5t26.5 -65.5q0 -48 -29.5 -84t-82.5 -50z" />
    <glyph glyph-name="gcommaaccent" unicode="&#x123;" horiz-adv-x="526" 
d="M247 512q54 0 91 -10.5t62 -32.5q59 40 123 58q8 -11 11.5 -27t3.5 -30l-13 -24h-105q25 -36 25 -95q0 -72 -50.5 -117t-147.5 -45q-19 0 -31 1t-27 3l-11.5 -20t-6.5 -23q0 -20 23 -31.5t57.5 -20.5t75 -18.5t75.5 -26t58.5 -43t24.5 -68.5q1 -36 -16.5 -65t-48.5 -48.5
t-74.5 -30t-95.5 -10.5q-109 0 -164.5 37t-55.5 93q0 27 8.5 47t24.5 35t40 26.5t55 21.5q-22 10 -36.5 27.5t-14.5 42.5q0 23 19.5 45.5t39.5 35.5q-57 15 -87.5 57t-30.5 95q0 34 13 63.5t38 51.5t62 34t86 12zM395 -81q0 32 -21.5 51t-53.5 31t-69 20t-69 18
q-38 -23 -50 -48.5t-12 -52.5q0 -53 38 -79.5t110 -26.5q37 0 61.5 7t39 18.5t20.5 27.5t6 34zM138 351q0 -24 5.5 -45.5t18 -37.5t33.5 -25.5t52 -9.5q58 0 83 34t25 84q0 54 -24.5 85.5t-83.5 31.5q-61 0 -85 -30.5t-24 -86.5zM317.005 777.985
q-30.998 -11.999 -42.998 -32.498q-11.999 -20.498 -11.999 -40.4971q10.999 -9 30.498 -18.499t34.498 -14.499q5 -15.999 0.5 -30.498t-12.999 -25.999q-8.5 -11.499 -19.999 -18.998q-11.499 -7.5 -22.498 -7.5q-32.998 3 -55.9971 25.499
q-22.999 22.498 -22.999 65.4951q0 47.9971 30.998 84.9951q30.999 36.998 76.9961 47.9971z" />
    <glyph glyph-name="Hcircumflex" unicode="&#x124;" horiz-adv-x="728" 
d="M282 0h-253v29q40 16 82 24v593q-47 7 -82 25v29h253v-29q-17 -9 -36 -15t-39 -10v-261h314v261q-21 5 -39.5 11t-35.5 14v29h253v-29q-18 -10 -39.5 -15.5t-42.5 -9.5v-593q23 -4 44 -10t38 -14v-29h-253v29q36 16 75 24v280h-314v-280q20 -4 39 -10t36 -14v-29z
M239 752l-14 19l127 112q5 3 12.5 3.5t13.5 -3.5l125 -109l-15 -21l-127 56z" />
    <glyph glyph-name="hcircumflex" unicode="&#x125;" horiz-adv-x="587" 
d="M570 0h-216v25q24 13 60 24v234q0 78 -22 122.5t-80 44.5q-26 0 -47 -9.5t-38 -24.5t-29 -34.5t-18 -40.5v-292q16 -4 30.5 -9t28.5 -15v-25h-215v25q31 16 66 24v633l-76 8v26q29 12 67.5 21t73.5 15h25v-353h1q21 47 60.5 80t95.5 33q40 0 71.5 -9.5t52.5 -33.5
t32 -64.5t11 -102.5v-253q17 -4 34 -9t32 -15v-25zM0 752l-14 19l127 112q5 3 12.5 3.5t13.5 -3.5l125 -109l-15 -21l-127 56z" />
    <glyph glyph-name="Hbar" unicode="&#x126;" horiz-adv-x="728" 
d="M30 558h81v88q-47 7 -82 25v29h253v-29q-17 -9 -36 -15t-39 -10v-88h314v88q-21 5 -39.5 11t-35.5 14v29h253v-29q-18 -10 -39.5 -15.5t-42.5 -9.5v-88h81v-52h-81v-453q23 -4 44 -10t38 -14v-29h-253v29q36 16 75 24v280h-314v-280q20 -4 39 -10t36 -14v-29h-253v29
q40 16 82 24v453h-81v52zM521 385v121h-314v-121h314z" />
    <glyph glyph-name="hbar" unicode="&#x127;" horiz-adv-x="587" 
d="M3 622h87v60l-76 8v26q29 12 67.5 21t73.5 15h25v-130h159v-51h-159v-172h1q21 47 60.5 80t95.5 33q40 0 71.5 -9.5t52.5 -33.5t32 -64.5t11 -102.5v-253q17 -4 34 -9t32 -15v-25h-216v25q24 13 60 24v234q0 78 -22 122.5t-80 44.5q-26 0 -47 -9.5t-38 -24.5t-29 -34.5
t-18 -40.5v-292q16 -4 30.5 -9t28.5 -15v-25h-215v25q31 16 66 24v522h-87v51z" />
    <glyph glyph-name="Imacron" unicode="&#x12a;" horiz-adv-x="352" 
d="M304 0h-256v29q39 18 80 24v593q-20 4 -40 10.5t-40 14.5v29h256v-29q-18 -8 -39 -14.5t-41 -10.5v-593q21 -4 42 -10t38 -14v-29zM27 788v52h301v-52h-301z" />
    <glyph glyph-name="imacron" unicode="&#x12b;" horiz-adv-x="301" 
d="M263 0h-222v25q15 8 31 13.5t35 10.5v393l-66 8v26q29 12 63 21t68 15h25v-463q20 -5 36 -10.5t30 -13.5v-25zM24 637v52h253v-52h-253z" />
    <glyph glyph-name="Iogonek" unicode="&#x12e;" horiz-adv-x="352" 
d="M304 0h-40q-43 -24 -72 -57.5t-29 -77.5q0 -28 18 -46t49 -18t55 6v-29q-14 -11 -36 -20t-55 -9q-23 0 -43.5 7t-36 20t-24.5 31.5t-9 40.5q0 26 9.5 47.5t26.5 40t40.5 34t51.5 30.5h-161v29q39 18 80 24v593q-20 4 -40 10.5t-40 14.5v29h256v-29q-18 -8 -39 -14.5
t-41 -10.5v-593q21 -4 42 -10t38 -14v-29z" />
    <glyph glyph-name="iogonek" unicode="&#x12f;" horiz-adv-x="304" 
d="M264 0h-39q-33 -21 -55 -50.5t-22 -67.5q0 -10 3 -20.5t10 -19.5t18 -14.5t27 -5.5q15 0 27.5 2.5t26.5 6.5v-33q-14 -8 -36 -14t-40 -6q-59 0 -89 25t-30 63q0 45 31 78t82 56h-136v25q15 8 31 13.5t35 10.5v393l-66 8v26q29 12 63 21t68 15h25v-463q20 -5 36 -10.5
t30 -13.5v-25zM94 667q0 26 16.5 41t42.5 15t42 -15t16 -41t-16 -40.5t-42 -14.5t-42.5 14.5t-16.5 40.5z" />
    <glyph glyph-name="Idotaccent" unicode="&#x130;" horiz-adv-x="352" 
d="M304 0h-256v29q39 18 80 24v593q-20 4 -40 10.5t-40 14.5v29h256v-29q-18 -8 -39 -14.5t-41 -10.5v-593q21 -4 42 -10t38 -14v-29zM112 817q0 26 19 40t46 14t45 -14t18 -40t-18 -40t-45 -14t-46 14t-19 40z" />
    <glyph glyph-name="dotlessi" unicode="&#x131;" horiz-adv-x="301" 
d="M263 0h-222v25q15 8 31 13.5t35 10.5v393l-66 8v26q29 12 63 21t68 15h25v-463q20 -5 36 -10.5t30 -13.5v-25z" />
    <glyph glyph-name="Jcircumflex" unicode="&#x134;" horiz-adv-x="341" 
d="M39 700h254v-29q-18 -8 -37 -14.5t-39 -10.5v-560q0 -70 -16 -115t-39.5 -72.5t-50 -40.5t-48.5 -18l-11 15q15 13 27.5 29.5t22 41.5t14.5 61t5 88v571q-22 5 -43 11t-39 14v29zM44 752l-14 19l127 112q5 3 12.5 3.5t13.5 -3.5l125 -109l-15 -21l-127 56z" />
    <glyph glyph-name="jcircumflex" unicode="&#x135;" horiz-adv-x="288" 
d="M106 442l-66 8v26q29 14 63.5 22.5t67.5 13.5h25v-469q0 -71 -18 -118t-42 -76t-49 -43t-40 -18l-12 19q12 6 24.5 21t23 41.5t17 64.5t6.5 90v418zM54 590l-29 16l110 186q5 3 12.5 3.5t12.5 -3.5l114 -185l-27 -17l-103 107z" />
    <glyph glyph-name="Kcommaaccent" unicode="&#x136;" horiz-adv-x="646" 
d="M382 700h221v-29q-20 -9 -39 -15t-37 -10l-201 -266l57.5 -74l68 -84.5l73 -88l73.5 -84.5l48 -24v-25h-125l-34 24q-59 69 -117.5 149l-113.5 162h-49v-282q46 -8 75 -24v-29h-253v29q40 16 82 24v593q-45 6 -82 25v29h253v-29q-16 -7 -35 -13.5t-40 -11.5v-277l60 14
l187 263q-20 5 -38 11t-34 14v29zM263 -238q18 8 35.5 27t14.5 48q-11 9 -31 18t-35 14q-5 16 -0.5 31t13.5 26.5t20.5 19t22.5 7.5q34 -3 60.5 -25.5t26.5 -65.5q0 -48 -29.5 -84t-82.5 -50z" />
    <glyph glyph-name="kcommaaccent" unicode="&#x137;" horiz-adv-x="516" 
d="M300 500h193v-26q-19 -8 -37.5 -14t-38.5 -10q-15 -20 -34.5 -43l-39.5 -46l-38.5 -43l-31.5 -33l36.5 -48.5l46.5 -60.5l51.5 -65t52.5 -62l56 -24v-25h-124l-27 24q-53 66 -88 117.5l-64 96.5l-33 10v-199q33 -6 65 -24v-25h-221v25q33 16 66 24v633l-76 8v26
q28 13 67 21l74 15h25v-478h26l35 40l38 45.5l37 46.5l33 44q-25 7 -49 24v26zM200 -236q31 12 43 32.5t12 40.5q-11 9 -30.5 18.5t-34.5 14.5q-5 16 -0.5 30.5t13 26t20 19t22.5 7.5q33 -3 56 -25.5t23 -65.5q0 -48 -31 -85t-77 -48z" />
    <glyph glyph-name="Lacute" unicode="&#x139;" horiz-adv-x="549" 
d="M29 700h274v-29q-24 -9 -48 -15.5t-48 -9.5v-594h230l59 161h26q3 -21 5.5 -48.5t4 -57t1.5 -57.5t-1 -50h-503v29q24 11 44 16t38 8v593q-23 4 -44 10.5t-38 14.5v29zM291 893q9 1 23 -1t28.5 -6.5t27 -11t18.5 -13.5v-20l-226 -91l-17 19z" />
    <glyph glyph-name="lacute" unicode="&#x13a;" horiz-adv-x="301" 
d="M263 0h-222v25q33 16 66 24v633l-76 8v26q26 12 65 21t76 15h25v-703q33 -8 66 -24v-25zM230 893q9 1 23 -1t28.5 -6.5t27 -11t18.5 -13.5v-20l-226 -91l-17 19z" />
    <glyph glyph-name="Lcommaaccent" unicode="&#x13b;" horiz-adv-x="549" 
d="M29 700h274v-29q-24 -9 -48 -15.5t-48 -9.5v-594h230l59 161h26q3 -21 5.5 -48.5t4 -57t1.5 -57.5t-1 -50h-503v29q24 11 44 16t38 8v593q-23 4 -44 10.5t-38 14.5v29zM221 -238q18 8 35.5 27t14.5 48q-11 9 -31 18t-35 14q-5 16 -0.5 31t13.5 26.5t20.5 19t22.5 7.5
q34 -3 60.5 -25.5t26.5 -65.5q0 -48 -29.5 -84t-82.5 -50z" />
    <glyph glyph-name="lcommaaccent" unicode="&#x13c;" horiz-adv-x="301" 
d="M263 0h-222v25q33 16 66 24v633l-76 8v26q26 12 65 21t76 15h25v-703q33 -8 66 -24v-25zM98 -236q31 12 43 32.5t12 40.5q-11 9 -30.5 18.5t-34.5 14.5q-5 16 -0.5 30.5t13 26t20 19t22.5 7.5q33 -3 56 -25.5t23 -65.5q0 -48 -31 -85t-77 -48z" />
    <glyph glyph-name="Lcaron" unicode="&#x13d;" horiz-adv-x="549" 
d="M29 700h274v-29q-24 -9 -48 -15.5t-48 -9.5v-594h230l59 161h26q3 -21 5.5 -48.5t4 -57t1.5 -57.5t-1 -50h-503v29q24 11 44 16t38 8v593q-23 4 -44 10.5t-38 14.5v29zM342 504q10 22 18.5 47.5t13.5 51t8 49.5t3 44l12 16q8 1 21 -1.5t26.5 -7t25.5 -11t19 -13.5
q-4 -27 -18 -55.5t-32.5 -53.5t-39 -45.5t-37.5 -31.5z" />
    <glyph glyph-name="lcaron" unicode="&#x13e;" horiz-adv-x="301" 
d="M263 0h-222v25q33 16 66 24v633l-76 8v26q26 12 65 21t76 15h25v-703q33 -8 66 -24v-25zM242 543q21 45 32 97.5t11 93.5l12 16q7 1 18.5 -0.5t23.5 -5t22.5 -8t16.5 -9.5q-5 -28 -17.5 -56.5t-29 -54.5t-35 -47.5t-34.5 -36.5z" />
    <glyph glyph-name="Lslash" unicode="&#x141;" horiz-adv-x="549" 
d="M29 700h274v-29q-24 -9 -48 -15.5t-48 -9.5v-254l135 84v-66l-135 -84v-274h230l59 161h26q3 -21 5.5 -48.5t4 -57t1.5 -57.5t-1 -50h-503v29q24 11 44 16t38 8v214l-94 -57v65l94 57v314q-23 4 -44 10.5t-38 14.5v29z" />
    <glyph glyph-name="lslash" unicode="&#x142;" horiz-adv-x="325" 
d="M24 295l95 58v329l-76 8v26q26 12 65 21t76 15h25v-343l92 57v-66l-92 -57v-294q33 -8 66 -24v-25h-222v25q33 16 66 24v239l-95 -59v66z" />
    <glyph glyph-name="Nacute" unicode="&#x143;" horiz-adv-x="732" 
d="M487 700h216v-29q-42 -28 -82 -40v-643h-57l-363 551l-39 78h-3l9 -78v-475q41 -11 77 -35v-29h-216v29q18 11 38.5 19.5t43.5 15.5v573q-20 8 -39.5 17t-36.5 18v28h169l315 -475l46 -86h4l-5 86v406q-21 9 -40.5 19t-36.5 21v29zM470 893q9 1 23 -1t28.5 -6.5t27 -11
t18.5 -13.5v-20l-226 -91l-17 19z" />
    <glyph glyph-name="nacute" unicode="&#x144;" horiz-adv-x="594" 
d="M577 0h-215v25q27 14 59 24v237q0 76 -22 120t-80 44q-25 0 -46.5 -9t-38 -24.5t-28.5 -35t-19 -40.5v-292q31 -6 60 -24v-25h-216v25q25 13 66 24v393l-66 8v26q26 11 60 20t71 16h25v-112h1q21 46 60.5 79t95.5 33q40 0 71.5 -9.5t52.5 -33.5t32 -64.5t11 -102.5v-253
q40 -7 66 -24v-25zM378 767q8 1 21 -0.5t27 -4.5t26 -7.5t18 -9.5v-19l-187 -151l-22 18z" />
    <glyph glyph-name="Ncommaaccent" unicode="&#x145;" horiz-adv-x="732" 
d="M487 700h216v-29q-42 -28 -82 -40v-643h-57l-363 551l-39 78h-3l9 -78v-475q41 -11 77 -35v-29h-216v29q18 11 38.5 19.5t43.5 15.5v573q-20 8 -39.5 17t-36.5 18v28h169l315 -475l46 -86h4l-5 86v406q-21 9 -40.5 19t-36.5 21v29zM310 -238q18 8 35.5 27t14.5 48
q-11 9 -31 18t-35 14q-5 16 -0.5 31t13.5 26.5t20.5 19t22.5 7.5q34 -3 60.5 -25.5t26.5 -65.5q0 -48 -29.5 -84t-82.5 -50z" />
    <glyph glyph-name="ncommaaccent" unicode="&#x146;" horiz-adv-x="594" 
d="M577 0h-215v25q27 14 59 24v237q0 76 -22 120t-80 44q-25 0 -46.5 -9t-38 -24.5t-28.5 -35t-19 -40.5v-292q31 -6 60 -24v-25h-216v25q25 13 66 24v393l-66 8v26q26 11 60 20t71 16h25v-112h1q21 46 60.5 79t95.5 33q40 0 71.5 -9.5t52.5 -33.5t32 -64.5t11 -102.5v-253
q40 -7 66 -24v-25zM249 -236q31 12 43 32.5t12 40.5q-11 9 -30.5 18.5t-34.5 14.5q-5 16 -0.5 30.5t13 26t20 19t22.5 7.5q33 -3 56 -25.5t23 -65.5q0 -48 -31 -85t-77 -48z" />
    <glyph glyph-name="Ncaron" unicode="&#x147;" horiz-adv-x="732" 
d="M487 700h216v-29q-42 -28 -82 -40v-643h-57l-363 551l-39 78h-3l9 -78v-475q41 -11 77 -35v-29h-216v29q18 11 38.5 19.5t43.5 15.5v573q-20 8 -39.5 17t-36.5 18v28h169l315 -475l46 -86h4l-5 86v406q-21 9 -40.5 19t-36.5 21v29zM480 888q8 0 15 -5t10 -12l-127 -112
q-5 -2 -12.5 -2.5t-13.5 2.5l-125 109q4 7 9.5 13.5t15.5 6.5l117 -55z" />
    <glyph glyph-name="ncaron" unicode="&#x148;" horiz-adv-x="594" 
d="M577 0h-215v25q27 14 59 24v237q0 76 -22 120t-80 44q-25 0 -46.5 -9t-38 -24.5t-28.5 -35t-19 -40.5v-292q31 -6 60 -24v-25h-216v25q25 13 66 24v393l-66 8v26q26 11 60 20t71 16h25v-112h1q21 46 60.5 79t95.5 33q40 0 71.5 -9.5t52.5 -33.5t32 -64.5t11 -102.5v-253
q40 -7 66 -24v-25zM404 796q9 1 17.5 -4t11.5 -12l-124 -185q-5 -2 -12 -2.5t-13 2.5l-121 184q4 8 14 13t20 4l107 -106z" />
    <glyph glyph-name="Omacron" unicode="&#x14c;" horiz-adv-x="740" 
d="M53 350q0 78 21.5 144.5t62 115t99.5 75.5t134 27t134 -27t99.5 -75.5t62 -115t21.5 -144.5t-21.5 -144.5t-62 -115t-99.5 -75.5t-134 -27t-134 27t-99.5 75.5t-62 115t-21.5 144.5zM160 350q0 -64 13.5 -120.5t40.5 -98.5t68 -66.5t97 -24.5q51 0 89 24.5t62.5 66.5
t37 98.5t12.5 120.5t-13 120.5t-40 98.5t-68 66.5t-97 24.5q-55 0 -93.5 -24.5t-62.5 -66.5t-35 -98.5t-11 -120.5zM219 788v52h301v-52h-301z" />
    <glyph glyph-name="omacron" unicode="&#x14d;" horiz-adv-x="553" 
d="M41 250q0 63 16.5 111.5t47.5 82t74.5 51t96.5 17.5q62 0 107 -19t73.5 -53.5t42 -82.5t13.5 -107q0 -126 -64 -194t-172 -68q-60 0 -104 18.5t-73 53t-43.5 83t-14.5 107.5zM137 250q0 -45 8.5 -85t27 -69.5t48.5 -46.5t72 -17q54 0 88.5 53t34.5 165q0 46 -8.5 85.5
t-26.5 69t-46 46.5t-67 17q-59 0 -95 -53t-36 -165zM150 637v52h253v-52h-253z" />
    <glyph glyph-name="Ohungarumlaut" unicode="&#x150;" horiz-adv-x="740" 
d="M53 350q0 78 21.5 144.5t62 115t99.5 75.5t134 27t134 -27t99.5 -75.5t62 -115t21.5 -144.5t-21.5 -144.5t-62 -115t-99.5 -75.5t-134 -27t-134 27t-99.5 75.5t-62 115t-21.5 144.5zM160 350q0 -64 13.5 -120.5t40.5 -98.5t68 -66.5t97 -24.5q51 0 89 24.5t62.5 66.5
t37 98.5t12.5 120.5t-13 120.5t-40 98.5t-68 66.5t-97 24.5q-55 0 -93.5 -24.5t-62.5 -66.5t-35 -98.5t-11 -120.5zM325 888q6 1 18 -1t25 -5t23.5 -8t13.5 -10v-14l-131 -92l-19 18zM499 888q7 1 19 -1t25 -6t24 -9t16 -11l-1 -10l-177 -95l-21 18z" />
    <glyph glyph-name="ohungarumlaut" unicode="&#x151;" horiz-adv-x="553" 
d="M41 250q0 63 16.5 111.5t47.5 82t74.5 51t96.5 17.5q62 0 107 -19t73.5 -53.5t42 -82.5t13.5 -107q0 -126 -64 -194t-172 -68q-60 0 -104 18.5t-73 53t-43.5 83t-14.5 107.5zM137 250q0 -45 8.5 -85t27 -69.5t48.5 -46.5t72 -17q54 0 88.5 53t34.5 165q0 46 -8.5 85.5
t-26.5 69t-46 46.5t-67 17q-59 0 -95 -53t-36 -165zM246 768q6 1 19 -0.5t26.5 -4.5t24.5 -7.5t14 -8.5v-15l-138 -134l-23 16zM419 768q7 1 19.5 -0.5t25 -5.5t24 -9.5t16.5 -12.5v-13l-199 -129l-19 18z" />
    <glyph glyph-name="OE" unicode="&#x152;" horiz-adv-x="954" 
d="M486 0q-26 -5 -57.5 -8.5t-58.5 -3.5q-75 0 -134 27t-99.5 75.5t-62 115t-21.5 144.5t21.5 144.5t62 115t99.5 75.5t134 27q23 0 54 -3t60 -9h392l-4 -80.5t-7 -81.5h-26l-42 110h-217v-265h162l40 74h24q8 -99 0 -202h-24l-40 76h-162v-279h230l48 120h26q6 -42 9.5 -85
t1.5 -87h-409zM379 40q26 0 52.5 4t52.5 15v577q-26 11 -57.5 17.5t-64.5 6.5q-55 0 -93.5 -24.5t-62.5 -66.5t-35 -98.5t-11 -120.5t13.5 -120.5t40.5 -98.5t68 -66.5t97 -24.5z" />
    <glyph glyph-name="oe" unicode="&#x153;" horiz-adv-x="876" 
d="M137 250q0 -45 8.5 -85t27 -70t48.5 -47t72 -17q54 0 88 53.5t34 165.5q0 46 -8 85.5t-26 69t-46 46.5t-67 17q-60 0 -95.5 -53t-35.5 -165zM463 75q-17 -24 -39 -40.5t-46.5 -27t-50.5 -15t-51 -4.5q-60 0 -104 18.5t-73 53t-43.5 83t-14.5 107.5q0 63 16.5 111.5
t47.5 82t74.5 51t96.5 17.5q54 0 105 -20t80 -66q13 21 33 37.5t44 27t50.5 16t51.5 5.5q40 0 79 -12.5t66 -43t38.5 -81t-1.5 -125.5h-311q0 -42 10.5 -78.5t31.5 -63.5t52.5 -42.5t74.5 -15.5q17 0 35.5 2.5t35.5 7.5t31 11.5t23 14.5l15 -16q-8 -17 -25 -32t-39.5 -26
t-48.5 -17.5t-53 -6.5t-56 6.5t-55.5 18t-47.5 27.5t-32 35zM636 468q-56 0 -86 -38.5t-36 -135.5h219q7 78 -16.5 126t-80.5 48z" />
    <glyph glyph-name="Racute" unicode="&#x154;" horiz-adv-x="637" 
d="M207 53q23 -5 44 -10.5t41 -13.5v-29h-263v29q22 10 42 15t40 9v593q-26 5 -46 11.5t-36 13.5v29h88q40 0 87.5 4t92.5 4q49 0 91.5 -11t73.5 -35t48.5 -61t17.5 -89q0 -73 -38.5 -121t-104.5 -69q43 -68 90 -135t98 -133l54 -29v-25h-121l-38 28q-28 35 -51 68.5t-43 68
t-37.5 70l-35.5 75.5h-94v-257zM275 656q-24 0 -39.5 -1t-28.5 -4v-299h72q69 0 109.5 44t40.5 116q0 74 -43 109t-111 35zM381 893q9 1 23 -1t28.5 -6.5t27 -11t18.5 -13.5v-20l-226 -91l-17 19z" />
    <glyph glyph-name="racute" unicode="&#x155;" horiz-adv-x="384" 
d="M244 425q-11 -6 -27.5 -24.5t-29.5 -54.5v-297q20 -2 40 -7.5t40 -16.5v-25h-236v25q18 10 34 15t32 9v393l-66 8v26q32 14 66 22.5t65 13.5h25v-106h4q9 20 25.5 40t38 36t47 24.5t52.5 5.5q7 -13 12.5 -28.5t10.5 -32.5v-26h-133zM274 767q8 1 21 -0.5t27 -4.5t26 -7.5
t18 -9.5v-19l-187 -151l-22 18z" />
    <glyph glyph-name="Rcommaaccent" unicode="&#x156;" horiz-adv-x="637" 
d="M207 53q23 -5 44 -10.5t41 -13.5v-29h-263v29q22 10 42 15t40 9v593q-26 5 -46 11.5t-36 13.5v29h88q40 0 87.5 4t92.5 4q49 0 91.5 -11t73.5 -35t48.5 -61t17.5 -89q0 -73 -38.5 -121t-104.5 -69q43 -68 90 -135t98 -133l54 -29v-25h-121l-38 28q-28 35 -51 68.5t-43 68
t-37.5 70l-35.5 75.5h-94v-257zM275 656q-24 0 -39.5 -1t-28.5 -4v-299h72q69 0 109.5 44t40.5 116q0 74 -43 109t-111 35zM261 -238q18 8 35.5 27t14.5 48q-11 9 -31 18t-35 14q-5 16 -0.5 31t13.5 26.5t20.5 19t22.5 7.5q34 -3 60.5 -25.5t26.5 -65.5q0 -48 -29.5 -84
t-82.5 -50z" />
    <glyph glyph-name="rcommaaccent" unicode="&#x157;" horiz-adv-x="384" 
d="M244 425q-11 -6 -27.5 -24.5t-29.5 -54.5v-297q20 -2 40 -7.5t40 -16.5v-25h-236v25q18 10 34 15t32 9v393l-66 8v26q32 14 66 22.5t65 13.5h25v-106h4q9 20 25.5 40t38 36t47 24.5t52.5 5.5q7 -13 12.5 -28.5t10.5 -32.5v-26h-133zM109 -236q31 12 43 32.5t12 40.5
q-11 9 -30.5 18.5t-34.5 14.5q-5 16 -0.5 30.5t13 26t20 19t22.5 7.5q33 -3 56 -25.5t23 -65.5q0 -48 -31 -85t-77 -48z" />
    <glyph glyph-name="Rcaron" unicode="&#x158;" horiz-adv-x="637" 
d="M207 53q23 -5 44 -10.5t41 -13.5v-29h-263v29q22 10 42 15t40 9v593q-26 5 -46 11.5t-36 13.5v29h88q40 0 87.5 4t92.5 4q49 0 91.5 -11t73.5 -35t48.5 -61t17.5 -89q0 -73 -38.5 -121t-104.5 -69q43 -68 90 -135t98 -133l54 -29v-25h-121l-38 28q-28 35 -51 68.5t-43 68
t-37.5 70l-35.5 75.5h-94v-257zM275 656q-24 0 -39.5 -1t-28.5 -4v-299h72q69 0 109.5 44t40.5 116q0 74 -43 109t-111 35zM400 888q8 0 15 -5t10 -12l-127 -112q-5 -2 -12.5 -2.5t-13.5 2.5l-125 109q4 7 9.5 13.5t15.5 6.5l117 -55z" />
    <glyph glyph-name="rcaron" unicode="&#x159;" horiz-adv-x="384" 
d="M244 425q-11 -6 -27.5 -24.5t-29.5 -54.5v-297q20 -2 40 -7.5t40 -16.5v-25h-236v25q18 10 34 15t32 9v393l-66 8v26q32 14 66 22.5t65 13.5h25v-106h4q9 20 25.5 40t38 36t47 24.5t52.5 5.5q7 -13 12.5 -28.5t10.5 -32.5v-26h-133zM325 796q9 1 17.5 -4t11.5 -12
l-124 -185q-5 -2 -12 -2.5t-13 2.5l-121 184q4 8 14 13t20 4l107 -106z" />
    <glyph glyph-name="Sacute" unicode="&#x15a;" horiz-adv-x="536" 
d="M150 69q12 -12 31 -20.5t57 -8.5q32 0 60 8.5t48.5 25t32.5 40t12 53.5q0 40 -24.5 67t-61 48t-79.5 41t-79.5 47.5t-61 66t-24.5 96.5q0 42 15 75t42.5 56t65.5 35.5t85 12.5q61 0 111.5 -9.5t79.5 -23.5q0 -17 -2.5 -39.5t-6 -46.5t-7.5 -46.5t-8 -39.5h-26l-40 137
q-18 8 -45.5 12t-58.5 4q-51 0 -82 -28.5t-31 -79.5q0 -41 24.5 -69t61.5 -50t79.5 -42.5t79.5 -47.5t61.5 -64t24.5 -92q0 -45 -16.5 -82t-47.5 -63t-76 -40t-102 -14q-63 0 -113 15t-71 32q1 17 3.5 41t6 49.5t7.5 49.5t8 41h26zM365 893q9 1 23 -1t28.5 -6.5t27 -11
t18.5 -13.5v-20l-226 -91l-17 19z" />
    <glyph glyph-name="sacute" unicode="&#x15b;" horiz-adv-x="433" 
d="M295 114q0 28 -17.5 47.5t-44.5 36.5t-57.5 33t-57.5 37.5t-44.5 49.5t-17.5 69q0 27 12.5 50t33.5 39.5t49 26t60 9.5q54 0 88.5 -6t66.5 -17q-4 -32 -9.5 -64.5t-15.5 -66.5h-25l-38 102q-12 5 -27 6.5t-31 1.5q-18 0 -31.5 -6.5t-23 -16.5t-14.5 -23t-5 -26
q0 -27 17.5 -46.5t44.5 -36t57.5 -32.5t57.5 -36t44.5 -46.5t17.5 -63.5q0 -34 -14.5 -61t-40 -46t-59 -29.5t-71.5 -10.5q-43 0 -79 7.5t-75 21.5q2 36 9 69.5t18 64.5h25l44 -109q11 -8 26.5 -9t28.5 -1q44 0 71 24t27 58zM279 767q8 1 21 -0.5t27 -4.5t26 -7.5t18 -9.5
v-19l-187 -151l-22 18z" />
    <glyph glyph-name="Scircumflex" unicode="&#x15c;" horiz-adv-x="536" 
d="M150 69q12 -12 31 -20.5t57 -8.5q32 0 60 8.5t48.5 25t32.5 40t12 53.5q0 40 -24.5 67t-61 48t-79.5 41t-79.5 47.5t-61 66t-24.5 96.5q0 42 15 75t42.5 56t65.5 35.5t85 12.5q61 0 111.5 -9.5t79.5 -23.5q0 -17 -2.5 -39.5t-6 -46.5t-7.5 -46.5t-8 -39.5h-26l-40 137
q-18 8 -45.5 12t-58.5 4q-51 0 -82 -28.5t-31 -79.5q0 -41 24.5 -69t61.5 -50t79.5 -42.5t79.5 -47.5t61.5 -64t24.5 -92q0 -45 -16.5 -82t-47.5 -63t-76 -40t-102 -14q-63 0 -113 15t-71 32q1 17 3.5 41t6 49.5t7.5 49.5t8 41h26zM160 752l-14 19l127 112q5 3 12.5 3.5
t13.5 -3.5l125 -109l-15 -21l-127 56z" />
    <glyph glyph-name="scircumflex" unicode="&#x15d;" horiz-adv-x="433" 
d="M295 114q0 28 -17.5 47.5t-44.5 36.5t-57.5 33t-57.5 37.5t-44.5 49.5t-17.5 69q0 27 12.5 50t33.5 39.5t49 26t60 9.5q54 0 88.5 -6t66.5 -17q-4 -32 -9.5 -64.5t-15.5 -66.5h-25l-38 102q-12 5 -27 6.5t-31 1.5q-18 0 -31.5 -6.5t-23 -16.5t-14.5 -23t-5 -26
q0 -27 17.5 -46.5t44.5 -36t57.5 -32.5t57.5 -36t44.5 -46.5t17.5 -63.5q0 -34 -14.5 -61t-40 -46t-59 -29.5t-71.5 -10.5q-43 0 -79 7.5t-75 21.5q2 36 9 69.5t18 64.5h25l44 -109q11 -8 26.5 -9t28.5 -1q44 0 71 24t27 58zM122 590l-29 16l110 186q5 3 12.5 3.5t12.5 -3.5
l114 -185l-27 -17l-103 107z" />
    <glyph glyph-name="Scedilla" unicode="&#x15e;" horiz-adv-x="536" 
d="M150 69q12 -12 31 -21t57 -9q32 0 60 8.5t48.5 25t32.5 40.5t12 54q0 40 -24.5 67t-61 48t-79.5 41t-79.5 47.5t-61 66t-24.5 96.5q0 42 15 75t42.5 56t65.5 35.5t85 12.5q61 0 111.5 -9.5t79.5 -23.5q0 -17 -2.5 -39.5t-6 -46.5t-7.5 -46.5t-8 -39.5h-26l-40 137
q-18 8 -45.5 12t-58.5 4q-51 0 -82 -28.5t-31 -79.5q0 -41 24.5 -69t61.5 -50t79.5 -42.5t79.5 -47.5t61.5 -64t24.5 -92q0 -85 -55 -137t-155 -60l-25 -65q60 -1 88.5 -22.5t28.5 -56.5q0 -30 -17.5 -52t-44 -37t-58.5 -22t-61 -7v33q40 6 67 22t26 45q-1 28 -23 40.5
t-67 15.5l35 104q-57 2 -101 16.5t-64 30.5q1 17 3.5 41t6 49.5t7.5 49.5t8 41h26z" />
    <glyph glyph-name="scedilla" unicode="&#x15f;" horiz-adv-x="452" 
d="M314 114q0 33 -19 53t-48 35t-62 28.5t-62 33t-48 48.5t-19 75q0 27 12 50t33.5 39.5t52 26t67.5 9.5q54 0 93 -6t71 -17q-4 -32 -9.5 -64.5t-15.5 -66.5h-25l-38 102q-12 5 -32 6.5t-36 1.5q-43 0 -63 -23t-20 -49q0 -30 19 -49t48 -34t62 -28.5t62 -32.5t48 -46t19 -68
q0 -67 -49 -106.5t-132 -42.5l-21 -57q55 -2 79.5 -20.5t26.5 -50.5q1 -29 -14.5 -50.5t-39.5 -35.5t-53 -20.5t-56 -5.5v30q38 5 61 20t22 46q-1 25 -21 36t-61 14l33 94q-70 5 -133 28q2 36 9 69.5t18 64.5h25l44 -109q11 -8 31 -9.5t34 -1.5q49 0 78 24.5t29 58.5z" />
    <glyph glyph-name="Scaron" unicode="&#x160;" horiz-adv-x="536" 
d="M150 69q12 -12 31 -20.5t57 -8.5q32 0 60 8.5t48.5 25t32.5 40t12 53.5q0 40 -24.5 67t-61 48t-79.5 41t-79.5 47.5t-61 66t-24.5 96.5q0 42 15 75t42.5 56t65.5 35.5t85 12.5q61 0 111.5 -9.5t79.5 -23.5q0 -17 -2.5 -39.5t-6 -46.5t-7.5 -46.5t-8 -39.5h-26l-40 137
q-18 8 -45.5 12t-58.5 4q-51 0 -82 -28.5t-31 -79.5q0 -41 24.5 -69t61.5 -50t79.5 -42.5t79.5 -47.5t61.5 -64t24.5 -92q0 -45 -16.5 -82t-47.5 -63t-76 -40t-102 -14q-63 0 -113 15t-71 32q1 17 3.5 41t6 49.5t7.5 49.5t8 41h26zM391 888q8 0 15 -5t10 -12l-127 -112
q-5 -2 -12.5 -2.5t-13.5 2.5l-125 109q4 7 9.5 13.5t15.5 6.5l117 -55z" />
    <glyph glyph-name="scaron" unicode="&#x161;" horiz-adv-x="433" 
d="M295 114q0 28 -17.5 47.5t-44.5 36.5t-57.5 33t-57.5 37.5t-44.5 49.5t-17.5 69q0 27 12.5 50t33.5 39.5t49 26t60 9.5q54 0 88.5 -6t66.5 -17q-4 -32 -9.5 -64.5t-15.5 -66.5h-25l-38 102q-12 5 -27 6.5t-31 1.5q-18 0 -31.5 -6.5t-23 -16.5t-14.5 -23t-5 -26
q0 -27 17.5 -46.5t44.5 -36t57.5 -32.5t57.5 -36t44.5 -46.5t17.5 -63.5q0 -34 -14.5 -61t-40 -46t-59 -29.5t-71.5 -10.5q-43 0 -79 7.5t-75 21.5q2 36 9 69.5t18 64.5h25l44 -109q11 -8 26.5 -9t28.5 -1q44 0 71 24t27 58zM323 796q9 1 17.5 -4t11.5 -12l-124 -185
q-5 -2 -12 -2.5t-13 2.5l-121 184q4 8 14 13t20 4l107 -106z" />
    <glyph glyph-name="Tcedilla" unicode="&#x162;" horiz-adv-x="619" 
d="M450 0h-120l-29 -75q60 -1 88.5 -22.5t28.5 -56.5q0 -30 -17.5 -52t-44 -37t-58.5 -22t-61 -7v33q40 6 67 22t26 45q-1 28 -23 40.5t-67 15.5l39 116h-110v29q22 8 44.5 14t48.5 10v595h-153l-53 -143h-25q-3 20 -5 45.5t-3.5 52t-2.5 52t-1 45.5h581q0 -20 -1 -45
t-2.5 -51.5l-3 -52t-4.5 -46.5h-26l-52 143h-153v-595q26 -5 48.5 -10t43.5 -14v-29z" />
    <glyph glyph-name="tcedilla" unicode="&#x163;" horiz-adv-x="361" 
d="M15 476q38 24 80 34v76q13 11 35 23.5t42 12.5h13v-122h140v-50h-140v-290q0 -60 14 -85t52 -25q20 0 46 2.5t45 9.5l7 -15q-8 -9 -22.5 -19t-33.5 -19t-41 -15t-45 -6l-21 -56q55 -2 79.5 -20.5t26.5 -50.5q1 -29 -14.5 -50.5t-39.5 -35.5t-53 -20.5t-56 -5.5v30
q38 5 61 20t22 46q-1 25 -21 36t-61 14l34 99q-37 11 -53 44.5t-16 93.5v318h-80v26z" />
    <glyph glyph-name="Tcaron" unicode="&#x164;" horiz-adv-x="619" 
d="M450 0h-281v29q22 8 44.5 14t48.5 10v595h-153l-53 -143h-25q-3 20 -5 45.5t-3.5 52t-2.5 52t-1 45.5h581q0 -20 -1 -45t-2.5 -51.5l-3 -52t-4.5 -46.5h-26l-52 143h-153v-595q26 -5 48.5 -10t43.5 -14v-29zM424 888q8 0 15 -5t10 -12l-127 -112q-5 -2 -12.5 -2.5
t-13.5 2.5l-125 109q4 7 9.5 13.5t15.5 6.5l117 -55z" />
    <glyph glyph-name="tcaron" unicode="&#x165;" horiz-adv-x="371" 
d="M15 476q38 24 80 34v85q13 11 30.5 19.5l34.5 16.5h25v-131h150v-50h-150v-290q0 -60 19 -85t57 -25q18 0 45 2.5t46 9.5l7 -15q-8 -9 -22.5 -19t-33 -19t-40.5 -15t-45 -6q-60 0 -91.5 34t-31.5 110v318h-80v26zM233 543q21 45 32 97.5t11 93.5l12 16q7 1 18.5 -0.5
t23.5 -5t22.5 -8t16.5 -9.5q-5 -28 -17.5 -56.5t-29 -54.5t-35 -47.5t-34.5 -36.5z" />
    <glyph glyph-name="Umacron" unicode="&#x16a;" horiz-adv-x="672" 
d="M10 700h254v-29q-19 -8 -38 -14t-38 -11v-409q0 -53 11.5 -88.5t33.5 -57t54.5 -31t73.5 -9.5q79 0 123 43.5t44 143.5v399q-23 8 -43 16.5t-36 17.5v29h213v-29q-19 -11 -38.5 -20t-39.5 -14v-401q0 -64 -17 -110t-47.5 -76t-74 -44.5t-96.5 -14.5q-125 0 -191 56.5
t-66 173.5v425q-41 6 -82 25v29zM205 788v52h301v-52h-301z" />
    <glyph glyph-name="umacron" unicode="&#x16b;" horiz-adv-x="574" 
d="M77 198q0 63 3 123.5t3 120.5l-66 8v26q32 12 65.5 21t65.5 15h25q0 -75 -3 -149t-3 -147q0 -39 4.5 -70t16 -52t31.5 -32.5t51 -11.5q45 0 75.5 32.5t47.5 84.5v275l-65 8v26q31 12 64.5 21t65.5 15h25v-455l66 -8v-21q-29 -13 -58.5 -23t-61.5 -15h-25l-7 119h-4
q-5 -21 -17.5 -42.5t-32.5 -39t-45.5 -28.5t-55.5 -11q-40 0 -70.5 9.5t-51.5 33.5t-32 64.5t-11 102.5zM160 637v52h253v-52h-253z" />
    <glyph glyph-name="Ubreve" unicode="&#x16c;" horiz-adv-x="672" 
d="M10 700h254v-29q-19 -8 -38 -14t-38 -11v-409q0 -53 11.5 -88.5t33.5 -57t54.5 -31t73.5 -9.5q79 0 123 43.5t44 143.5v399q-23 8 -43 16.5t-36 17.5v29h213v-29q-19 -11 -38.5 -20t-39.5 -14v-401q0 -64 -17 -110t-47.5 -76t-74 -44.5t-96.5 -14.5q-125 0 -191 56.5
t-66 173.5v425q-41 6 -82 25v29zM466 883q16 2 32 -14q-9 -22 -23.5 -42t-34 -35t-42.5 -24t-48 -9q-54 0 -94.5 29t-59.5 83q12 19 42 15q7 -12 19.5 -22.5t28.5 -18t33 -12t32 -4.5q32 -1 63.5 11t51.5 43z" />
    <glyph glyph-name="ubreve" unicode="&#x16d;" horiz-adv-x="574" 
d="M77 198q0 63 3 123.5t3 120.5l-66 8v26q32 12 65.5 21t65.5 15h25q0 -75 -3 -149t-3 -147q0 -39 4.5 -70t16 -52t31.5 -32.5t51 -11.5q45 0 75.5 32.5t47.5 84.5v275l-65 8v26q31 12 64.5 21t65.5 15h25v-455l66 -8v-21q-29 -13 -58.5 -23t-61.5 -15h-25l-7 119h-4
q-5 -21 -17.5 -42.5t-32.5 -39t-45.5 -28.5t-55.5 -11q-40 0 -70.5 9.5t-51.5 33.5t-32 64.5t-11 102.5zM421 719q-9 -22 -21.5 -44t-29.5 -39t-37.5 -28t-45.5 -11q-27 0 -48 9.5t-38 26t-30 39t-22 49.5l28 13q7 -13 19.5 -24.5t27.5 -20.5t32 -14.5t32 -5.5q68 -2 109 61
z" />
    <glyph glyph-name="Uring" unicode="&#x16e;" horiz-adv-x="672" 
d="M10 700h254v-29q-19 -8 -38 -14t-38 -11v-409q0 -53 11.5 -88.5t33.5 -57t54.5 -31t73.5 -9.5q79 0 123 43.5t44 143.5v399q-23 8 -43 16.5t-36 17.5v29h213v-29q-19 -11 -38.5 -20t-39.5 -14v-401q0 -64 -17 -110t-47.5 -76t-74 -44.5t-96.5 -14.5q-125 0 -191 56.5
t-66 173.5v425q-41 6 -82 25v29zM245 788q0 20 9 36t25 27t36.5 17t44.5 6q19 0 38.5 -5t35.5 -15t25.5 -25.5t9.5 -37.5q0 -20 -9 -35t-24 -25.5t-35 -16t-42 -5.5q-51 0 -82.5 20.5t-31.5 58.5zM301 788q0 -20 17.5 -29t36.5 -9q26 0 42 9t16 28q0 26 -18 36t-37 10
q-25 0 -41 -9.5t-16 -35.5z" />
    <glyph glyph-name="uring" unicode="&#x16f;" horiz-adv-x="574" 
d="M77 198q0 63 3 123.5t3 120.5l-66 8v26q32 12 65.5 21t65.5 15h25q0 -75 -3 -149t-3 -147q0 -39 4.5 -70t16 -52t31.5 -32.5t51 -11.5q45 0 75.5 32.5t47.5 84.5v275l-65 8v26q31 12 64.5 21t65.5 15h25v-455l66 -8v-21q-29 -13 -58.5 -23t-61.5 -15h-25l-7 119h-4
q-5 -21 -17.5 -42.5t-32.5 -39t-45.5 -28.5t-55.5 -11q-40 0 -70.5 9.5t-51.5 33.5t-32 64.5t-11 102.5zM190 683q0 41 28.5 69t71.5 28q39 0 66.5 -25t27.5 -69q0 -21 -8 -38t-21 -29t-30.5 -19t-35.5 -7q-45 0 -72 24t-27 66zM242 685q0 -26 13.5 -38.5t30.5 -12.5
q20 0 32.5 11.5t12.5 36.5q0 27 -12 42t-32 15q-24 0 -34.5 -15t-10.5 -39z" />
    <glyph glyph-name="Uhungarumlaut" unicode="&#x170;" horiz-adv-x="672" 
d="M10 700h254v-29q-19 -8 -38 -14t-38 -11v-409q0 -53 11.5 -88.5t33.5 -57t54.5 -31t73.5 -9.5q79 0 123 43.5t44 143.5v399q-23 8 -43 16.5t-36 17.5v29h213v-29q-19 -11 -38.5 -20t-39.5 -14v-401q0 -64 -17 -110t-47.5 -76t-74 -44.5t-96.5 -14.5q-125 0 -191 56.5
t-66 173.5v425q-41 6 -82 25v29zM309 888q6 1 18 -1t25 -5t23.5 -8t13.5 -10v-14l-131 -92l-19 18zM483 888q7 1 19 -1t25 -6t24 -9t16 -11l-1 -10l-177 -95l-21 18z" />
    <glyph glyph-name="uhungarumlaut" unicode="&#x171;" horiz-adv-x="574" 
d="M77 198q0 63 3 123.5t3 120.5l-66 8v26q32 12 65.5 21t65.5 15h25q0 -75 -3 -149t-3 -147q0 -39 4.5 -70t16 -52t31.5 -32.5t51 -11.5q45 0 75.5 32.5t47.5 84.5v275l-65 8v26q31 12 64.5 21t65.5 15h25v-455l66 -8v-21q-29 -13 -58.5 -23t-61.5 -15h-25l-7 119h-4
q-5 -21 -17.5 -42.5t-32.5 -39t-45.5 -28.5t-55.5 -11q-40 0 -70.5 9.5t-51.5 33.5t-32 64.5t-11 102.5zM246 768q6 1 19 -0.5t26.5 -4.5t24.5 -7.5t14 -8.5v-15l-138 -134l-23 16zM419 768q7 1 19.5 -0.5t25 -5.5t24 -9.5t16.5 -12.5v-13l-199 -129l-19 18z" />
    <glyph glyph-name="Uogonek" unicode="&#x172;" horiz-adv-x="672" 
d="M10 700h254v-29q-19 -8 -38 -14t-38 -11v-409q0 -53 11.5 -88.5t33.5 -57t54.5 -31t73.5 -9.5q79 0 123 43.5t44 143.5v399q-23 8 -43 16.5t-36 17.5v29h213v-29q-19 -11 -38.5 -20t-39.5 -14v-401q0 -93 -34 -148.5t-95 -79.5q-24 -12 -45 -27t-36.5 -33t-25 -38.5
t-9.5 -44.5q0 -28 17.5 -46t49.5 -18q31 0 55 6v-29q-14 -11 -36 -20t-55 -9q-23 0 -43.5 7t-36 20t-24.5 31.5t-9 40.5q0 48 31 81.5t82 62.5q-5 -1 -10.5 -1h-10.5q-125 0 -191 56.5t-66 173.5v425q-41 6 -82 25v29z" />
    <glyph glyph-name="uogonek" unicode="&#x173;" horiz-adv-x="574" 
d="M77 198q0 63 3 123.5t3 120.5l-66 8v26q32 12 71.5 24t71.5 12h13q0 -75 -3 -149t-3 -147q0 -39 4.5 -70t16 -52t31.5 -32.5t51 -11.5q45 0 75.5 32.5t47.5 84.5v275l-65 8v26q31 12 64.5 21t65.5 15h25v-455l66 -8v-21l-23.5 -10l-23.5 -10q-40 -22 -66 -53t-26 -73
q0 -10 3.5 -20.5t10.5 -19.5t18 -14.5t26 -5.5t27.5 2.5t26.5 6.5v-33q-14 -8 -36 -14t-40 -6q-59 0 -89 25t-30 63q0 40 25.5 70.5t67.5 53.5h-8h-8l-7 119h-4q-5 -21 -17.5 -42t-32 -38.5t-44.5 -29t-55 -11.5h-19.5t-18.5 2q-32 4 -56 16.5t-40 37t-24.5 62.5t-8.5 92z
" />
    <glyph glyph-name="Ydieresis" unicode="&#x178;" horiz-adv-x="644" 
d="M424 700h220v-29q-38 -19 -76 -25l-189 -348v-245q39 -5 76 -24v-29h-254v29q36 18 82 24v244l-202 349q-23 4 -42.5 10.5t-38.5 14.5v29h265v-29q-15 -6 -34 -12.5t-43 -12.5l164 -294l154 294q-23 5 -43.5 11.5t-38.5 13.5v29zM177 789q0 24 16 36t41 12q24 0 40 -12
t16 -36q0 -23 -16 -35t-40 -12q-25 0 -41 12t-16 35zM400 789q0 24 16 36t40 12q25 0 41 -12t16 -36q0 -23 -16 -35t-41 -12q-24 0 -40 12t-16 35z" />
    <glyph glyph-name="Zacute" unicode="&#x179;" horiz-adv-x="610" 
d="M533 192h26q3 -20 5.5 -45t4 -51t2 -51t-0.5 -45h-531v51l416 597h-308l-61 -140h-25q-3 21 -5.5 46t-4 51t-2 50.5t-0.5 44.5h511v-52l-414 -596h326zM402 893q9 1 23 -1t28.5 -6.5t27 -11t18.5 -13.5v-20l-226 -91l-17 19z" />
    <glyph glyph-name="zacute" unicode="&#x17a;" horiz-adv-x="488" 
d="M423 171q7 -42 10.5 -84.5t1.5 -86.5h-392v25l285 431h-189l-44 -118h-25q-8 43 -9.5 84.5t-1.5 77.5h376v-26l-286 -430h195l54 127h25zM296 767q8 1 21 -0.5t27 -4.5t26 -7.5t18 -9.5v-19l-187 -151l-22 18z" />
    <glyph glyph-name="Zdotaccent" unicode="&#x17b;" horiz-adv-x="610" 
d="M533 192h26q3 -20 5.5 -45t4 -51t2 -51t-0.5 -45h-531v51l416 597h-308l-61 -140h-25q-3 21 -5.5 46t-4 51t-2 50.5t-0.5 44.5h511v-52l-414 -596h326zM237 817q0 26 19 40t46 14t45 -14t18 -40t-18 -40t-45 -14t-46 14t-19 40z" />
    <glyph glyph-name="zdotaccent" unicode="&#x17c;" horiz-adv-x="488" 
d="M423 171q7 -42 10.5 -84.5t1.5 -86.5h-392v25l285 431h-189l-44 -118h-25q-8 43 -9.5 84.5t-1.5 77.5h376v-26l-286 -430h195l54 127h25zM180 670q0 27 17.5 43t46.5 16t46 -16t17 -43t-17 -42.5t-46 -15.5t-46.5 15.5t-17.5 42.5z" />
    <glyph glyph-name="Zcaron" unicode="&#x17d;" horiz-adv-x="610" 
d="M533 192h26q3 -20 5.5 -45t4 -51t2 -51t-0.5 -45h-531v51l416 597h-308l-61 -140h-25q-3 21 -5.5 46t-4 51t-2 50.5t-0.5 44.5h511v-52l-414 -596h326zM420 888q8 0 15 -5t10 -12l-127 -112q-5 -2 -12.5 -2.5t-13.5 2.5l-125 109q4 7 9.5 13.5t15.5 6.5l117 -55z" />
    <glyph glyph-name="zcaron" unicode="&#x17e;" horiz-adv-x="488" 
d="M423 171q7 -42 10.5 -84.5t1.5 -86.5h-392v25l285 431h-189l-44 -118h-25q-8 43 -9.5 84.5t-1.5 77.5h376v-26l-286 -430h195l54 127h25zM351 796q9 1 17.5 -4t11.5 -12l-124 -185q-5 -2 -12 -2.5t-13 2.5l-121 184q4 8 14 13t20 4l107 -106z" />
    <glyph glyph-name="longs" unicode="&#x17f;" horiz-adv-x="342" 
d="M306 752q9 0 21 -1t25 -2.5t25 -4t21 -5.5q-3 -33 -8.5 -61.5t-13.5 -51.5h-25l-44 86q-29 0 -49.5 -6t-34 -23t-20 -49t-6.5 -84v-501q52 -6 96 -24v-25h-252v25q31 18 66 24v401h-76v26q35 22 76 33v35q0 62 15 102.5t42 64t63.5 32.5t78.5 9z" />
    <glyph glyph-name="florin" unicode="&#x192;" 
d="M196 450h-73v26q20 11 42.5 19.5t42.5 13.5l7 35q13 62 35.5 102.5t52.5 64t66 32.5t77 9q16 0 39.5 -4t39.5 -12q-1 -22 -9.5 -45.5t-28.5 -40.5l-76 62q-18 -5 -33.5 -11t-29 -22.5t-25 -46.5t-22.5 -82l-10 -50h111q5 -25 -11 -50h-111l-63 -407q-11 -71 -37 -118
t-55 -76t-57 -43t-44 -18l-7 19q12 6 28.5 22t33 42.5t31 64.5t22.5 88z" />
    <glyph glyph-name="uni01F4" unicode="&#x1f4;" horiz-adv-x="688" 
d="M609 48q-19 -11 -44.5 -21.5t-54 -19t-57 -14t-53.5 -5.5q-80 0 -144 21.5t-109 66t-69.5 112.5t-24.5 162q0 98 28.5 167t76 112.5t108 63t123.5 19.5q66 0 111.5 -8.5t79.5 -25.5q0 -15 -1 -37t-3 -46t-5 -47.5t-6 -41.5h-26l-52 144q-11 6 -37 8t-51 2
q-50 0 -95 -18.5t-78.5 -57t-53.5 -97t-20 -137.5q0 -71 19.5 -128t54 -97.5t81 -62.5t100.5 -22q20 0 39 4t35 9.5t26.5 11.5t14.5 10v202q-26 2 -49.5 9t-46.5 15v29h245v-29q-10 -7 -24 -13t-38 -11v-229zM469 893q9 1 23 -1t28.5 -6.5t27 -11t18.5 -13.5v-20l-226 -91
l-17 19z" />
    <glyph glyph-name="uni01F5" unicode="&#x1f5;" horiz-adv-x="526" 
d="M247 512q54 0 91 -10.5t62 -32.5q59 40 123 58q8 -11 11.5 -27t3.5 -30l-13 -24h-105q25 -36 25 -95q0 -72 -50.5 -117t-147.5 -45q-19 0 -31 1t-27 3l-11.5 -20t-6.5 -23q0 -20 23 -31.5t57.5 -20.5t75 -18.5t75.5 -26t58.5 -43t24.5 -68.5q1 -36 -16.5 -65t-48.5 -48.5
t-74.5 -30t-95.5 -10.5q-109 0 -164.5 37t-55.5 93q0 27 8.5 47t24.5 35t40 26.5t55 21.5q-22 10 -36.5 27.5t-14.5 42.5q0 23 19.5 45.5t39.5 35.5q-57 15 -87.5 57t-30.5 95q0 34 13 63.5t38 51.5t62 34t86 12zM395 -81q0 32 -21.5 51t-53.5 31t-69 20t-69 18
q-38 -23 -50 -48.5t-12 -52.5q0 -53 38 -79.5t110 -26.5q37 0 61.5 7t39 18.5t20.5 27.5t6 34zM138 351q0 -24 5.5 -45.5t18 -37.5t33.5 -25.5t52 -9.5q58 0 83 34t25 84q0 54 -24.5 85.5t-83.5 31.5q-61 0 -85 -30.5t-24 -86.5zM334 767q8 1 21 -0.5t27 -4.5t26 -7.5
t18 -9.5v-19l-187 -151l-22 18z" />
    <glyph glyph-name="Scommaaccent" unicode="&#x218;" horiz-adv-x="536" 
d="M150 69q12 -12 31 -20.5t57 -8.5q32 0 60 8.5t48.5 25t32.5 40t12 53.5q0 40 -24.5 67t-61 48t-79.5 41t-79.5 47.5t-61 66t-24.5 96.5q0 42 15 75t42.5 56t65.5 35.5t85 12.5q61 0 111.5 -9.5t79.5 -23.5q0 -17 -2.5 -39.5t-6 -46.5t-7.5 -46.5t-8 -39.5h-26l-40 137
q-18 8 -45.5 12t-58.5 4q-51 0 -82 -28.5t-31 -79.5q0 -41 24.5 -69t61.5 -50t79.5 -42.5t79.5 -47.5t61.5 -64t24.5 -92q0 -45 -16.5 -82t-47.5 -63t-76 -40t-102 -14q-63 0 -113 15t-71 32q1 17 3.5 41t6 49.5t7.5 49.5t8 41h26zM211 -238q18 8 35.5 27t14.5 48
q-11 9 -31 18t-35 14q-5 16 -0.5 31t13.5 26.5t20.5 19t22.5 7.5q34 -3 60.5 -25.5t26.5 -65.5q0 -48 -29.5 -84t-82.5 -50z" />
    <glyph glyph-name="scommaaccent" unicode="&#x219;" horiz-adv-x="433" 
d="M295 114q0 28 -17.5 47.5t-44.5 36.5t-57.5 33t-57.5 37.5t-44.5 49.5t-17.5 69q0 27 12.5 50t33.5 39.5t49 26t60 9.5q54 0 88.5 -6t66.5 -17q-4 -32 -9.5 -64.5t-15.5 -66.5h-25l-38 102q-12 5 -27 6.5t-31 1.5q-18 0 -31.5 -6.5t-23 -16.5t-14.5 -23t-5 -26
q0 -27 17.5 -46.5t44.5 -36t57.5 -32.5t57.5 -36t44.5 -46.5t17.5 -63.5q0 -34 -14.5 -61t-40 -46t-59 -29.5t-71.5 -10.5q-43 0 -79 7.5t-75 21.5q2 36 9 69.5t18 64.5h25l44 -109q11 -8 26.5 -9t28.5 -1q44 0 71 24t27 58zM148 -236q31 12 43 32.5t12 40.5
q-11 9 -30.5 18.5t-34.5 14.5q-5 16 -0.5 30.5t13 26t20 19t22.5 7.5q33 -3 56 -25.5t23 -65.5q0 -48 -31 -85t-77 -48z" />
    <glyph glyph-name="Tcommaaccent" unicode="&#x21a;" horiz-adv-x="619" 
d="M450 0h-281v29q22 8 44.5 14t48.5 10v595h-153l-53 -143h-25q-3 20 -5 45.5t-3.5 52t-2.5 52t-1 45.5h581q0 -20 -1 -45t-2.5 -51.5l-3 -52t-4.5 -46.5h-26l-52 143h-153v-595q26 -5 48.5 -10t43.5 -14v-29zM260 -238q18 8 35.5 27t14.5 48q-11 9 -31 18t-35 14
q-5 16 -0.5 31t13.5 26.5t20.5 19t22.5 7.5q34 -3 60.5 -25.5t26.5 -65.5q0 -48 -29.5 -84t-82.5 -50z" />
    <glyph glyph-name="tcommaaccent" unicode="&#x21b;" horiz-adv-x="371" 
d="M15 476q38 24 80 34v85q13 11 30.5 19.5l34.5 16.5h25v-131h150v-50h-150v-290q0 -60 19 -85t57 -25q18 0 45 2.5t46 9.5l7 -15q-8 -9 -22.5 -19t-33 -19t-40.5 -15t-45 -6q-60 0 -91.5 34t-31.5 110v318h-80v26zM139 -236q31 12 43 32.5t12 40.5q-11 9 -30.5 18.5
t-34.5 14.5q-5 16 -0.5 30.5t13 26t20 19t22.5 7.5q33 -3 56 -25.5t23 -65.5q0 -48 -31 -85t-77 -48z" />
    <glyph glyph-name="uni0237" unicode="&#x237;" horiz-adv-x="288" 
d="M106 442l-66 8v26q29 14 63.5 22.5t67.5 13.5h25v-469q0 -71 -18 -118t-42 -76t-49 -43t-40 -18l-12 19q12 6 24.5 21t23 41.5t17 64.5t6.5 90v418z" />
    <glyph glyph-name="afii57929" unicode="&#x2bc;" horiz-adv-x="282" 
d="M60 474q39 12 64.5 41t20.5 67q-11 9 -31 18t-35 15q-5 16 -0.5 31t13.5 26.5t20.5 19t22.5 7.5q33 -3 60 -25.5t27 -66.5q0 -24 -10 -50t-29 -49t-46 -41t-60 -27z" />
    <glyph glyph-name="circumflex" unicode="&#x2c6;" horiz-adv-x="369" 
d="M89 590l-29 16l110 186q5 3 12.5 3.5t12.5 -3.5l114 -185l-27 -17l-103 107z" />
    <glyph glyph-name="caron" unicode="&#x2c7;" horiz-adv-x="390" 
d="M301 796q9 1 17.5 -4t11.5 -12l-124 -185q-5 -2 -12 -2.5t-13 2.5l-121 184q4 8 14 13t20 4l107 -106z" />
    <glyph glyph-name="breve" unicode="&#x2d8;" horiz-adv-x="392" 
d="M332 719q-9 -22 -21.5 -44t-29.5 -39t-37.5 -28t-45.5 -11q-27 0 -48 9.5t-38 26t-30 39t-22 49.5l28 13q7 -13 19.5 -24.5t27.5 -20.5t32 -14.5t32 -5.5q68 -2 109 61z" />
    <glyph glyph-name="dotaccent" unicode="&#x2d9;" horiz-adv-x="247" 
d="M60 670q0 27 17.5 43t46.5 16t46 -16t17 -43t-17 -42.5t-46 -15.5t-46.5 15.5t-17.5 42.5z" />
    <glyph glyph-name="ring" unicode="&#x2da;" horiz-adv-x="314" 
d="M60 683q0 41 28.5 69t71.5 28q39 0 66.5 -25t27.5 -69q0 -21 -8 -38t-21 -29t-30.5 -19t-35.5 -7q-45 0 -72 24t-27 66zM112 685q0 -26 13.5 -38.5t30.5 -12.5q20 0 32.5 11.5t12.5 36.5q0 27 -12 42t-32 15q-24 0 -34.5 -15t-10.5 -39z" />
    <glyph glyph-name="ogonek" unicode="&#x2db;" horiz-adv-x="318" 
d="M258 20q-24 -11 -44.5 -25t-36 -31.5t-24.5 -37.5t-9 -44q0 -10 3 -20.5t10 -19.5t18 -14.5t27 -5.5q14 0 26.5 2.5t26.5 6.5v-33q-14 -8 -35.5 -14t-39.5 -6q-60 0 -90 25t-30 63q0 27 12.5 50t34.5 42t51.5 34.5t62.5 27.5h37z" />
    <glyph glyph-name="tilde" unicode="&#x2dc;" horiz-adv-x="427" 
d="M367 672q-32 -32 -58.5 -44.5t-49.5 -12.5q-18 0 -34 5.5t-31 11.5l-29.5 11.5t-29.5 5.5q-13 0 -26.5 -5t-29.5 -19l-19 28q37 35 66 47t52 12q18 0 33.5 -5t29.5 -11t28.5 -11t29.5 -5q13 0 26 4.5t29 15.5z" />
    <glyph glyph-name="hungarumlaut" unicode="&#x2dd;" horiz-adv-x="455" 
d="M137 768q6 1 19 -0.5t26.5 -4.5t24.5 -7.5t14 -8.5v-15l-138 -134l-23 16zM310 768q7 1 19.5 -0.5t25 -5.5t24 -9.5t16.5 -12.5v-13l-199 -129l-19 18z" />
    <glyph glyph-name="acutecomb" unicode="&#x301;" horiz-adv-x="2" 
d="M-184 767q8 1 21 -0.5t27 -4.5t26 -7.5t18 -9.5v-19l-187 -151l-22 18z" />
    <glyph glyph-name="uni0394" unicode="&#x394;" horiz-adv-x="648" 
d="M20 0v31l293 669h28l287 -669v-31h-608zM306 563l-215 -502h421z" />
    <glyph glyph-name="uni0394" unicode="&#x2206;" horiz-adv-x="648" 
d="M20 0v31l293 669h28l287 -669v-31h-608zM306 563l-215 -502h421z" />
    <glyph glyph-name="uni03A9" unicode="&#x3a9;" horiz-adv-x="797" 
d="M57 0q0 18 1 42.5t2.5 51t3.5 52.5t4 48h25l44 -118h159q-44 16 -84 43.5t-70.5 65.5t-48.5 86.5t-18 105.5q0 76 23 137.5t66 105.5t104.5 68t137.5 24q78 0 137 -23t99.5 -66t61 -103t20.5 -133q0 -62 -19.5 -113t-50.5 -90.5t-69 -66.5t-75 -41h149l45 118h25
q2 -22 4 -48t3.5 -52.5t2.5 -51t1 -42.5h-282v83q24 10 52 34t52 61t40 86.5t16 111.5q0 58 -13 110t-39.5 90.5t-66 61t-93.5 22.5q-60 0 -103 -22t-70 -59.5t-39.5 -87t-12.5 -104.5q0 -62 17 -113.5t42.5 -91t55 -65t53.5 -34.5v-83h-292z" />
    <glyph glyph-name="uni03A9" unicode="&#x2126;" horiz-adv-x="797" 
d="M57 0q0 18 1 42.5t2.5 51t3.5 52.5t4 48h25l44 -118h159q-44 16 -84 43.5t-70.5 65.5t-48.5 86.5t-18 105.5q0 76 23 137.5t66 105.5t104.5 68t137.5 24q78 0 137 -23t99.5 -66t61 -103t20.5 -133q0 -62 -19.5 -113t-50.5 -90.5t-69 -66.5t-75 -41h149l45 118h25
q2 -22 4 -48t3.5 -52.5t2.5 -51t1 -42.5h-282v83q24 10 52 34t52 61t40 86.5t16 111.5q0 58 -13 110t-39.5 90.5t-66 61t-93.5 22.5q-60 0 -103 -22t-70 -59.5t-39.5 -87t-12.5 -104.5q0 -62 17 -113.5t42.5 -91t55 -65t53.5 -34.5v-83h-292z" />
    <glyph glyph-name="pi" unicode="&#x3c0;" horiz-adv-x="615" 
d="M556 50v-21q-29 -13 -67 -23t-70 -15h-25v446h-191v-190q0 -32 -2.5 -66t-8 -66.5t-13 -62t-16.5 -52.5q-9 -5 -26 -5.5t-33 0t-28 2.5t-12 3l-5 8q22 34 40 87t30.5 113t19 120.5t6.5 108.5h-17q-28 0 -54 -14.5t-49 -44.5l-13 8q5 25 13 47t23.5 38.5t41 26t65.5 8.5
q11 0 40.5 -1t69 -2t84.5 -2t86 -1q32 0 53.5 0.5t36 3.5t24.5 8t20 14l14 -9q-4 -32 -26 -56t-65 -24h-12v-379z" />
    <glyph glyph-name="afii10023" unicode="&#x401;" horiz-adv-x="582" 
d="M503 700q-1 -40 -3.5 -80.5t-7.5 -81.5h-26l-41 110h-218v-265h163l39 74h25q6 -99 0 -202h-25l-39 76h-163v-279h230l49 120h25q7 -42 10 -85t1 -87h-493v29q35 16 82 24v593q-20 4 -41 10.5t-41 14.5v29h474zM126 789q0 24 16 36t41 12q24 0 40 -12t16 -36
q0 -23 -16 -35t-40 -12q-25 0 -41 12t-16 35zM349 789q0 24 16 36t40 12q25 0 41 -12t16 -36q0 -23 -16 -35t-41 -12q-24 0 -40 12t-16 35z" />
    <glyph glyph-name="afii10051" unicode="&#x402;" horiz-adv-x="751" 
d="M712 238q0 -75 -15.5 -122t-42.5 -73.5t-64.5 -36t-82.5 -9.5l-6 27q26 6 47 17t36 33.5t23.5 59.5t8.5 95q0 70 -28 111.5t-94 41.5q-42 0 -80 -12.5t-66 -29.5v-287q19 -5 36.5 -11t34.5 -13v-29h-259v29q21 8 43.5 14t48.5 10v595h-153l-52 -143h-26q-3 20 -4.5 45.5
l-3 52t-2.5 52t-1 45.5h580q0 -20 -1 -44.5t-2.5 -50.5l-3 -51t-4.5 -46h-26l-52 140h-153v-259q27 15 72 30t102 15q42 0 76.5 -8.5t60 -30t39.5 -59.5t14 -98z" />
    <glyph glyph-name="afii10052" unicode="&#x403;" horiz-adv-x="507" 
d="M207 53q49 -8 96 -24v-29h-274v29q40 16 82 24v593q-20 4 -41 10.5t-41 14.5v29h468q0 -20 -1 -46l-2 -54t-3 -54.5t-5 -47.5h-26l-52 150h-201v-595zM369 893q9 1 23 -1t28.5 -6.5t27 -11t18.5 -13.5v-20l-226 -91l-17 19z" />
    <glyph glyph-name="afii10053" unicode="&#x404;" horiz-adv-x="643" 
d="M547 182h26q5 -28 9 -70.5t2 -82.5q-15 -12 -36 -19.5t-44.5 -12.5t-48 -7t-46.5 -2q-84 0 -150 21.5t-111.5 65.5t-70 112.5t-24.5 162.5q0 98 27 166.5t73 112t107 63.5t128 20q66 0 111 -8.5t79 -25.5q0 -16 -1 -37.5t-3 -45.5t-5 -47t-6 -42h-26l-52 144
q-11 6 -36.5 8t-50.5 2q-48 0 -91 -17.5t-76.5 -52.5t-54.5 -88.5t-24 -126.5l328 14q13 -40 4 -78q-35 3 -77.5 5.5l-87 5t-87.5 4t-80 1.5q3 -66 22.5 -119t53 -90.5t81 -57.5t107.5 -20q33 0 55 5t29 13z" />
    <glyph glyph-name="afii10054" unicode="&#x405;" horiz-adv-x="536" 
d="M150 69q12 -12 31 -20.5t57 -8.5q32 0 60 8.5t48.5 25t32.5 40t12 53.5q0 40 -24.5 67t-61 48t-79.5 41t-79.5 47.5t-61 66t-24.5 96.5q0 42 15 75t42.5 56t65.5 35.5t85 12.5q61 0 111.5 -9.5t79.5 -23.5q0 -17 -2.5 -39.5t-6 -46.5t-7.5 -46.5t-8 -39.5h-26l-40 137
q-18 8 -45.5 12t-58.5 4q-51 0 -82 -28.5t-31 -79.5q0 -41 24.5 -69t61.5 -50t79.5 -42.5t79.5 -47.5t61.5 -64t24.5 -92q0 -45 -16.5 -82t-47.5 -63t-76 -40t-102 -14q-63 0 -113 15t-71 32q1 17 3.5 41t6 49.5t7.5 49.5t8 41h26z" />
    <glyph glyph-name="afii10055" unicode="&#x406;" horiz-adv-x="352" 
d="M304 0h-256v29q39 18 80 24v593q-20 4 -40 10.5t-40 14.5v29h256v-29q-18 -8 -39 -14.5t-41 -10.5v-593q21 -4 42 -10t38 -14v-29z" />
    <glyph glyph-name="afii10056" unicode="&#x407;" horiz-adv-x="352" 
d="M32 789q0 24 15.5 36t40.5 12q24 0 40 -12t16 -36q0 -23 -16 -35t-40 -12q-25 0 -40.5 12t-15.5 35zM208 789q0 24 16 36t40 12q25 0 40.5 -12t15.5 -36q0 -23 -15.5 -35t-40.5 -12q-24 0 -40 12t-16 35zM304 0h-256v29q39 18 80 24v593q-20 4 -40 10.5t-40 14.5v29h256
v-29q-18 -8 -39 -14.5t-41 -10.5v-593q21 -4 42 -10t38 -14v-29z" />
    <glyph glyph-name="afii10057" unicode="&#x408;" horiz-adv-x="341" 
d="M39 700h254v-29q-18 -8 -37 -14.5t-39 -10.5v-560q0 -70 -16 -115t-39.5 -72.5t-50 -40.5t-48.5 -18l-11 15q15 13 27.5 29.5t22 41.5t14.5 61t5 88v571q-22 5 -43 11t-39 14v29z" />
    <glyph glyph-name="afii10058" unicode="&#x409;" horiz-adv-x="921" 
d="M372 0v29q38 18 76 24v595h-187q-4 -157 -14.5 -260.5t-26.5 -171t-36.5 -107.5t-44.5 -71q-20 -26 -49 -38t-56 -12q-7 8 -14.5 22.5t-14 31t-10.5 33t-5 29.5l15 25l115 -21q15 25 29.5 66t26 104.5t19 152.5t7.5 210q-62 10 -102 30v29h532v-29q-19 -8 -41 -14.5
t-47 -10.5v-229q18 2 44 4.5t46 2.5q49 0 94 -9t79 -32t54.5 -63t20.5 -102q0 -59 -23 -100.5t-60 -68.5t-84 -39.5t-95 -12.5q-5 0 -19.5 0.5t-32.5 1t-38 1t-35 0.5h-123zM612 372q-24 0 -39 -0.5t-29 -4.5v-314q5 -2 14.5 -2.5t20 -1t20.5 -0.5h16q70 0 115 42t45 128
q0 75 -40.5 114t-122.5 39z" />
    <glyph glyph-name="afii10059" unicode="&#x40a;" horiz-adv-x="994" 
d="M446 0v29q20 9 37 15t38 9v293h-314v-293q20 -4 39 -10t36 -14v-29h-253v29q40 16 82 24v593q-47 7 -82 25v29h253v-29q-17 -9 -36 -15t-39 -10v-248h314v248q-20 5 -37.5 11t-37.5 14v29h259v-29q-19 -8 -41 -14.5t-47 -10.5v-249q18 3 44 5t46 2q49 0 94 -9t79 -31.5
t54.5 -61t20.5 -97.5q0 -58 -22.5 -97.5t-59.5 -64t-84 -35.5t-96 -11q-5 0 -19.5 0.5t-32.5 1t-38 1t-35 0.5h-122zM686 351q-24 0 -39.5 -0.5t-29.5 -4.5v-293q5 -2 14.5 -2.5t20.5 -1t21 -0.5h15q35 0 64.5 9t50.5 28t33 48.5t12 70.5q0 69 -40.5 107.5t-121.5 38.5z" />
    <glyph glyph-name="afii10060" unicode="&#x40b;" horiz-adv-x="775" 
d="M348 648v-259q27 15 67 30t97 15q42 0 75.5 -8.5t57 -29.5t36 -57t12.5 -92v-194q36 -6 72 -24v-29h-168v229q0 35 -5.5 63t-18 48t-34.5 31t-55 11q-42 0 -75 -12.5t-61 -29.5v-287q19 -5 36.5 -11t34.5 -13v-29h-259v29q21 8 43.5 14t48.5 10v595h-153l-52 -143h-26
q-3 20 -4.5 45.5l-3 52t-2.5 52t-1 45.5h580q0 -20 -1 -44.5t-2.5 -50.5l-3 -51t-4.5 -45h-26l-52 139h-153z" />
    <glyph glyph-name="afii10061" unicode="&#x40c;" horiz-adv-x="646" 
d="M382 700h221v-29q-20 -9 -39 -15t-37 -10l-201 -266l57.5 -74l68 -84.5l73 -88l73.5 -84.5l48 -24v-25h-125l-34 24q-59 69 -117.5 149l-113.5 162h-49v-282q46 -8 75 -24v-29h-253v29q40 16 82 24v593q-45 6 -82 25v29h253v-29q-16 -7 -35 -13.5t-40 -11.5v-277l60 14
l187 263q-20 5 -38 11t-34 14v29zM419 893q9 1 23 -1t28.5 -6.5t27 -11t18.5 -13.5v-20l-226 -91l-17 19z" />
    <glyph glyph-name="afii10062" unicode="&#x40e;" horiz-adv-x="660" 
d="M522 646q-50 9 -85 25v29h223v-29q-13 -6 -31 -12.5t-41 -12.5l-196 -445q-21 -54 -42 -95.5t-43 -67.5t-47 -37.5t-54 -5.5q-6 9 -11.5 23t-9.5 29t-7 29.5t-4 26.5l15 25l103 -27q4 4 8.5 12t9 18t8.5 20t6 18l-249 477q-19 5 -38 11t-37 14v29h263v-29
q-17 -7 -37.5 -13.5t-43.5 -11.5l166 -331l21 -64h2l20 66zM352 732q-92 0 -134.5 36.5t-42.5 90.5q11 11 32.5 16t42.5 6l25 -13v-85q14 -7 34.5 -10.5t43.5 -3.5q17 0 40.5 3t37.5 8v88l25 13q15 1 36.5 -5.5t34.5 -16.5q0 -27 -10 -50t-31 -40t-54 -27t-80 -10z" />
    <glyph glyph-name="afii10145" unicode="&#x40f;" horiz-adv-x="718" 
d="M282 671q-34 -15 -75 -25v-594h304v594q-54 12 -75 25v29h253v-29q-21 -10 -41.5 -16.5t-40.5 -8.5v-593q21 -4 42 -9t40 -15v-29h-283q-6 -47 -14.5 -94.5t-19.5 -96.5h-26q-10 49 -18 96.5l-16 94.5h-283v29q40 16 82 24v593q-27 4 -47 10.5t-35 14.5v29h253v-29z" />
    <glyph glyph-name="afii10017" unicode="&#x410;" horiz-adv-x="683" 
d="M222 0h-222v29q36 16 72 24l253 659h29l253 -659q20 -4 39.5 -9t36.5 -15v-29h-256v29q20 8 41 14t41 10l-68 183h-239l-66 -183q42 -6 86 -24v-29zM222 288h202l-79 212l-19 86h-2l-25 -88z" />
    <glyph glyph-name="afii10018" unicode="&#x411;" horiz-adv-x="600" 
d="M111 646q-23 4 -43 10.5t-39 14.5v29h479q1 -40 -2 -89.5t-9 -91.5h-26l-52 129h-212v-241q18 2 44.5 4.5t46.5 2.5q49 0 94 -10.5t79.5 -34.5t55 -63.5t20.5 -97.5q0 -55 -21.5 -94.5t-57.5 -65.5t-84 -38.5t-101 -12.5q-5 0 -19.5 0.5t-33.5 1l-39 1t-35 0.5h-127v29
q39 18 82 24v593zM276 362q-24 0 -39.5 -1t-29.5 -4v-304q5 -2 14.5 -2.5t20.5 -1t21 -0.5h16q35 0 64.5 9.5t51 29.5t33.5 50t12 71q0 74 -41 113.5t-123 39.5z" />
    <glyph glyph-name="afii10019" unicode="&#x412;" horiz-adv-x="615" 
d="M29 0v29q40 19 82 24v593q-20 4 -41 10.5t-41 14.5v29h106q19 0 36.5 1l36.5 2t41 2t50 1q40 0 81.5 -6.5t75 -24.5t54.5 -50.5t21 -84.5q0 -26 -8 -52t-24.5 -48.5t-41.5 -39.5t-59 -25v-4q30 -5 59.5 -17t52.5 -32.5t37.5 -50.5t14.5 -72q0 -54 -24 -93t-62.5 -64
t-87.5 -36.5t-99 -11.5q-35 0 -79 3t-85 3h-96zM296 46q36 0 67.5 11t54 30.5t35.5 47t13 59.5q0 40 -15.5 66.5t-42 42t-61 21.5t-71.5 6h-75v-276q14 -4 33.5 -6t61.5 -2zM251 382q17 0 40.5 1.5t38.5 3.5q46 16 75.5 51.5t29.5 83.5q0 66 -39.5 99t-105.5 33
q-31 0 -53 -1t-36 -3v-268h50z" />
    <glyph glyph-name="afii10020" unicode="&#x413;" horiz-adv-x="507" 
d="M207 53q49 -8 96 -24v-29h-274v29q40 16 82 24v593q-20 4 -41 10.5t-41 14.5v29h468q0 -20 -1 -46l-2 -54t-3 -54.5t-5 -47.5h-26l-52 150h-201v-595z" />
    <glyph glyph-name="afii10021" unicode="&#x414;" horiz-adv-x="685" 
d="M669 52q0 -20 -2 -46.5t-5 -54.5t-6.5 -55t-6.5 -47h-26l-42 151h-493l-42 -151h-25q-5 19 -8.5 46t-6 55.5t-4.5 55t-2 46.5h83q26 42 49 107.5t39.5 144t26.5 165.5t10 172q-26 5 -51.5 12t-50.5 18v29h531v-29q-17 -7 -37 -13.5t-45 -11.5v-594h114zM459 52v596h-193
q-6 -123 -19.5 -219.5t-31 -170t-36 -124.5t-33.5 -82h313z" />
    <glyph glyph-name="afii10022" unicode="&#x415;" horiz-adv-x="582" 
d="M503 700q-1 -40 -3.5 -80.5t-7.5 -81.5h-26l-41 110h-218v-265h163l39 74h25q6 -99 0 -202h-25l-39 76h-163v-279h230l49 120h25q7 -42 10 -85t1 -87h-493v29q35 16 82 24v593q-20 4 -41 10.5t-41 14.5v29h474z" />
    <glyph glyph-name="afii10024" unicode="&#x416;" horiz-adv-x="947" 
d="M424 646q-21 6 -39 12t-32 13v29h232v-29q-12 -6 -28.5 -12l-36.5 -13v-277l68 14l168 263q-20 6 -37.5 12.5l-34.5 12.5v29h220v-29q-18 -8 -37 -14t-38 -11l-182 -266q26 -33 55 -74l60.5 -85l66 -88t71.5 -84l47 -24v-25h-125l-34 25q-59 69 -107.5 148.5
l-102.5 161.5h-58v-282q17 -5 33.5 -10.5t31.5 -13.5v-29h-233v29q30 16 72 24v291l-60 -15l-100 -158.5t-105 -145.5l-34 -25h-125v25l47 24q37 40 72 83l67 85l60 81.5l51 72.5l-188 275q-41 12 -71 25v29h221v-29q-14 -7 -31 -13.5t-37 -11.5l169 -269h64v269z" />
    <glyph glyph-name="afii10025" unicode="&#x417;" horiz-adv-x="554" 
d="M241 -12q-56 0 -106.5 11t-84.5 28q0 16 2 36.5t5.5 43t8 45t9.5 42.5h26l42 -140q6 -3 17 -5.5t24.5 -4.5t28 -3t27.5 -1q37 0 67.5 12t52.5 32.5t34 48.5t12 61q0 40 -12.5 67t-33.5 43.5t-48.5 23.5t-57.5 7l-77 -11q-7 31 -1 58h32q17 0 41 1.5t40 3.5
q46 16 70.5 51.5t24.5 83.5q0 66 -37.5 102t-103.5 36q-33 0 -52.5 -5.5t-26.5 -13.5l-52 -122h-26q-5 27 -8.5 69t-2.5 83q15 12 36.5 19.5t44.5 12.5t47.5 7t45.5 2q40 0 81 -7t74.5 -26.5t54.5 -53t21 -85.5q0 -51 -29.5 -95.5t-93.5 -69.5v-4q30 -5 56.5 -17.5t46 -33
t31 -50.5t11.5 -71q0 -54 -21.5 -94t-57.5 -66t-83.5 -38.5t-98.5 -12.5z" />
    <glyph glyph-name="afii10026" unicode="&#x418;" horiz-adv-x="739" 
d="M282 0h-253v29q40 18 82 24v593q-20 5 -41 11t-41 14v29h253v-29q-16 -8 -34 -14t-41 -11v-434l-11 -75l48 79l293 406v24q-23 5 -43.5 11.5t-37.5 13.5v29h254v-29q-18 -8 -39 -14t-43 -11v-593q47 -8 82 -24v-29h-254v29q16 7 35 13.5t41 10.5v433l10 75l-44 -75
l-297 -411v-22q23 -4 43.5 -10t37.5 -14v-29z" />
    <glyph glyph-name="afii10027" unicode="&#x419;" horiz-adv-x="739" 
d="M282 0h-253v29q40 18 82 24v593q-20 5 -41 11t-41 14v29h253v-29q-16 -8 -34 -14t-41 -11v-434l-11 -75l48 79l293 406v24q-23 5 -43.5 11.5t-37.5 13.5v29h254v-29q-18 -8 -39 -14t-43 -11v-593q47 -8 82 -24v-29h-254v29q16 7 35 13.5t41 10.5v433l10 75l-44 -75
l-297 -411v-22q23 -4 43.5 -10t37.5 -14v-29zM375 732q-92 0 -134.5 36.5t-42.5 90.5q11 11 32.5 16t42.5 6l25 -13v-85q14 -7 34.5 -10.5t43.5 -3.5q17 0 40.5 3t37.5 8v88l25 13q15 1 36.5 -5.5t34.5 -16.5q0 -27 -10 -50t-31 -40t-54 -27t-80 -10z" />
    <glyph glyph-name="afii10028" unicode="&#x41a;" horiz-adv-x="646" 
d="M382 700h221v-29q-20 -9 -39 -15t-37 -10l-201 -266l57.5 -74l68 -84.5l73 -88l73.5 -84.5l48 -24v-25h-125l-34 24q-59 69 -117.5 149l-113.5 162h-49v-282q46 -8 75 -24v-29h-253v29q40 16 82 24v593q-45 6 -82 25v29h253v-29q-16 -7 -35 -13.5t-40 -11.5v-277l60 14
l187 263q-20 5 -38 11t-34 14v29z" />
    <glyph glyph-name="afii10029" unicode="&#x41b;" horiz-adv-x="655" 
d="M202 641q-62 10 -102 30v29h526v-29q-35 -18 -82 -25v-593q47 -8 82 -24v-29h-254v29q18 8 37 13.5t39 10.5v595h-187q-4 -157 -14.5 -260.5t-26.5 -171t-36.5 -107.5t-44.5 -71q-20 -26 -49 -38t-56 -12q-7 8 -14.5 22.5t-14 31t-10.5 33t-5 29.5l15 25l115 -21
q15 25 29.5 66t26 104.5t19 152.5t7.5 210z" />
    <glyph glyph-name="afii10030" unicode="&#x41c;" horiz-adv-x="867" 
d="M837 0h-248v29q20 8 40 13.5t41 10.5v450l4 117h-8l-33 -107l-205 -513h-26l-195 513l-36 117h-9l1 -127v-450q19 -4 38 -10t38 -14v-29h-209v29q19 8 39.5 14.5t41.5 10.5v592q-21 4 -41.5 10.5t-40.5 14.5v29h205l174 -457l34 -103h1l34 105l180 455h181v-29
q-18 -8 -37 -14.5t-39 -10.5v-594q21 -4 39.5 -9.5t35.5 -13.5v-29z" />
    <glyph glyph-name="afii10031" unicode="&#x41d;" horiz-adv-x="728" 
d="M282 0h-253v29q40 16 82 24v593q-47 7 -82 25v29h253v-29q-17 -9 -36 -15t-39 -10v-261h314v261q-21 5 -39.5 11t-35.5 14v29h253v-29q-18 -10 -39.5 -15.5t-42.5 -9.5v-593q23 -4 44 -10t38 -14v-29h-253v29q36 16 75 24v280h-314v-280q20 -4 39 -10t36 -14v-29z" />
    <glyph glyph-name="afii10032" unicode="&#x41e;" horiz-adv-x="740" 
d="M53 350q0 78 21.5 144.5t62 115t99.5 75.5t134 27t134 -27t99.5 -75.5t62 -115t21.5 -144.5t-21.5 -144.5t-62 -115t-99.5 -75.5t-134 -27t-134 27t-99.5 75.5t-62 115t-21.5 144.5zM160 350q0 -64 13.5 -120.5t40.5 -98.5t68 -66.5t97 -24.5q51 0 89 24.5t62.5 66.5
t37 98.5t12.5 120.5t-13 120.5t-40 98.5t-68 66.5t-97 24.5q-55 0 -93.5 -24.5t-62.5 -66.5t-35 -98.5t-11 -120.5z" />
    <glyph glyph-name="afii10033" unicode="&#x41f;" horiz-adv-x="718" 
d="M282 0h-253v29q15 8 35 14t47 10v593q-20 4 -41 10.5t-41 14.5v29h660v-29q-19 -10 -40 -15.5t-42 -9.5v-593q40 -5 82 -24v-29h-253v29q22 14 75 24v595h-304v-595q39 -8 75 -24v-29z" />
    <glyph glyph-name="afii10034" unicode="&#x420;" horiz-adv-x="596" 
d="M207 53q27 -3 51 -9.5t45 -14.5v-29h-274v29q20 10 41 15t41 9v593q-23 4 -43 10.5t-39 14.5v29h90q40 0 87 4t90 4q49 0 96 -10.5t83.5 -35.5t59 -66.5t22.5 -103.5q0 -59 -23 -101t-61.5 -69t-87.5 -39.5t-101 -12.5h-15.5t-22.5 0.5t-23 1.5t-16 2v-221zM275 656
q-24 0 -39 -1t-29 -4v-324q5 -2 14.5 -2.5t20 -1.5t20.5 -1h16q35 0 66 9.5t54.5 30.5t37.5 53t14 77q0 82 -46.5 123t-128.5 41z" />
    <glyph glyph-name="afii10035" unicode="&#x421;" horiz-adv-x="644" 
d="M547 182h26q5 -28 9 -70.5t2 -82.5q-15 -12 -36 -19.5t-44.5 -12.5t-48 -7t-46.5 -2q-84 0 -150 21.5t-111.5 65.5t-70 112.5t-24.5 162.5q0 98 27 166.5t73 112t107 63.5t128 20q66 0 111 -8.5t79 -25.5q0 -16 -1 -37.5t-3 -45.5t-5 -47t-6 -42h-26l-52 144
q-11 6 -36.5 8t-50.5 2q-50 0 -94.5 -18.5t-78 -57t-53.5 -97t-20 -137.5q0 -71 18 -128.5t52 -98t83 -62t111 -21.5q33 0 55 5t29 13z" />
    <glyph glyph-name="afii10036" unicode="&#x422;" horiz-adv-x="619" 
d="M450 0h-281v29q22 8 44.5 14t48.5 10v595h-153l-53 -143h-25q-3 20 -5 45.5t-3.5 52t-2.5 52t-1 45.5h581q0 -20 -1 -45t-2.5 -51.5l-3 -52t-4.5 -46.5h-26l-52 143h-153v-595q26 -5 48.5 -10t43.5 -14v-29z" />
    <glyph glyph-name="afii10037" unicode="&#x423;" horiz-adv-x="660" 
d="M522 646q-50 9 -85 25v29h223v-29q-13 -6 -31 -12.5t-41 -12.5l-196 -445q-21 -54 -42 -95.5t-43 -67.5t-47 -37.5t-54 -5.5q-6 9 -11.5 23t-9.5 29t-7 29.5t-4 26.5l15 25l103 -27q4 4 8.5 12t9 18t8.5 20t6 18l-249 477q-19 5 -38 11t-37 14v29h263v-29
q-17 -7 -37.5 -13.5t-43.5 -11.5l166 -331l21 -64h2l20 66z" />
    <glyph glyph-name="afii10038" unicode="&#x424;" horiz-adv-x="786" 
d="M278 700h225v-29q-11 -6 -27 -12t-39 -12v-51q19 5 43.5 6t40.5 1q48 0 89.5 -16.5t72 -48t47.5 -76.5t17 -102q0 -64 -21 -111t-55.5 -78.5t-78 -47t-88.5 -15.5q-5 0 -14 0.5t-19 1t-19 2t-15 3.5v-62q20 -5 36 -10.5t30 -13.5v-29h-225v29q15 8 33 13.5t38 9.5v61
q-19 -3 -41.5 -4t-42.5 -1q-41 0 -81 13.5t-72.5 42.5t-52.5 75t-20 111q0 60 20 107.5t54 79.5t78.5 49t93.5 17q13 0 32.5 -1t31.5 -3v48q-45 10 -71 24v29zM491 556q-14 0 -27.5 -1t-27.5 -5v-392q10 -2 25 -2.5t23 -0.5q33 0 63.5 12t54 36.5t37.5 63.5t14 93
q0 92 -42.5 144t-119.5 52zM302 155q11 0 22.5 0.5t25.5 4.5v393q-24 3 -48 3q-32 0 -62 -12t-54 -37.5t-38.5 -64t-14.5 -92.5q0 -47 13 -83.5t35.5 -61t53.5 -37.5t67 -13z" />
    <glyph glyph-name="afii10039" unicode="&#x425;" horiz-adv-x="670" 
d="M395 700h230v-29q-17 -7 -36 -13.5t-39 -11.5l-176 -271l205 -322q48 -8 82 -24v-29h-266v29q36 18 76 24l-158 251l-152 -252q21 -3 41 -7.5t39 -15.5v-29h-231v29q19 10 37.5 15t36.5 9l196 299l-188 294l-39.5 12t-39.5 13v29h265v-29q-15 -6 -33.5 -12t-42.5 -13
l140 -226l136 226q-41 9 -83 25v29z" />
    <glyph glyph-name="afii10040" unicode="&#x426;" horiz-adv-x="732" 
d="M29 0v29q28 13 82 24v593q-39 6 -82 25v29h253v-29q-29 -13 -75 -25v-594h299v594q-18 4 -37 10t-38 15v29h253v-29q-40 -17 -82 -25v-594h115q0 -20 -2 -46.5t-5 -55t-6.5 -55t-7.5 -46.5h-25l-43 151h-599z" />
    <glyph glyph-name="afii10041" unicode="&#x427;" horiz-adv-x="636" 
d="M607 0h-254v29q24 11 46.5 16.5t45.5 7.5v257q-27 -15 -71.5 -30t-101.5 -15q-42 0 -77 8t-60.5 29t-39.5 57t-14 92v195q-18 3 -36 9.5t-36 15.5v29h234v-29q-14 -7 -30 -13.5t-36 -11.5v-176q0 -70 28.5 -111.5t94.5 -41.5q42 0 80 12t65 29v288q-18 5 -36 11.5
t-35 13.5v29h233v-29q-14 -7 -30.5 -13.5t-35.5 -11.5v-593q20 -4 36.5 -10t29.5 -14v-29z" />
    <glyph glyph-name="afii10042" unicode="&#x428;" horiz-adv-x="930" 
d="M353 700h226v-29q-16 -8 -32 -14t-33 -11v-594h221v594q-35 10 -66 25v29h232v-29q-15 -7 -32.5 -13.5t-37.5 -11.5v-593q41 -8 70 -24v-29h-872v29q37 18 72 24v593q-19 5 -37 11t-35 14v29h233v-29q-26 -13 -65 -25v-594h221v594q-20 6 -36 12.5t-29 12.5v29z" />
    <glyph glyph-name="afii10043" unicode="&#x429;" horiz-adv-x="961" 
d="M29 0v29q16 8 33 14t39 10v593q-35 6 -72 25v29h233v-29q-14 -7 -29.5 -13.5t-35.5 -11.5v-594h221v594l-34.5 11.5t-30.5 13.5v29h226v-29q-12 -8 -28.5 -14t-36.5 -11v-594h221v594q-36 9 -66 25v29h232v-29q-29 -18 -70 -25v-595h115q0 -20 -2 -46t-5 -54t-6.5 -55
t-7.5 -47h-25l-43 151h-828z" />
    <glyph glyph-name="afii10044" unicode="&#x42a;" horiz-adv-x="722" 
d="M421 700v-29q-18 -7 -40.5 -13.5t-47.5 -11.5v-229q18 2 44 4.5t46 2.5q49 0 96 -9t83.5 -32t58.5 -63t22 -102q0 -59 -23 -101t-61.5 -68.5t-88 -39t-102.5 -12.5q-5 0 -19.5 0.5t-32.5 1t-38 1t-35 0.5h-128v29q35 16 82 24v595h-129l-52 -143h-25q-3 21 -5 47t-3.5 52
t-2 51t-1.5 45h402zM402 372q-25 0 -40 -0.5t-29 -4.5v-314q5 -2 14.5 -2.5t20.5 -1t21 -0.5h15q35 0 66 10t54.5 30.5t37.5 52.5t14 77q0 81 -46.5 117t-127.5 36z" />
    <glyph glyph-name="afii10045" unicode="&#x42b;" horiz-adv-x="844" 
d="M815 0h-254v29q20 10 39 15t39 9v593l-38.5 10t-39.5 15v29h254v-29q-33 -16 -80 -25v-593q25 -4 44 -10t36 -14v-29zM29 0v29q39 18 82 24v593q-20 5 -41 11t-41 14v29h266v-29q-19 -8 -41 -14.5t-47 -10.5v-229q18 2 44 4.5t46 2.5q49 0 94 -9t79 -32t54.5 -63
t20.5 -102q0 -59 -23 -100.5t-60 -68.5t-84 -39.5t-95 -12.5q-5 0 -19.5 0.5t-32.5 1t-38 1t-35 0.5h-129zM275 372q-24 0 -39.5 -0.5t-28.5 -4.5v-314q5 -2 14.5 -2.5t20 -1t20.5 -0.5h16q70 0 115 42t45 128q0 75 -41 114t-122 39z" />
    <glyph glyph-name="afii10046" unicode="&#x42c;" horiz-adv-x="596" 
d="M29 0v29q39 18 82 24v593q-20 4 -41 10.5t-41 14.5v29h266v-29q-18 -8 -40.5 -14.5t-47.5 -10.5v-229q18 2 44 4.5t46 2.5q50 0 97 -9t83 -32t58 -63t22 -102q0 -59 -23 -100.5t-61 -68.5t-87.5 -39.5t-102.5 -12.5q-5 0 -19.5 0.5t-33 1l-38.5 1t-35 0.5h-128zM276 372
q-25 0 -40 -0.5t-29 -4.5v-314q5 -2 14.5 -2.5t20.5 -1t21 -0.5h15q35 0 66 10t54.5 30.5t37.5 52.5t14 77q0 81 -46.5 117t-127.5 36z" />
    <glyph glyph-name="afii10047" unicode="&#x42d;" horiz-adv-x="633" 
d="M189 314q-5 20 -5 39.5t5 38.5l291 -1q-8 135 -72.5 202t-175.5 67q-33 0 -52.5 -5.5t-27.5 -13.5l-52 -122h-26q-2 13 -4 31t-3.5 38t-2 41.5t-0.5 41.5q15 12 36.5 19.5t44.5 12.5t47.5 7t45.5 2q81 0 144.5 -20.5t107.5 -64t67 -112t23 -164.5t-28 -164.5
t-74.5 -112.5t-106 -65t-123.5 -21q-66 0 -110.5 8.5t-79.5 25.5l2.5 38.5t3.5 46t4.5 46.5l4.5 42h26l52 -146q11 -6 37 -7.5t51 -1.5q45 0 88 19t77 57t55 95t21 133z" />
    <glyph glyph-name="afii10048" unicode="&#x42e;" horiz-adv-x="968" 
d="M283 0h-254v29q19 8 39 14t43 10v593q-39 6 -82 25v29h254v-29l-30 -12.5t-46 -12.5v-261h119q4 69 24 129t56.5 104t89 69t121.5 25q75 0 131 -27t93 -75.5t55.5 -115t18.5 -144.5q0 -77 -19 -143.5t-56.5 -115t-93 -76t-129.5 -27.5q-73 0 -127.5 26t-90.5 71.5
t-54.5 109t-19.5 138.5h-118v-280q25 -5 43.5 -11t32.5 -13v-29zM428 350q0 -65 10.5 -121.5t34 -98.5t61 -66t92.5 -24q51 0 86 24.5t56 66.5t30.5 98.5t9.5 120.5t-10 120.5t-33.5 98.5t-61.5 66.5t-94 24.5q-54 0 -89 -24.5t-55.5 -66.5t-28.5 -98.5t-8 -120.5z" />
    <glyph glyph-name="afii10049" unicode="&#x42f;" horiz-adv-x="636" 
d="M607 700v-29q-15 -7 -35 -13.5t-47 -11.5v-593q50 -7 82 -24v-29h-265v29q37 18 87 24v241h-101q-22 -36 -39.5 -71l-35.5 -69t-38 -66t-46 -63l-34 -25h-126v25l48 24q32 34 57 67t46 64l40.5 61l39.5 59q-29 9 -56 25t-47 40t-32 56.5t-12 74.5q0 55 24 94.5t63 64.5
t88.5 36.5t100.5 11.5q20 0 49.5 -1.5t60.5 -1.5h128zM360 338q18 0 37 1.5t32 5.5v301q-10 3 -28.5 4t-32.5 1q-77 0 -122.5 -36.5t-45.5 -118.5q0 -75 39.5 -116.5t120.5 -41.5z" />
    <glyph glyph-name="afii10065" unicode="&#x430;" horiz-adv-x="505" 
d="M410 131q0 -22 1 -38t2 -34l69 -10v-21q-25 -13 -55.5 -23t-58.5 -15h-25q-10 23 -12 50.5t-3 60.5h-5q-4 -20 -15.5 -40.5t-30 -36.5t-43.5 -26t-57 -10q-61 0 -99.5 37t-38.5 97q0 46 18.5 75.5t54.5 46.5t89 24.5t123 11.5q4 43 2.5 77.5t-11 59t-28 38t-48.5 13.5
q-14 0 -31.5 -1.5t-34.5 -8.5l-47 -120h-26q-10 30 -17.5 62t-9.5 63q38 23 84.5 36t103.5 13q51 0 81.5 -14.5t46.5 -37.5t21 -51t5 -56q0 -60 -2.5 -115.5t-2.5 -106.5zM217 50q25 0 44 10t32 24t21 28.5t11 24.5v105q-58 0 -95 -6t-58 -19t-29 -32.5t-8 -44.5
q0 -43 22 -66.5t60 -23.5z" />
    <glyph glyph-name="afii10066" unicode="&#x431;" horiz-adv-x="541" 
d="M41 262q0 128 21 214.5t63.5 139t107.5 74.5t152 22l65 50h26q-1 -18 -4 -38.5t-7.5 -39t-9 -32.5t-7.5 -20q-92 0 -156 -9t-106 -37t-63.5 -81t-28.5 -140h5q12 26 32.5 50t47 42t56.5 29t61 11q204 0 204 -245q0 -58 -16 -106.5t-47 -83.5t-75 -54.5t-99 -19.5
q-50 0 -91 18.5t-70 54t-45 86t-16 115.5zM135 262q0 -63 11.5 -106.5t31.5 -71t46.5 -40t55.5 -12.5q60 0 90.5 54t30.5 154q0 102 -39 149t-108 47q-26 0 -56.5 -16t-51.5 -43q-5 -25 -8 -52.5t-3 -62.5z" />
    <glyph glyph-name="afii10067" unicode="&#x432;" horiz-adv-x="528" 
d="M481 146q0 -40 -18 -68.5t-48.5 -46.5t-70.5 -26.5t-84 -8.5q-32 0 -51 0.5t-32 1.5t-22 1.5t-20 0.5h-96v25q31 16 66 24v401q-38 7 -66 24v26h90q24 0 41 0.5t32 1.5t30 1.5t33 0.5q88 0 137 -26.5t49 -92.5q0 -24 -10 -43t-26 -33t-36 -23.5t-39 -13.5q28 -2 53.5 -11
t45 -24.5t31 -38t11.5 -52.5zM195 43q14 -3 35.5 -3h35.5q59 0 88 25.5t29 72.5q0 49 -35 73.5t-90 24.5h-63v-193zM195 266l111 10q18 9 36.5 33.5t18.5 64.5q0 49 -29.5 67.5t-86.5 18.5q-11 0 -25 -0.5t-25 -3.5v-190z" />
    <glyph glyph-name="afii10068" unicode="&#x433;" horiz-adv-x="431" 
d="M412 500q-1 -39 -3.5 -81t-8.5 -83h-26l-44 120h-135v-407q57 -11 90 -24v-25h-246v25q17 10 33 15t33 9v402q-37 6 -66 23v26h373z" />
    <glyph glyph-name="afii10069" unicode="&#x434;" horiz-adv-x="573" 
d="M90 0l-45 -148h-26q-5 49 -7.5 99t-2.5 98h68q12 14 27 44t28.5 77.5t23 114t9.5 155.5q-21 6 -38 15t-31 19v26h425v-26q-27 -18 -66 -24v-401h89q1 -48 -2 -98t-9 -99h-25l-45 148h-373zM220 450q0 -90 -9 -157t-21.5 -114.5t-26.5 -79t-25 -50.5h227v401h-145z" />
    <glyph glyph-name="afii10070" unicode="&#x435;" horiz-adv-x="503" 
d="M446 70q-8 -17 -25 -32t-39 -26t-48 -17.5t-53 -6.5q-59 0 -104 18.5t-75 53t-45.5 82.5t-15.5 108q0 128 59 195t167 67q35 0 69 -9.5t60.5 -31.5t43 -58.5t16.5 -90.5q0 -17 -1.5 -34.5t-5.5 -37.5h-312q0 -42 10.5 -78.5t31.5 -63.5t53 -42.5t75 -15.5q35 0 71 10
t54 26zM263 468q-57 0 -87 -38.5t-36 -135.5h220q1 9 1.5 17.5t0.5 16.5q0 64 -24 102t-75 38z" />
    <glyph glyph-name="afii10072" unicode="&#x436;" horiz-adv-x="722" 
d="M529 500h173v-26q-17 -12 -57 -24q-32 -44 -66 -86l-67 -84l32 -45l41.5 -58.5l47 -64.5l48.5 -63l41 -24v-25h-106l-28 23q-17 23 -36.5 53.5l-38.5 61.5l-35 57.5t-26 41.5h-48v-188q31 -8 60 -24v-25h-201v25q14 7 27.5 13t28.5 11v194l-55 -10q-9 -14 -24 -41
l-32.5 -58t-36.5 -61t-37 -50l-30 -23h-104v25l46 24q25 29 48.5 61l44.5 62l38.5 56.5t31.5 44.5q-38 43 -73 87.5t-67 89.5q-26 6 -50 24v26h173v-26q-19 -14 -50 -24q27 -48 58.5 -90.5l66.5 -90.5h52v181q-33 7 -56 24v26h194v-26q-10 -8 -22.5 -14t-30.5 -10v-187
l55 10l63.5 88.5t56.5 88.5q-14 5 -26 10t-24 14v26z" />
    <glyph glyph-name="afii10073" unicode="&#x437;" horiz-adv-x="474" 
d="M205 35q31 0 53.5 10t36.5 26t21 36.5t7 41.5q0 48 -20.5 65t-55.5 23l-94 -15q-4 13 -4.5 27t4.5 27h102q9 4 18.5 12.5t18 21t14 29.5t5.5 38q0 48 -26.5 69.5t-69.5 21.5q-20 0 -36.5 -2.5t-21.5 -4.5l-45 -113h-25q-11 33 -16 66t-6 65q20 11 61 22t105 11
q81 0 125.5 -29.5t44.5 -87.5q0 -24 -10 -44t-25.5 -36t-35 -27t-38.5 -17q55 -5 92 -35.5t37 -86.5q0 -80 -55 -120.5t-146 -40.5q-58 0 -101.5 17t-72.5 43l18 67h20q13 -14 29 -33.5l32 -38.5q21 -8 60 -8z" />
    <glyph glyph-name="afii10074" unicode="&#x438;" horiz-adv-x="612" 
d="M39 500h212v-26q-11 -6 -25.5 -12t-34.5 -12v-274l-11 -93h5l39 75l214 342h135v-26q-32 -18 -66 -24v-401q19 -5 36 -10.5t30 -13.5v-25h-212v25q28 16 60 24v286l10 79h-5l-38 -75l-212 -339h-137v25q17 8 33 13.5t33 10.5v401q-39 6 -66 24v26z" />
    <glyph glyph-name="afii10075" unicode="&#x439;" horiz-adv-x="612" 
d="M39 500h212v-26q-11 -6 -25.5 -12t-34.5 -12v-274l-11 -93h5l39 75l214 342h135v-26q-32 -18 -66 -24v-401q19 -5 36 -10.5t30 -13.5v-25h-212v25q28 16 60 24v286l10 79h-5l-38 -75l-212 -339h-137v25q17 8 33 13.5t33 10.5v401q-39 6 -66 24v26zM316 560
q-50 0 -82 10.5t-51 27.5t-26.5 39.5t-7.5 45.5q16 13 35 19t40 8l25 -13v-89q14 -6 33 -8.5t35 -2.5q10 0 32 2t36 6v92l25 13q21 -2 39.5 -9t30.5 -18q0 -23 -8 -45.5t-26.5 -39.5t-50 -27.5t-79.5 -10.5z" />
    <glyph glyph-name="afii10076" unicode="&#x43a;" horiz-adv-x="541" 
d="M325 500h193v-26q-10 -8 -26.5 -14t-40.5 -14l-72 -83t-80 -84l46.5 -53l49.5 -60l50 -61t49 -56l47 -24v-25h-117l-32 23q-45 54 -82 108l-75 106h-40v-188q20 -5 36.5 -10.5t28.5 -13.5v-25h-221v25q27 16 66 24v401q-35 7 -66 24v26h205v-26q-10 -7 -21.5 -13
t-27.5 -11v-187l46 10l76 86t67 87l-31.5 13.5t-27.5 14.5v26z" />
    <glyph glyph-name="afii10077" unicode="&#x43b;" horiz-adv-x="543" 
d="M103 86q14 24 25 64t18.5 88t11.5 100.5t4 101.5q-20 6 -36.5 15t-30.5 19v26h409v-26q-32 -18 -66 -24v-401q21 -5 37 -11t29 -13v-25h-215v25q24 17 59 24v407h-132q-1 -53 -6 -112.5t-15 -117t-26 -108t-39 -84.5q-19 -29 -41 -40.5t-41 -7.5q-15 17 -28.5 44.5
t-15.5 50.5l14 25z" />
    <glyph glyph-name="afii10078" unicode="&#x43c;" horiz-adv-x="734" 
d="M207 0h-176v25q33 16 66 24l15 391q-21 8 -37 17l-29 17v26h195l103 -292l19 -69h3l21 70l107 291h189v-26q-13 -8 -29 -14t-37 -10l20 -401q33 -6 66 -24v-25h-212v25q10 5 24 11t36 13l-20 405h-8l-164 -454h-27l-162 454h-8l-15 -405q36 -11 60 -24v-25z" />
    <glyph glyph-name="afii10079" unicode="&#x43d;" horiz-adv-x="612" 
d="M254 0h-215v25q14 8 31 13.5t35 10.5v401q-18 5 -35 10.5t-31 13.5v26h215v-26q-23 -14 -59 -24v-175h222v175q-35 6 -60 24v26h216v-26q-27 -17 -66 -24v-401q18 -4 35 -9t31 -15v-25h-216v25q25 18 60 24v182h-222v-182q20 -4 34 -10t25 -14v-25z" />
    <glyph glyph-name="afii10080" unicode="&#x43e;" horiz-adv-x="553" 
d="M41 250q0 63 16.5 111.5t47.5 82t74.5 51t96.5 17.5q62 0 107 -19t73.5 -53.5t42 -82.5t13.5 -107q0 -126 -64 -194t-172 -68q-60 0 -104 18.5t-73 53t-43.5 83t-14.5 107.5zM137 250q0 -45 8.5 -85t27 -69.5t48.5 -46.5t72 -17q54 0 88.5 53t34.5 165q0 46 -8.5 85.5
t-26.5 69t-46 46.5t-67 17q-59 0 -95 -53t-36 -165z" />
    <glyph glyph-name="afii10081" unicode="&#x43f;" horiz-adv-x="611" 
d="M254 0h-215v25q19 11 35 16.5t31 7.5v401q-21 5 -38 11t-28 13v26h533v-26q-13 -8 -29 -15t-37 -9v-401q34 -6 66 -24v-25h-215v25q10 7 23.5 13t35.5 11v407h-221v-407q20 -6 34 -12t25 -12v-25z" />
    <glyph glyph-name="afii10082" unicode="&#x440;" horiz-adv-x="566" 
d="M253 -200h-222v25q34 16 66 24v593l-66 8v26q32 14 65.5 22.5t65.5 13.5h25v-112h1q20 51 56 81.5t94 30.5q89 0 138 -59t49 -192q0 -63 -16.5 -114t-47 -86t-74 -54t-96.5 -19q-37 0 -58 4.5t-46 15.5v-159q16 -2 32 -7.5t34 -16.5v-25zM306 450q-49 0 -78 -31t-41 -85
v-280q18 -11 40.5 -16.5t58.5 -5.5q33 0 59.5 17t45 48t28.5 72.5t10 91.5q0 41 -6.5 75.5t-21 60t-38 39.5t-57.5 14z" />
    <glyph glyph-name="afii10083" unicode="&#x441;" horiz-adv-x="466" 
d="M427 70q-18 -35 -58.5 -58.5t-94.5 -23.5q-59 0 -102.5 18.5t-72.5 53t-43.5 83t-14.5 107.5q0 127 62 194.5t169 67.5q49 0 87.5 -8.5t65.5 -22.5q-3 -33 -11 -74t-20 -68h-27l-42 119q-7 5 -16 7.5t-30 2.5q-68 0 -105 -49.5t-37 -167.5q0 -38 10.5 -74t32 -64.5
t54 -45.5t75.5 -17q35 0 61 10t44 24z" />
    <glyph glyph-name="afii10084" unicode="&#x442;" horiz-adv-x="496" 
d="M359 0h-222v25q31 16 66 24v407h-93l-44 -120h-26q-5 43 -8 84.5t-4 79.5h440q-1 -36 -3.5 -78.5t-8.5 -85.5h-26l-44 120h-93v-407q47 -12 66 -24v-25z" />
    <glyph glyph-name="afii10085" unicode="&#x443;" horiz-adv-x="505" 
d="M42 450q-15 4 -27.5 10t-25.5 14v26h209v-25q-21 -14 -57 -25l128 -296l19 -62h2l15 63l95 295q-30 6 -55 24v26h171v-26q-21 -14 -57 -24l-156 -450q-24 -64 -45.5 -103.5t-43 -62.5t-44 -33.5t-48.5 -15.5q-11 19 -19.5 42t-14.5 44l13 24h104q6 8 10.5 15.5t9.5 18.5
t11 28t14 43z" />
    <glyph glyph-name="afii10086" unicode="&#x444;" horiz-adv-x="723" 
d="M471 -200h-218v25q28 16 66 24v176q-17 -17 -37.5 -27t-49.5 -10q-42 0 -77.5 14.5t-60.5 44.5t-39 76t-14 109q0 143 55 211.5t147 68.5q25 0 45.5 -8.5t30.5 -23.5v202l-76 8v26q29 13 66.5 22t70.5 14h25v-278q15 18 40 28t53 10q85 0 135 -57t50 -175q0 -76 -15 -131
t-41 -91t-62.5 -53t-79.5 -17q-24 0 -46 8t-34 22v-169q19 -3 35.5 -8.5t30.5 -15.5v-25zM253 37q17 0 34.5 4.5t31.5 18.5v385q-12 8 -26.5 12.5t-40.5 4.5q-25 0 -46.5 -11t-37 -34t-24.5 -59t-9 -87q0 -68 9 -113t25 -72t37.5 -38t46.5 -11zM474 462q-20 0 -38 -4.5
t-32 -16.5v-386q12 -10 27.5 -14t39.5 -4q23 0 44.5 11.5t38 36t26 64t9.5 96.5q0 61 -7.5 103t-21.5 67t-36 36t-50 11z" />
    <glyph glyph-name="afii10087" unicode="&#x445;" horiz-adv-x="519" 
d="M298 268l158 -219q14 -5 27.5 -10.5t25.5 -13.5v-25h-205v24l26 14.5t24 10.5l-111 164l-112 -164q14 -5 26 -11t24 -13v-25h-171v25q28 17 56 24l149 199l-150 202q-14 5 -25.5 10.5t-23.5 13.5v26h201v-25q-12 -8 -23.5 -14.5t-25.5 -10.5l104 -150l102 150
q-34 11 -50 24v26h167v-26q-19 -13 -56 -24z" />
    <glyph glyph-name="afii10088" unicode="&#x446;" horiz-adv-x="614" 
d="M39 0v25q27 16 66 24v401q-38 6 -66 24v26h215v-26q-23 -14 -59 -24v-406h211v406q-27 6 -59 24v26h215v-26q-13 -7 -29 -13t-37 -11v-406h89q-2 -48 -4.5 -96t-6.5 -96h-25l-45 148h-465z" />
    <glyph glyph-name="afii10089" unicode="&#x447;" horiz-adv-x="558" 
d="M15 500h215v-26q-10 -7 -25 -13.5t-34 -10.5v-120q0 -47 20 -75.5t67 -28.5q28 0 54.5 8.5t50.5 22.5v193q-30 6 -59 24v26h215v-26q-27 -17 -66 -24v-401q20 -5 36 -10.5t30 -13.5v-25h-236v25q41 17 80 24v179q-24 -26 -57 -42.5t-83 -16.5q-68 0 -105 38t-37 103v140
q-38 7 -66 24v26z" />
    <glyph glyph-name="afii10090" unicode="&#x448;" horiz-adv-x="832" 
d="M637 44v406q-32 9 -54 24v26h210v-26q-14 -8 -30 -14t-36 -10v-401q37 -8 66 -24v-25h-754v25q28 16 66 24v401q-17 2 -33 7.5t-33 16.5v26h210v-26q-26 -15 -54 -24v-406h176v406q-16 5 -31 10.5t-29 13.5v26h204v-26q-8 -6 -20.5 -12t-33.5 -12v-406h176z" />
    <glyph glyph-name="afii10091" unicode="&#x449;" horiz-adv-x="844" 
d="M39 0v25q28 16 66 24v401q-20 4 -36 10t-30 14v26h210v-26q-10 -7 -23.5 -13t-30.5 -11v-406h176v406q-15 4 -30.5 10t-29.5 14v26h204v-26q-11 -8 -25 -14t-29 -10v-406h176v406q-32 9 -54 24v26h210v-26q-14 -8 -30 -13.5t-36 -10.5v-406h89q-1 -48 -4.5 -96.5
t-6.5 -95.5h-26l-45 148h-695z" />
    <glyph glyph-name="afii10092" unicode="&#x44a;" horiz-adv-x="577" 
d="M264 43q14 -1 26.5 -2t26.5 -1q59 0 91.5 29t32.5 91q0 28 -9 47.5t-24.5 31.5t-36 17.5t-42.5 5.5q-34 0 -65 -6v-213zM324 500v-26q-12 -8 -27 -13.5t-33 -10.5v-154q17 2 38.5 5t61.5 3q82 0 128.5 -35t46.5 -110q0 -40 -15 -70.5t-42.5 -51t-65 -31t-82.5 -10.5
q-27 0 -60.5 2t-71.5 2h-94v25q28 16 66 24v407h-78l-44 -120h-26q-5 38 -7.5 82t-3.5 82h309z" />
    <glyph glyph-name="afii10093" unicode="&#x44b;" horiz-adv-x="746" 
d="M195 296q17 2 38 5t61 3q75 0 120.5 -35t45.5 -110q0 -40 -14.5 -70.5t-40.5 -51t-62 -31t-79 -10.5q-27 0 -60.5 2t-71.5 2h-93v25q17 10 33 15t33 9v401q-19 3 -35 9.5t-31 14.5v26h216v-26q-23 -14 -60 -24v-154zM195 43l26 -2t27 -1q113 0 113 120q0 28 -8.5 47.5
t-23 31t-33.5 16.5t-40 5q-14 0 -30 -0.5t-31 -3.5v-213zM707 0h-215v25q14 7 28 13t31 11v401q-38 7 -60 24v26h216v-26q-12 -8 -29 -13.5t-37 -10.5v-401q17 -5 33 -10.5t33 -13.5v-25z" />
    <glyph glyph-name="afii10094" unicode="&#x44c;" horiz-adv-x="508" 
d="M195 296q17 2 38 5t61 3q82 0 129 -35t47 -110q0 -40 -15.5 -70.5t-42.5 -51t-65 -31t-83 -10.5q-27 0 -60.5 2t-71.5 2h-93v25q15 8 32 13.5l34 10.5v401q-19 4 -35 10t-31 14v26h216v-26q-24 -14 -60 -24v-154zM195 43l26 -2t27 -1q58 0 90.5 29t32.5 91q0 28 -9 47.5
t-24 31t-35.5 16.5t-43.5 5q-16 0 -32.5 -0.5t-31.5 -3.5v-213z" />
    <glyph glyph-name="afii10095" unicode="&#x44d;" horiz-adv-x="491" 
d="M219 -12q-57 0 -100.5 17t-72.5 43l18 67h20q13 -14 29 -33.5l31 -38.5q21 -8 62 -8q66 0 106.5 54t41.5 146l-198 -15q-11 27 0 54h198q-2 54 -13.5 91t-31 60t-45 33t-56.5 10q-41 0 -51 -7l-44 -122h-25q-9 28 -16 63t-11 70q27 15 64 27.5t100 12.5q48 0 89 -13
t71.5 -43t47.5 -78t17 -118q0 -71 -19.5 -122.5t-52 -84.5t-74 -49t-85.5 -16z" />
    <glyph glyph-name="afii10096" unicode="&#x44e;" horiz-adv-x="786" 
d="M254 0h-215v25q14 8 31 13.5t35 10.5v401q-17 5 -33 10.5t-33 13.5v26h215v-26q-11 -7 -25 -13t-34 -11v-175h99q6 112 66 174.5t158 62.5q112 0 169.5 -67t57.5 -198q0 -120 -59 -189.5t-168 -69.5q-47 0 -87 14.5t-70 44.5t-47.5 76t-19.5 108h-99v-182q20 -4 34 -10
t25 -14v-25zM388 250q0 -54 11 -94.5t30 -68t44 -41.5t52 -14q65 0 94.5 57.5t29.5 160.5q0 109 -33 163.5t-102 54.5q-59 0 -92.5 -58t-33.5 -160z" />
    <glyph glyph-name="afii10097" unicode="&#x44f;" horiz-adv-x="530" 
d="M64 353q0 34 11 62t34.5 48t60 31.5t88.5 11.5q12 0 33.5 -1t45.5 -2l46.5 -2t35.5 -1h72v-26q-8 -7 -22.5 -13t-43.5 -11v-401q37 -11 66 -24v-25h-215v25q13 8 27.5 13.5t31.5 10.5v169l-73 -10q-21 -35 -47 -84.5t-71 -100.5l-31 -23h-113v25l56 24q45 47 76 93t56 78
q-23 4 -45 13.5t-39.5 26t-28.5 39.5t-11 54zM335 456q-13 2 -33.5 4t-34.5 2q-62 1 -85.5 -28.5t-23.5 -77.5q0 -49 36.5 -80.5t113.5 -31.5h27v212z" />
    <glyph glyph-name="afii10071" unicode="&#x451;" horiz-adv-x="503" 
d="M446 70q-8 -17 -25 -32t-39 -26t-48 -17.5t-53 -6.5q-59 0 -104 18.5t-75 53t-45.5 82.5t-15.5 108q0 128 59 195t167 67q35 0 69 -9.5t60.5 -31.5t43 -58.5t16.5 -90.5q0 -17 -1.5 -34.5t-5.5 -37.5h-312q0 -42 10.5 -78.5t31.5 -63.5t53 -42.5t75 -15.5q35 0 71 10
t54 26zM263 468q-57 0 -87 -38.5t-36 -135.5h220q1 9 1.5 17.5t0.5 16.5q0 64 -24 102t-75 38zM96 663q0 24 15 38.5t39 14.5t39 -14.5t15 -38.5q0 -23 -15 -37t-39 -14t-39 14t-15 37zM318 663q0 24 15 38.5t39 14.5t39 -14.5t15 -38.5q0 -23 -15 -37t-39 -14t-39 14
t-15 37z" />
    <glyph glyph-name="afii10099" unicode="&#x452;" horiz-adv-x="574" 
d="M22 598h68v84l-76 8v26q29 12 67.5 21t73.5 15h25v-154h208v-52h-208v-184h1q21 47 60.5 80t95.5 33q40 0 71.5 -9.5t52.5 -33.5t32 -64.5t11 -102.5v-264q0 -62 -12 -102.5t-35 -64t-56.5 -34t-76.5 -12.5l-5 28q27 8 45 19t29.5 31t16 52t4.5 83v245q0 78 -22 122.5
t-80 44.5q-26 0 -47 -9t-38 -24.5t-29 -35t-18 -40.5v-255q16 -4 30.5 -9t28.5 -15v-25h-215v25q31 16 66 24v497h-68v52z" />
    <glyph glyph-name="afii10100" unicode="&#x453;" horiz-adv-x="431" 
d="M412 500q-1 -39 -3.5 -81t-8.5 -83h-26l-44 120h-135v-407q57 -11 90 -24v-25h-246v25q17 10 33 15t33 9v402q-37 6 -66 23v26h373zM298 767q8 1 21 -0.5t27 -4.5t26 -7.5t18 -9.5v-19l-187 -151l-22 18z" />
    <glyph glyph-name="afii10101" unicode="&#x454;" horiz-adv-x="477" 
d="M438 70q-18 -35 -58.5 -58.5t-94.5 -23.5q-59 0 -104.5 18.5t-76.5 53t-47 83t-16 107.5q0 63 17.5 112t49.5 82t76 50.5t97 17.5q51 0 90 -8.5t66 -22.5q-2 -17 -5 -36t-7 -38t-9.5 -36.5t-11.5 -30.5h-25l-42 119q-7 5 -16.5 7t-30.5 2q-33 0 -60.5 -11t-47.5 -35
t-32 -62.5t-13 -93.5l195 15q11 -27 0 -54h-193q3 -35 17 -66.5t37 -56.5t55 -39.5t72 -14.5q35 0 61 10t44 24z" />
    <glyph glyph-name="afii10102" unicode="&#x455;" horiz-adv-x="433" 
d="M295 114q0 28 -17.5 47.5t-44.5 36.5t-57.5 33t-57.5 37.5t-44.5 49.5t-17.5 69q0 27 12.5 50t33.5 39.5t49 26t60 9.5q54 0 88.5 -6t66.5 -17q-4 -32 -9.5 -64.5t-15.5 -66.5h-25l-38 102q-12 5 -27 6.5t-31 1.5q-18 0 -31.5 -6.5t-23 -16.5t-14.5 -23t-5 -26
q0 -27 17.5 -46.5t44.5 -36t57.5 -32.5t57.5 -36t44.5 -46.5t17.5 -63.5q0 -34 -14.5 -61t-40 -46t-59 -29.5t-71.5 -10.5q-43 0 -79 7.5t-75 21.5q2 36 9 69.5t18 64.5h25l44 -109q11 -8 26.5 -9t28.5 -1q44 0 71 24t27 58z" />
    <glyph glyph-name="afii10103" unicode="&#x456;" horiz-adv-x="301" 
d="M263 0h-222v25q15 8 31 13.5t35 10.5v393l-66 8v26q29 12 63 21t68 15h25v-463q20 -5 36 -10.5t30 -13.5v-25zM88 670q0 27 17.5 43t46.5 16t46 -16t17 -43t-17 -42.5t-46 -15.5t-46.5 15.5t-17.5 42.5z" />
    <glyph glyph-name="afii10104" unicode="&#x457;" horiz-adv-x="348" 
d="M39 668q0 26 15 42.5t39 16.5t38.5 -16.5t14.5 -42.5q0 -25 -14.5 -40.5t-38.5 -15.5t-39 15.5t-15 40.5zM201 668q0 26 14.5 42.5t39.5 16.5q24 0 38.5 -16.5t14.5 -42.5q0 -25 -14.5 -40.5t-38.5 -15.5q-25 0 -39.5 15.5t-14.5 40.5zM286 0h-222v25q15 8 31 13.5
t35 10.5v393l-66 8v26q29 12 63 21t68 15h25v-463q20 -5 36 -10.5t30 -13.5v-25z" />
    <glyph glyph-name="afii10105" unicode="&#x458;" horiz-adv-x="288" 
d="M106 442l-66 8v26q29 14 63.5 22.5t67.5 13.5h25v-469q0 -71 -18 -118t-42 -76t-49 -43t-40 -18l-12 19q12 6 24.5 21t23 41.5t17 64.5t6.5 90v418zM86 670q0 27 17.5 43t46.5 16t46 -16t17 -43t-17 -42.5t-46 -15.5t-46.5 15.5t-17.5 42.5z" />
    <glyph glyph-name="afii10106" unicode="&#x459;" horiz-adv-x="741" 
d="M504 474q-11 -7 -29 -13t-37 -11v-154q17 2 38 5t61 3q76 0 121 -35t45 -110q0 -40 -14.5 -70.5t-40 -51t-62 -31t-79.5 -10.5q-27 0 -60.5 2t-71.5 2h-86v25q24 17 59 24v407h-132q-1 -53 -6 -112.5t-15 -117t-26 -108t-39 -84.5q-19 -29 -41 -40.5t-41 -7.5
q-15 17 -28.5 44.5t-15.5 50.5l14 25l85 -20q14 24 25 64t18.5 88t11.5 100.5t4 101.5q-20 6 -36.5 15t-30.5 19v26h409v-26zM438 43l27 -2t26 -1q59 0 86.5 29.5t27.5 90.5q0 28 -9 47.5t-23.5 31t-33.5 16.5t-40 5q-14 0 -29.5 -0.5t-31.5 -3.5v-213z" />
    <glyph glyph-name="afii10107" unicode="&#x45a;" horiz-adv-x="810" 
d="M357 25q25 18 60 24v182h-222v-182q20 -4 34 -10t25 -14v-25h-215v25q14 8 31 13.5t35 10.5v401q-18 5 -35 10.5t-31 13.5v26h215v-26q-23 -14 -59 -24v-175h222v175q-35 6 -60 24v26h216v-26q-11 -7 -29 -13t-37 -11v-154q17 2 38 5t61 3q75 0 120.5 -35t45.5 -110
q0 -40 -14.5 -70.5t-40.5 -51t-62 -31t-79 -10.5q-27 0 -60.5 2t-71.5 2h-87v25zM507 43l26 -2t27 -1q113 0 113 120q0 28 -8.5 47.5t-23 31.5t-33.5 17.5t-40 5.5q-14 0 -30 -1.5t-31 -4.5v-213z" />
    <glyph glyph-name="afii10108" unicode="&#x45b;" horiz-adv-x="584" 
d="M22 598h68v84l-76 8v26q29 12 67.5 21t73.5 15h25v-154h208v-52h-208v-184h1q21 47 60.5 80t95.5 33q40 0 71.5 -9.5t52.5 -33.5t32 -64.5t11 -102.5v-207l63 -9v-21q-29 -13 -63 -23t-65 -15h-25v256q0 78 -22 122.5t-80 44.5q-26 0 -47 -9.5t-38 -24.5t-29 -34.5
t-18 -40.5v-255q16 -4 30.5 -9t28.5 -15v-25h-215v25q31 16 66 24v497h-68v52z" />
    <glyph glyph-name="afii10109" unicode="&#x45c;" horiz-adv-x="541" 
d="M325 500h193v-26q-10 -8 -26.5 -14t-40.5 -14l-72 -83t-80 -84l46.5 -53l49.5 -60l50 -61t49 -56l47 -24v-25h-117l-32 23q-45 54 -82 108l-75 106h-40v-188q20 -5 36.5 -10.5t28.5 -13.5v-25h-221v25q27 16 66 24v401q-35 7 -66 24v26h205v-26q-10 -7 -21.5 -13
t-27.5 -11v-187l46 10l76 86t67 87l-31.5 13.5t-27.5 14.5v26zM343 767q8 1 21 -0.5t27 -4.5t26 -7.5t18 -9.5v-19l-187 -151l-22 18z" />
    <glyph glyph-name="afii10110" unicode="&#x45e;" horiz-adv-x="505" 
d="M42 450q-15 4 -27.5 10t-25.5 14v26h209v-25q-21 -14 -57 -25l128 -296l19 -62h2l15 63l95 295q-30 6 -55 24v26h171v-26q-21 -14 -57 -24l-156 -450q-24 -64 -45.5 -103.5t-43 -62.5t-44 -33.5t-48.5 -15.5q-11 19 -19.5 42t-14.5 44l13 24h104q6 8 10.5 15.5t9.5 18.5
t11 28t14 43zM272 560q-50 0 -82 10.5t-51 27.5t-26.5 39.5t-7.5 45.5q16 13 35 19t40 8l25 -13v-89q14 -6 33 -8.5t35 -2.5q10 0 32 2t36 6v92l25 13q21 -2 39.5 -9t30.5 -18q0 -23 -8 -45.5t-26.5 -39.5t-50 -27.5t-79.5 -10.5z" />
    <glyph glyph-name="afii10193" unicode="&#x45f;" horiz-adv-x="602" 
d="M254 474q-11 -6 -25 -12t-34 -12v-406h212v406q-22 5 -36 11t-24 13v26h216v-26q-32 -18 -66 -24v-401q21 -2 37 -9t29 -15v-25h-218q-6 -47 -13 -90t-18 -91h-26q-10 49 -16.5 91.5t-14.5 89.5h-218v25q11 7 28 13t38 11v401q-15 2 -31 7.5t-35 16.5v26h215v-26z" />
    <glyph glyph-name="afii10146" unicode="&#x462;" horiz-adv-x="713" 
d="M323 565v-159q18 3 44.5 5t46.5 2q49 0 96 -8t83.5 -30.5t58.5 -61.5t22 -100q0 -59 -23 -100t-61.5 -67t-88 -37.5t-102.5 -11.5q-5 0 -19.5 0.5t-33 1l-38.5 1t-35 0.5h-128v29q39 18 82 24v512h-128l-52 -142h-26q-3 20 -4.5 45.5l-3 52t-2.5 51.5t-1 45h217v51
q-20 4 -41 10t-41 15v28h267v-28q-19 -8 -41.5 -14.5t-47.5 -10.5v-51h256q-1 -39 -4 -85t-8 -87h-25l-52 120h-167zM392 361q-24 0 -39.5 -0.5t-29.5 -4.5v-303q5 -2 14.5 -2.5t20.5 -1t21 -0.5h16q35 0 66 9t54.5 28.5t37.5 50.5t14 76q0 81 -47 114.5t-128 33.5z" />
    <glyph glyph-name="afii10194" unicode="&#x463;" horiz-adv-x="584" 
d="M271 456v-160q17 2 38 5t61 3q82 0 129 -35t47 -110q0 -40 -15.5 -70.5t-42.5 -51t-65 -31t-83 -10.5q-27 0 -60.5 2t-71.5 2h-93v25q15 8 32 13.5l34 10.5v407h-84l-44 -120h-26q-5 43 -8 84.5t-4 79.5h166v182l-76 8v26q26 12 65 21t76 15h25v-252h185
q2 -36 -1.5 -67.5l-8.5 -73.5h-26l-56 97h-93zM271 43l26 -2t27 -1q58 0 90.5 29t32.5 91q0 28 -9 47t-24 31t-35.5 17t-43.5 5q-16 0 -32.5 -1t-31.5 -4v-212z" />
    <glyph glyph-name="afii10147" unicode="&#x472;" horiz-adv-x="740" 
d="M53 350q0 78 21.5 144.5t62 115t99.5 75.5t134 27t134 -27t99.5 -75.5t62 -115t21.5 -144.5t-21.5 -144.5t-62 -115t-99.5 -75.5t-134 -27t-134 27t-99.5 75.5t-62 115t-21.5 144.5zM379 40q49 0 86.5 23t62.5 62.5t38 93t15 114.5q-27 -29 -58 -41.5t-54 -12.5
q-27 0 -52.5 11t-50.5 23.5t-50.5 23.5t-51.5 11q-21 0 -50 -8t-54 -35q4 -56 20 -104.5t43.5 -84t66 -56t89.5 -20.5zM362 660q-56 0 -94.5 -25t-62.5 -68t-35 -100.5t-11 -122.5q23 28 47.5 44.5t47.5 24.5q21 7 42 7q27 0 51.5 -11t48.5 -23.5t48 -23t50 -10.5
q17 0 41.5 2.5t44.5 16.5q-2 60 -16 113t-41 92t-67 61.5t-94 22.5z" />
    <glyph glyph-name="afii10195" unicode="&#x473;" horiz-adv-x="553" 
d="M41 250q0 63 16.5 111.5t47.5 82t74.5 51t96.5 17.5q62 0 107 -19t73.5 -53.5t42 -82.5t13.5 -107q0 -126 -64 -194t-172 -68q-60 0 -104 18.5t-73 53t-43.5 83t-14.5 107.5zM357 266q11 0 27 5t30 15q-3 39 -13 72.5t-28 57.5t-44 38t-61 14q-58 0 -94 -50t-38 -155
q30 23 56 31t46 8q18 0 33 -5.5t29 -12.5t28 -12.5t29 -5.5zM195 244q-11 0 -27.5 -7t-30.5 -18q2 -40 12 -74.5t29 -59.5t47.5 -39t67.5 -14q53 0 87.5 52t35.5 161q-27 -22 -51.5 -31t-46.5 -9q-18 0 -33.5 6t-30.5 13.5t-29.5 13.5t-29.5 6z" />
    <glyph glyph-name="afii10148" unicode="&#x474;" horiz-adv-x="700" 
d="M661 712q10 -4 20.5 -18t18.5 -32t13 -37t5 -32l-16 -24l-96 27q-32 -46 -67.5 -115.5t-68.5 -151t-60 -170t-42 -171.5h-39l-253 658q-20 5 -39 11.5t-37 13.5v29h265v-29q-17 -7 -38 -13.5t-44 -11.5l155 -430l22 -80h2l13 80q19 71 45 141.5t55.5 132t59 110.5
t54.5 77q17 19 35 26t37 9z" />
    <glyph glyph-name="afii10196" unicode="&#x475;" horiz-adv-x="511" 
d="M283 0l-45 -12l-195 462q-29 10 -53 24v26h209v-25q-13 -7 -26.5 -13.5t-30.5 -11.5l116 -301l14 -53h2l10 60q19 79 46 160t69 145q19 29 43.5 40.5t43.5 7.5q9 -7 16.5 -18t13.5 -24t10 -27t5 -26l-15 -26l-84 21q-14 -23 -28 -53.5t-26.5 -62.5t-23 -63.5l-18.5 -56.5
z" />
    <glyph glyph-name="uni048A" unicode="&#x48a;" horiz-adv-x="742" 
d="M282 0h-253v29q40 18 82 24v593q-20 5 -41 11t-41 14v29h253v-29q-16 -8 -34 -14t-41 -11v-434l-11 -75l48 79l293 406v24q-23 5 -43.5 11.5t-37.5 13.5v29h254v-29q-18 -8 -39 -14t-43 -11v-594h110l8 -7q-4 -19 -15 -44.5t-25 -52.5t-30 -53.5t-30 -45.5h-27l29 151
h-192v29q16 7 35 13.5t41 10.5v433l10 75l-44 -75l-297 -411v-22q23 -4 43.5 -10t37.5 -14v-29zM370 732q-92 0 -134.5 36.5t-42.5 90.5q11 11 32.5 16t42.5 6l25 -13v-85q14 -7 34.5 -10.5t43.5 -3.5q17 0 40.5 3t37.5 8v88l25 13q16 1 37 -5.5t34 -16.5q0 -27 -10 -50
t-31 -40t-54 -27t-80 -10z" />
    <glyph glyph-name="uni048B" unicode="&#x48b;" horiz-adv-x="620" 
d="M39 500h212v-26q-11 -6 -25.5 -12t-34.5 -12v-274l-11 -93h5l39 75l214 342h135v-26q-32 -18 -66 -24v-406h95l5 -8q-5 -24 -16 -52t-24.5 -54t-27 -47t-22.5 -31h-27l27 148h-156v25q28 16 60 24v286l10 79h-5l-38 -75l-212 -339h-137v25q17 8 33 13.5t33 10.5v401
q-39 6 -66 24v26zM317 560q-50 0 -82 10.5t-51 27.5t-26.5 39.5t-7.5 45.5q16 12 35.5 18.5t39.5 8.5l25 -13v-89q14 -6 33 -8.5t35 -2.5q10 0 32 2t36 6v92l25 13q20 -3 39 -10t31 -17q0 -23 -8 -45.5t-26.5 -39.5t-50 -27.5t-79.5 -10.5z" />
    <glyph glyph-name="uni048C" unicode="&#x48c;" horiz-adv-x="626" 
d="M10 568h130v78q-20 4 -41 10.5t-41 14.5v29h267v-29q-19 -8 -41.5 -14.5t-47.5 -10.5v-78h193v-52h-193v-99q18 2 44.5 4.5t46.5 2.5q49 0 96 -9t83.5 -32t58.5 -63t22 -102q0 -59 -23 -100.5t-61.5 -68.5t-88 -39.5t-102.5 -12.5q-5 0 -19.5 0.5t-33 1l-38.5 1t-35 0.5
h-128v29q39 18 82 24v463h-130v52zM305 372q-24 0 -39.5 -0.5t-29.5 -4.5v-314q5 -2 14.5 -2.5t20.5 -1t21 -0.5h16q35 0 66 10t54.5 30.5t37.5 52.5t14 77q0 81 -47 117t-128 36z" />
    <glyph glyph-name="uni048D" unicode="&#x48d;" horiz-adv-x="498" 
d="M2 500h103v182l-76 8v26q28 13 67.5 21l73.5 15h25v-252h144v-52h-144v-152q17 2 38 5t61 3q75 0 120.5 -35t45.5 -110q0 -40 -14.5 -70.5t-40.5 -51t-62 -31t-79 -10.5q-27 0 -60.5 2t-71.5 2h-93v25q17 10 33 15t33 9v399h-103v52zM195 43l26 -2t27 -1q113 0 113 120
q0 28 -8.5 47.5t-23 31t-33.5 16.5t-40 5q-14 0 -30 -0.5t-31 -3.5v-213z" />
    <glyph glyph-name="uni048E" unicode="&#x48e;" horiz-adv-x="596" 
d="M207 53q27 -3 51 -9.5t45 -14.5v-29h-274v29q20 10 41 15t41 9v593q-23 4 -43 10.5t-39 14.5v29h88q42 0 88.5 4t90.5 4q49 0 96 -10.5t83.5 -35.5t59 -66.5t22.5 -103.5q0 -77 -38 -124.5t-96 -71.5l51 -80l-47 -29l-58 93q-40 -10 -87 -10h-15.5t-22 0.5t-22 1.5
t-15.5 2v-221zM275 656q-24 0 -39 -1t-29 -4v-324q5 -2 14.5 -2.5t20 -1.5t20.5 -1h16q33 0 62 9l-71 112l45 27l72 -118q29 20 46.5 54.5t17.5 85.5q0 82 -46.5 123t-128.5 41z" />
    <glyph glyph-name="uni048F" unicode="&#x48f;" horiz-adv-x="566" 
d="M253 -200h-222v25q34 16 66 24v593l-66 8v26q32 14 71 25t71 11h14v-112q21 50 56 80.5t93 31.5q11 0 21.5 -1t20.5 -3q70 -12 108.5 -71t38.5 -176q0 -91 -33 -154t-91 -93l63 -91l-44 -27l-70 100q-15 -4 -30 -6t-32 -2q-35 0 -56 4.5t-45 15.5v-159q16 -2 32 -7.5
t34 -16.5v-25zM306 450q-50 0 -79 -31.5t-40 -86.5v-278q18 -11 40.5 -16.5t58.5 -5.5q10 0 19.5 1t17.5 4l-62 90l41 29l63 -92q30 30 47 81t17 116q0 41 -6.5 75.5t-21 60t-38 39.5t-57.5 14z" />
    <glyph glyph-name="afii10050" unicode="&#x490;" horiz-adv-x="506" 
d="M207 53q49 -8 96 -24v-29h-274v29q40 16 82 24v593q-20 4 -41 10.5t-41 14.5v29h380l53 136h26q3 -21 4.5 -45.5t2 -50l1 -49.5t0.5 -43h-289v-595z" />
    <glyph glyph-name="afii10098" unicode="&#x491;" horiz-adv-x="410" 
d="M329 500q1 1 1 4l44 117h26q5 -42 7.5 -84t3.5 -81h-216v-407q57 -11 90 -24v-25h-246v25q17 10 33 15t33 9v402q-37 6 -66 23v26h290z" />
    <glyph glyph-name="uni0492" unicode="&#x492;" horiz-adv-x="543" 
d="M39 382h89v264q-20 4 -41 10.5t-41 14.5v29h468q0 -20 -1 -46l-2 -54t-3 -54.5t-5 -47.5h-26l-52 150h-201v-266h150v-52h-150v-277q49 -8 96 -24v-29h-274v29q40 16 82 24v277h-89v52z" />
    <glyph glyph-name="uni0493" unicode="&#x493;" horiz-adv-x="430" 
d="M412 500q-1 -39 -3.5 -81t-8.5 -83h-26l-44 120h-135v-185h112v-52h-112v-170q57 -11 90 -24v-25h-246v25q17 10 33 15t33 9v170h-74v52h74v180q-37 6 -66 23v26h373z" />
    <glyph glyph-name="uni0494" unicode="&#x494;" horiz-adv-x="610" 
d="M207 368q27 15 68 30t98 15q47 0 84 -11.5t62.5 -38t38.5 -68t13 -101.5q0 -71 -9.5 -125t-34.5 -91.5t-67.5 -59.5t-109.5 -28l-6 27q46 16 72.5 39.5t40 56t16.5 75t2 97.5q-2 90 -31.5 133t-98.5 43q-42 0 -76 -12t-62 -29v-267q51 -8 94 -24v-29h-272v29q41 17 82 24
v593q-20 4 -41 10.5t-41 14.5v29h468q0 -20 -0.5 -46t-2 -53t-3.5 -54t-5 -48h-26l-52 149h-201v-280z" />
    <glyph glyph-name="uni0495" unicode="&#x495;" horiz-adv-x="548" 
d="M412 500q-1 -39 -3.5 -79.5t-7.5 -81.5h-26l-45 117h-135v-234q24 26 57 42t83 16q68 0 105.5 -38t37.5 -103v-138q0 -62 -12 -102.5t-34.5 -64t-55.5 -34t-76 -12.5l-5 28q27 8 45 19t28.5 31t15 52t4.5 83v118q0 47 -20.5 75.5t-67.5 28.5q-28 0 -54.5 -8.5
t-50.5 -22.5v-143q55 -9 88 -24v-25h-244v25q17 10 33 15t33 9v402q-37 6 -66 23v26h373z" />
    <glyph glyph-name="uni0496" unicode="&#x496;" horiz-adv-x="980" 
d="M424 646q-21 6 -39 12t-32 13v29h231v-29q-22 -11 -64 -25v-277l68 14l168 263q-20 6 -37.5 12.5l-34.5 12.5v29h220v-29q-18 -8 -37 -14t-38 -11l-182 -266l54 -73.5l60.5 -84l66 -87.5t70.5 -83h78q0 -20 -2 -46.5t-5 -55t-6.5 -55t-7.5 -46.5h-25l-42 151h-66l-34 25
q-59 69 -107.5 148.5l-102.5 161.5h-58v-282q17 -5 33 -10.5t31 -13.5v-29h-232v29q30 16 72 24v291l-60 -15l-100 -158.5t-105 -145.5l-34 -25h-125v25l47 24q37 40 72 83l67 85l60 81.5l51 72.5l-188 275q-41 12 -71 25v29h221v-29q-14 -7 -31 -13.5t-37 -11.5l169 -269
h64v269z" />
    <glyph glyph-name="uni0497" unicode="&#x497;" horiz-adv-x="748" 
d="M588 23q-17 23 -37 53.5l-38.5 61.5l-35 57.5l-25.5 41.5h-48v-188q31 -8 60 -24v-25h-201v25q14 7 27.5 13t28.5 11v194l-54 -10q-9 -14 -24 -41l-33 -58l-37 -61t-37 -50l-30 -23h-104v25l46 24q25 29 48.5 61l44.5 62l39 56.5t32 44.5q-38 43 -73.5 87.5t-67.5 89.5
q-26 6 -50 24v26h173v-26q-19 -14 -50 -24q27 -48 59 -90.5l67 -90.5h51v181q-33 7 -56 24v26h194v-26q-10 -8 -22.5 -14t-30.5 -10v-187l55 10l63.5 88.5t56.5 88.5q-14 5 -26 10t-24 14v26h173v-26q-17 -12 -57 -24q-32 -44 -66.5 -86l-67.5 -84l34 -46l45 -60.5l50 -66.5
l50 -64h58q-2 -48 -4.5 -95.5t-6.5 -95.5h-25l-45 148h-51z" />
    <glyph glyph-name="uni0498" unicode="&#x498;" horiz-adv-x="554" 
d="M502 199q0 -47 -16 -83t-44 -61.5t-65.5 -41t-79.5 -21.5q-12 -90 -33 -183h-26l-16 90.5t-15 89.5q-47 3 -88 13.5t-69 24.5q0 16 2 36.5t5.5 43t8 45t9.5 42.5h26l42 -140q6 -3 17 -5.5t24.5 -5t28 -3.5t27.5 -1q37 0 67.5 12t52.5 33t34 49t12 61q0 40 -12.5 67
t-33.5 43.5t-48.5 23.5t-57.5 7l-77 -11q-7 31 -1 58h32q17 0 41 1.5t40 3.5q46 16 70.5 51.5t24.5 83.5q0 66 -37.5 102t-103.5 36q-33 0 -52.5 -5.5t-26.5 -13.5l-52 -122h-26q-5 27 -8.5 69t-2.5 83q15 12 36.5 19.5t44.5 12.5t47.5 7t45.5 2q40 0 81 -7t74.5 -26.5
t54.5 -53t21 -85.5q0 -51 -29.5 -95.5t-93.5 -69.5v-4q30 -5 56.5 -17.5t46 -33t31 -50.5t11.5 -71z" />
    <glyph glyph-name="uni0499" unicode="&#x499;" horiz-adv-x="474" 
d="M205 35q31 0 53.5 10t36.5 26t21 36.5t7 41.5q0 48 -20.5 65t-55.5 23l-94 -15q-4 13 -4.5 27t4.5 27h102q9 4 18.5 12.5t18 21t14 29.5t5.5 38q0 48 -26.5 69.5t-69.5 21.5q-20 0 -36.5 -2.5t-21.5 -4.5l-45 -113h-25q-11 33 -16 66t-6 65q20 11 61 22t105 11
q81 0 125.5 -29.5t44.5 -87.5q0 -24 -10 -44t-25.5 -36t-35 -27t-38.5 -17q55 -5 92 -35.5t37 -86.5q0 -70 -43 -110t-115 -48q-6 -45 -12 -85t-17 -86h-26q-9 46 -15.5 86l-13.5 84q-43 5 -76.5 20.5t-56.5 37.5l18 67h20q13 -14 29 -33.5l32 -38.5q21 -8 60 -8z" />
    <glyph glyph-name="uni049A" unicode="&#x49a;" horiz-adv-x="676" 
d="M382 700h221v-29q-20 -9 -39 -15t-37 -10l-201 -266l56.5 -73.5l67 -84l73 -87.5l73.5 -84h76q0 -20 -2 -46.5t-5 -54.5t-6.5 -54.5t-7.5 -46.5h-25l-42 151h-63l-34 24q-59 69 -117.5 149l-113.5 162h-49v-282q46 -8 75 -24v-29h-253v29q40 16 82 24v593q-45 6 -82 25
v29h253v-29q-16 -7 -35 -13.5t-40 -11.5v-277l60 14l187 263q-20 5 -38 11t-34 14v29z" />
    <glyph glyph-name="uni049B" unicode="&#x49b;" horiz-adv-x="554" 
d="M392 23q-45 54 -82 108l-75 106h-40v-188q20 -5 36.5 -10.5t28.5 -13.5v-25h-221v25q27 16 66 24v401q-35 7 -66 24v26h205v-26q-10 -7 -21.5 -13t-27.5 -11v-187l46 10l76 86t67 87l-31.5 13.5t-27.5 14.5v26h193v-26q-10 -8 -26.5 -14t-40.5 -14l-72 -83t-80 -84
l47.5 -54l51.5 -62l52.5 -63l50.5 -57h54q-2 -48 -5 -95.5l-6 -95.5h-26l-45 148h-49z" />
    <glyph glyph-name="uni049C" unicode="&#x49c;" horiz-adv-x="713" 
d="M450 700h220v-29q-20 -9 -39 -15t-37 -10l-200 -265l57 -74l67.5 -85l73 -88.5l73.5 -84.5l48 -24v-25h-125l-34 24q-59 69 -117 150l-112 163h-20v-155h-51v155h-47v-284q46 -8 75 -24v-29h-253v29q40 16 82 24v593q-45 6 -82 25v29h253v-29q-16 -7 -35 -13.5t-40 -11.5
v-278l47 5v161h51v-156l30 4l187 264q-20 5 -38 11t-34 14v29z" />
    <glyph glyph-name="uni049D" unicode="&#x49d;" horiz-adv-x="632" 
d="M416 500h193v-26q-10 -8 -27.5 -15.5t-39.5 -12.5l-72 -83t-80 -84l46.5 -53l49.5 -60l50 -61t49 -56l47 -24v-25h-117l-32 23q-45 54 -82 108l-75 106h-24v-125h-48v125h-59v-188q20 -5 36.5 -10.5t28.5 -13.5v-25h-221v25q27 16 66 24v401q-35 7 -66 24v26h205v-26
q-10 -7 -21.5 -13t-27.5 -11v-187l59 4v139h48v-135l30 2l76 86t67 87l-31.5 13.5t-27.5 14.5v26z" />
    <glyph glyph-name="uni049E" unicode="&#x49e;" horiz-adv-x="668" 
d="M10 581h124v65q-47 6 -82 25v29h253v-29q-16 -7 -35 -13.5t-40 -11.5v-65h110v-48h-110v-164l65 14l186 263q-20 5 -37.5 11t-34.5 14v29h221v-29q-20 -9 -39.5 -15t-37.5 -10l-199 -265l56.5 -74l66 -85l71 -88.5l72.5 -84.5l48 -24v-25h-125l-34 24q-59 69 -115 149
l-110 162h-54v-282q46 -8 75 -24v-29h-253v29q40 16 82 24v480h-124v48z" />
    <glyph glyph-name="uni049F" unicode="&#x49f;" horiz-adv-x="516" 
d="M3 623h87v59l-76 8v26q28 13 67 21l74 15h25v-129h157v-52h-157v-297h26l35 40l38 45.5l37 46.5l33 44q-25 7 -49 24v26h193v-26q-19 -8 -37.5 -14t-38.5 -10q-15 -20 -34.5 -43l-39.5 -46l-38.5 -43l-31.5 -33l36.5 -48.5l46.5 -60.5l51.5 -65t52.5 -62l56 -24v-25h-124
l-27 24q-53 66 -88 117.5l-64 96.5l-33 10v-199q33 -6 65 -24v-25h-221v25q33 16 66 24v522h-87v52z" />
    <glyph glyph-name="uni04A0" unicode="&#x4a0;" horiz-adv-x="762" 
d="M498 700h221v-29q-20 -9 -39.5 -15t-37.5 -10l-200 -265l57.5 -74l68 -85l73 -88.5l73.5 -84.5l48 -24v-25h-125l-34 24q-59 69 -117.5 149t-112.5 162h-50v-282q45 -8 76 -24v-29h-254v29q40 16 82 24v595h-129l-51 -141h-26q-3 21 -5 46.5t-3 51.5l-2 50.5t-1 44.5h389
v-29q-17 -7 -36 -13.5t-40 -11.5v-277l60 14l187 263q-20 5 -37.5 11t-34.5 14v29z" />
    <glyph glyph-name="uni04A1" unicode="&#x4a1;" horiz-adv-x="611" 
d="M315 500v-26q-20 -14 -50 -24v-187l46 10l75.5 83t68.5 90l-32 13.5t-28 14.5v26h193v-26q-10 -8 -26 -14t-40 -14q-34 -41 -72.5 -83l-80.5 -84l46.5 -53l50 -60l50.5 -61t49 -56l46 -24v-25h-116l-32 23q-45 54 -82.5 108l-75.5 106h-40v-188q41 -9 65 -24v-25h-221v25
q27 16 66 24v407h-79l-44 -110h-25q-5 38 -8 77t-4 77h300z" />
    <glyph glyph-name="uni04A2" unicode="&#x4a2;" horiz-adv-x="743" 
d="M282 0h-253v29q40 16 82 24v593q-47 7 -82 25v29h253v-29q-17 -9 -36 -15t-39 -10v-261h314v261q-21 5 -39.5 11t-35.5 14v29h253v-29q-18 -10 -39.5 -15.5t-42.5 -9.5v-594h110q0 -20 -2 -46.5t-5 -55t-6.5 -55t-6.5 -46.5h-26l-42 151h-193v29q36 16 75 24v280h-314
v-280q20 -4 39 -10t36 -14v-29z" />
    <glyph glyph-name="uni04A3" unicode="&#x4a3;" horiz-adv-x="613" 
d="M254 0h-215v25q14 8 31 13.5t35 10.5v401q-18 5 -35 10.5t-31 13.5v26h215v-26q-23 -14 -59 -24v-175h222v175q-35 6 -60 24v26h216v-26q-27 -17 -66 -24v-407h79q-2 -48 -4.5 -95.5t-6.5 -95.5h-25l-45 148h-148v25q25 18 60 24v182h-222v-182q20 -4 34 -10t25 -14v-25z
" />
    <glyph glyph-name="uni04A4" unicode="&#x4a4;" horiz-adv-x="917" 
d="M617 53q52 -8 96 -24v-29h-267v29q17 9 37.5 12.5t37.5 11.5v280h-314v-280q20 -4 39 -10t36 -14v-29h-253v29q40 16 82 24v593q-47 7 -82 25v29h253v-29q-17 -9 -36 -15t-39 -10v-261h314v261q-8 1 -19 3.5t-22 6t-20.5 7t-13.5 8.5v29h461q0 -20 -0.5 -46t-2 -54
l-3 -54.5t-4.5 -47.5h-26l-52 150h-202v-595z" />
    <glyph glyph-name="uni04A5" unicode="&#x4a5;" horiz-adv-x="743" 
d="M357 0v25q25 18 60 24v182h-222v-182q20 -4 34 -10t25 -14v-25h-215v25q14 8 31 13.5t35 10.5v401q-18 5 -35 10.5t-31 13.5v26h215v-26q-23 -14 -59 -24v-175h222v175q-35 6 -60 24v26h367q-1 -39 -3.5 -81t-8.5 -83h-26l-44 120h-135v-407q57 -11 90 -24v-25h-240z" />
    <glyph glyph-name="uni04A6" unicode="&#x4a6;" horiz-adv-x="1010" 
d="M282 0h-253v29q15 8 35 14t47 10v593q-20 4 -41 10.5t-41 14.5v29h660v-29q-19 -10 -40 -15.5t-42 -9.5v-278q27 15 68 30t98 15q47 0 84 -11.5t62.5 -38t38.5 -68t13 -101.5q0 -71 -9.5 -125t-34.5 -91.5t-67.5 -59.5t-109.5 -28l-6 27q45 16 72 39.5t40.5 56t16.5 75
t2 97.5q-2 89 -32 132.5t-97 43.5q-42 0 -76.5 -12t-62.5 -29v-267q41 -5 81 -24v-29h-252v29q22 14 75 24v595h-304v-595q39 -8 75 -24v-29z" />
    <glyph glyph-name="uni04A7" unicode="&#x4a7;" horiz-adv-x="872" 
d="M730 114q0 78 -22 122t-80 44q-50 0 -79 -27.5t-43 -67.5v-136q34 -6 66 -24v-25h-215v25q10 7 23.5 13t35.5 11v407h-221v-407q20 -6 34 -12t25 -12v-25h-215v25q19 11 35 16.5t31 7.5v401q-21 5 -38 11t-28 13v26h533v-26q-13 -8 -29 -15t-37 -9v-210q9 19 22.5 37.5
t32 32.5t41.5 23t50 9q41 0 72.5 -10t52.5 -34t32 -64.5t11 -102.5v-100q0 -125 -47 -181.5t-133 -61.5l-5 28q27 8 45 23.5t29.5 41t16 62.5t4.5 88v83z" />
    <glyph glyph-name="uni04A8" unicode="&#x4a8;" horiz-adv-x="845" 
d="M777 63q-11 -33 -43.5 -54t-82.5 -21q-35 0 -68 11.5t-52 25.5q-15 -13 -49.5 -25t-79.5 -12q-77 0 -141.5 27t-110.5 75.5t-71.5 115t-25.5 144.5q0 73 21.5 138.5t61 115t96 79t126.5 29.5q32 0 56.5 -11t35.5 -30l-8 -18q-9 4 -25 5.5t-24 1.5q-55 0 -98 -24t-73 -66
t-46 -98.5t-16 -122.5q0 -64 18.5 -120.5t53 -98.5t84.5 -66t113 -24q20 0 31 1.5t25 8.5q-32 16 -63 44.5t-55.5 68t-39.5 88.5t-15 107q0 64 20 119t54 95t79 62.5t94 22.5q44 0 86 -18.5t75 -56t53 -93.5t20 -132q0 -60 -20 -110.5t-49.5 -89.5t-63.5 -65.5t-63 -38.5
q10 -5 26.5 -9.5t32.5 -4.5q35 0 60.5 9t48.5 29zM419 350q0 -49 11 -91.5t29 -77t41.5 -61t48.5 -43.5q31 17 56.5 46t43.5 66t27.5 80.5t9.5 90.5q0 53 -7.5 98t-23 77.5t-39 51t-55.5 18.5q-37 0 -64 -20t-44 -54.5t-25.5 -81t-8.5 -99.5z" />
    <glyph glyph-name="uni04A9" unicode="&#x4a9;" horiz-adv-x="659" 
d="M630 32q-5 -12 -14.5 -20.5t-21 -13.5t-24 -7.5t-22.5 -2.5q-29 0 -60 5.5t-48 18.5q-26 -12 -57 -18t-57 -6q-60 0 -112.5 18.5t-90.5 53t-60 83t-22 107.5q0 54 18.5 101.5t50.5 83.5t75 56.5t92 20.5q31 0 52 -10t21 -33l-5 -7q-11 3 -25 4.5t-25 1.5q-36 -1 -65 -17
t-49 -44.5t-31 -68.5t-11 -88q0 -45 14.5 -85t40.5 -69.5t62 -46.5t79 -17q17 0 36 1.5t27 4.5q-29 8 -55.5 28t-46.5 47.5t-31.5 60t-11.5 65.5q0 58 16.5 99t43.5 67t62 38.5t72 12.5q29 0 60.5 -11.5t57.5 -36t42.5 -63t16.5 -92.5q0 -38 -13.5 -73.5t-34.5 -64
t-46.5 -49t-50.5 -29.5q7 -2 18 -3.5t23.5 -2.5t24 -1h19.5q33 0 59 14zM349 242q0 -63 22 -112.5t64 -73.5q18 10 35 29t30 45.5t20.5 59.5t7.5 71q0 28 -4.5 55.5t-15 48.5t-27 34t-41.5 13q-45 0 -68 -47.5t-23 -122.5z" />
    <glyph glyph-name="uni04AA" unicode="&#x4aa;" horiz-adv-x="644" 
d="M547 182h26q5 -28 9 -70.5t2 -82.5q-28 -22 -72.5 -30.5t-86.5 -10.5q-5 -44 -13 -88.5t-19 -90.5h-26q-9 47 -16.5 93l-15.5 91q-134 17 -208 103.5t-74 253.5q0 98 27 166.5t73 112t107 63.5t128 20q66 0 111 -8.5t79 -25.5q0 -16 -1 -37.5t-3 -45.5t-5 -47t-6 -42h-26
l-52 144q-11 6 -36.5 8t-50.5 2q-50 0 -94.5 -18.5t-78 -57t-53.5 -97t-20 -137.5q0 -71 18 -128.5t52 -98t83 -62t111 -21.5q33 0 55 5t29 13z" />
    <glyph glyph-name="uni04AB" unicode="&#x4ab;" horiz-adv-x="466" 
d="M427 70q-17 -32 -51.5 -54t-82.5 -27q-6 -44 -12 -83.5t-17 -85.5h-26q-9 48 -15.5 89l-13.5 86q-85 19 -126.5 86t-41.5 169q0 127 62 194.5t169 67.5q49 0 87.5 -8.5t65.5 -22.5q-3 -33 -11 -74t-20 -68h-27l-42 119q-7 5 -16 7.5t-30 2.5q-68 0 -105 -49.5t-37 -167.5
q0 -38 10.5 -74t32 -64.5t54 -45.5t75.5 -17q35 0 61 10t44 24z" />
    <glyph glyph-name="uni04AC" unicode="&#x4ac;" horiz-adv-x="619" 
d="M169 29q22 8 44.5 14t48.5 10v595h-153l-53 -143h-25q-3 20 -5 45.5t-3.5 52t-2.5 52t-1 45.5h581q0 -20 -1 -45t-2.5 -51.5l-3 -52t-4.5 -46.5h-26l-52 143h-153v-596h110q0 -20 -2 -46.5t-5 -55t-6.5 -55t-7.5 -46.5h-25l-42 151h-211v29z" />
    <glyph glyph-name="uni04AD" unicode="&#x4ad;" horiz-adv-x="497" 
d="M137 25q31 16 66 24v407h-93l-44 -120h-26q-5 43 -8 84.5t-4 79.5h440q-1 -36 -3.5 -78.5t-7.5 -85.5h-26l-44 120h-94v-412h88q-2 -48 -5 -96l-6 -96h-25l-45 148h-163v25z" />
    <glyph glyph-name="uni04AE" unicode="&#x4ae;" horiz-adv-x="644" 
d="M424 700h220v-29q-38 -19 -76 -25l-189 -348v-245q39 -5 76 -24v-29h-254v29q36 18 82 24v244l-202 349q-23 4 -42.5 10.5t-38.5 14.5v29h265v-29q-15 -6 -34 -12.5t-43 -12.5l164 -294l154 294q-23 5 -43.5 11.5t-38.5 13.5v29z" />
    <glyph glyph-name="uni04AF" unicode="&#x4af;" horiz-adv-x="507" 
d="M369 -200h-222v25q15 8 31 13.5t35 10.5v194l-170 407q-29 10 -53 24v26h209v-25q-13 -7 -26.5 -13.5t-30.5 -11.5l116 -301l20 -65h2l16 66l106 300q-16 4 -29.5 10t-25.5 14v26h170v-26q-10 -7 -24.5 -13t-32.5 -11l-157 -405v-196q20 -5 36 -10.5t30 -13.5v-25z" />
    <glyph glyph-name="uni04B0" unicode="&#x4b0;" horiz-adv-x="644" 
d="M425 700h219v-29q-38 -19 -76 -25l-189 -348h145v-52h-145v-193q39 -5 76 -24v-29h-254v29q36 18 82 24v193h-145v52h144l-201 348q-23 4 -42.5 10.5t-38.5 14.5v29h265v-29q-15 -6 -34 -12.5t-43 -12.5l164 -294l154 294q-23 5 -43.5 11.5t-37.5 13.5v29z" />
    <glyph glyph-name="uni04B1" unicode="&#x4b1;" horiz-adv-x="507" 
d="M91 52h119l-167 398q-29 10 -53 24v26h209v-25q-13 -7 -26.5 -13.5t-30.5 -11.5l91 -237l43 -129h2l40 130l84 236q-16 4 -29.5 10t-25.5 14v26h170v-26q-10 -7 -24.5 -13t-32.5 -11l-155 -398h121v-52h-122l-1 -151q20 -5 36 -10.5t30 -13.5v-25h-222v25q15 8 31 13.5
t35 10.5v151h-122v52z" />
    <glyph glyph-name="uni04B2" unicode="&#x4b2;" horiz-adv-x="686" 
d="M395 29q36 18 75 24l-158 251l-152 -252q21 -3 41.5 -7.5t39.5 -15.5v-29h-231v29q19 10 37.5 15t36.5 9l196 299l-188 294l-39.5 12t-39.5 13v29h265v-29q-16 -6 -34.5 -12t-42.5 -13l140 -226l136 226q-39 9 -82 25v29h230v-29q-17 -7 -36 -13.5t-39 -11.5l-176 -271
l208 -323h100q0 -20 -2 -46.5t-5 -55t-6.5 -55t-6.5 -46.5h-26l-42 151h-199v29z" />
    <glyph glyph-name="uni04B3" unicode="&#x4b3;" horiz-adv-x="519" 
d="M304 24l26 14.5t24 10.5l-111 165l-112 -165q14 -5 26 -11t24 -13v-25h-171v25q28 17 56 24l149 199l-150 202q-14 5 -25.5 10.5t-23.5 13.5v26h201v-25q-12 -8 -23.5 -14.5t-25.5 -10.5l104 -150l102 150q-34 11 -50 24v26h167v-26q-19 -13 -56 -24l-137 -182l162 -225
h73q-2 -48 -4.5 -95.5t-6.5 -95.5h-25l-45 148h-148v24z" />
    <glyph glyph-name="uni04B4" unicode="&#x4b4;" horiz-adv-x="885" 
d="M169 0v29q22 8 44 14t49 10v595h-153l-53 -143h-25q-3 20 -5 45.5t-3.5 52t-2.5 52t-1 45.5h528q0 -20 -1 -45t-2.5 -51.5l-3 -52t-4.5 -46.5h-26l-52 143h-101v-596h302v594q-18 5 -33.5 10.5t-30.5 14.5v29h242v-29q-20 -8 -40.5 -14.5t-41.5 -10.5v-594h115
q-1 -20 -3 -46.5t-5 -55t-6.5 -55t-6.5 -46.5h-26l-42 151h-612z" />
    <glyph glyph-name="uni04B5" unicode="&#x4b5;" horiz-adv-x="775" 
d="M293 44h274v406q-14 3 -28.5 9.5t-30.5 14.5v26h215v-26q-13 -7 -29 -13t-37 -11v-406h89q-2 -48 -4.5 -96t-6.5 -96h-25l-45 148h-528v25q27 16 66 24v407h-93l-44 -120h-26q-5 43 -8 84.5t-4 79.5h439q-1 -36 -3.5 -78.5t-7.5 -85.5h-26l-44 120h-93v-412z" />
    <glyph glyph-name="uni04B6" unicode="&#x4b6;" horiz-adv-x="667" 
d="M353 29q24 11 46.5 16.5t45.5 7.5v257q-27 -15 -71.5 -30t-101.5 -15q-42 0 -77 8t-60.5 29t-39.5 57t-14 92v195q-18 3 -36 9.5t-36 15.5v29h234v-29q-14 -7 -30 -13.5t-36 -11.5v-176q0 -70 28.5 -111.5t94.5 -41.5q42 0 80 12t65 29v288q-18 5 -36 11.5t-35 13.5v29
h233v-29q-14 -7 -30.5 -13.5t-35.5 -11.5v-594h111q0 -20 -2 -46.5t-5 -55t-6.5 -55t-7.5 -46.5h-25l-42 151h-211v29z" />
    <glyph glyph-name="uni04B7" unicode="&#x4b7;" horiz-adv-x="558" 
d="M283 25q41 17 80 24v179q-24 -26 -57 -42.5t-83 -16.5q-68 0 -105 38t-37 103v140q-38 7 -66 24v26h215v-26q-10 -7 -25 -13.5t-34 -10.5v-120q0 -47 20 -75.5t67 -28.5q28 0 54.5 8.5t50.5 22.5v193q-30 6 -59 24v26h215v-26q-27 -17 -66 -24v-407h83q-2 -48 -5 -95.5
l-6 -95.5h-26l-45 148h-171v25z" />
    <glyph glyph-name="uni04B8" unicode="&#x4b8;" horiz-adv-x="664" 
d="M304 266q-6 -1 -12 -1h-13q-42 0 -78 8t-62.5 29t-42 57t-15.5 92v195q-18 3 -36 9.5t-36 15.5v29h243v-29q-14 -7 -34.5 -13.5t-40.5 -11.5v-176q0 -69 31.5 -110.5t95.5 -42.5v153h52v-150q33 5 65 15.5t52 22.5v288q-18 5 -36 11.5t-35 13.5v29h233v-29
q-14 -7 -30.5 -13.5t-35.5 -11.5v-593q20 -4 36 -10t30 -14v-29h-254v29q24 11 46.5 16.5t45.5 7.5v257q-18 -11 -49 -21t-68 -17v-144h-52v138z" />
    <glyph glyph-name="uni04B9" unicode="&#x4b9;" horiz-adv-x="620" 
d="M282 170q-8 -1 -14.5 -1h-13.5q-49 0 -82 10t-53.5 28.5t-29 44.5t-8.5 58v140q-38 7 -66 24v26h215v-26q-10 -7 -25 -13.5t-34 -10.5v-120q0 -46 24 -74t87 -30v160h47v-157q26 4 52.5 11t43.5 17v193q-32 6 -60 24v26h216v-26q-27 -17 -66 -24v-401q20 -5 36 -10.5
t30 -13.5v-25h-236v25q41 17 80 24v179q-16 -17 -41 -29t-55 -20v-87h-47v78z" />
    <glyph glyph-name="uni04BA" unicode="&#x4ba;" horiz-adv-x="636" 
d="M29.0371 700h253.984v-28.998q-23.998 -11 -46.4971 -16.499q-22.499 -5.5 -45.4971 -7.5v-256.984q26.998 14.999 71.4951 29.999q44.498 14.999 101.494 14.999q41.9971 0 76.9951 -8q34.998 -7.99902 60.4961 -28.998q25.499 -20.999 39.498 -56.9971
q13.999 -35.9971 13.999 -91.9941v-194.988q17.999 -2.99902 35.998 -9.49902t35.998 -15.499v-28.998h-233.986v28.998q13.999 7 29.998 13.499q15.999 6.5 35.998 11.499v175.989q0 69.9961 -28.498 111.493q-28.498 41.498 -94.4941 41.498q-41.998 0 -79.9951 -11.999
q-37.998 -12 -64.9961 -28.999v-287.982q17.999 -4.99902 35.998 -11.499q17.998 -6.49902 34.9971 -13.499v-28.998h-232.985v28.998q13.999 7 30.498 13.499q16.499 6.5 35.498 11.499v592.964q-19.999 4 -36.498 10q-16.499 5.99902 -29.498 13.999v28.998z" />
    <glyph glyph-name="uni04BB" unicode="&#x4bb;" horiz-adv-x="587" 
d="M570 0h-216v25q24 13 60 24v234q0 78 -22 122.5t-80 44.5q-26 0 -47 -9.5t-38 -24.5t-29 -34.5t-18 -40.5v-292q16 -4 30.5 -9t28.5 -15v-25h-215v25q31 16 66 24v633l-76 8v26q29 12 67.5 21t73.5 15h25v-353h1q21 47 60.5 80t95.5 33q40 0 71.5 -9.5t52.5 -33.5
t32 -64.5t11 -102.5v-253q17 -4 34 -9t32 -15v-25z" />
    <glyph glyph-name="uni04BC" unicode="&#x4bc;" horiz-adv-x="816" 
d="M478 712q64 0 116.5 -18.5t90 -56t58 -93.5t20.5 -131q0 -26 -1.5 -42.5t-4.5 -32.5h-495q0 -70 21 -123t57 -88t82.5 -53t96 -18.5t99.5 15t92 47.5l10 -21q-40 -57 -100.5 -83t-118.5 -26q-71 0 -132 22t-106 66t-71.5 109.5t-28.5 152.5q-41 1 -71.5 13t-51 32.5
t-31 46.5t-10.5 54q0 21 7.5 48.5t25.5 47.5q23 0 51 -10t48 -23l8 -16l-82 -79q11 -32 41 -46.5t66 -15.5q6 79 33 139.5t69.5 101t97 61t114.5 20.5zM479 660q-47 0 -85.5 -18.5t-66.5 -53t-45 -84.5t-20 -114h400q1 11 1.5 21t0.5 20q0 51 -14 93t-38.5 72t-58.5 47
t-74 17z" />
    <glyph glyph-name="uni04BD" unicode="&#x4bd;" horiz-adv-x="604" 
d="M548 70q-8 -17 -25 -32t-39.5 -26t-48.5 -17.5t-53 -6.5q-59 0 -103.5 18.5t-75 53t-46 82.5t-15.5 108q-74 2 -108 37t-34 86q0 46 31 82q22 2 43.5 -11t30.5 -29q2 -3 3.5 -6t2.5 -6l-60 -57q3 -14 12.5 -23.5t22.5 -15.5t28.5 -9t29.5 -4q11 106 68.5 162t155.5 56
q35 0 69 -9.5t60.5 -31t43 -58t16.5 -90.5q0 -35 -7 -73h-312q0 -42 10.5 -78.5t31.5 -63.5t53 -42.5t76 -15.5q16 0 34 2.5t35.5 7.5t31.5 11.5t23 14.5zM364 468q-56 0 -86 -38.5t-36 -135.5h219q1 9 1.5 17.5t0.5 16.5q0 64 -24 102t-75 38z" />
    <glyph glyph-name="uni04BE" unicode="&#x4be;" horiz-adv-x="816" 
d="M436 -7q-16 2 -31 6.5t-30 9.5q-47 15 -85.5 43.5t-66 70t-43.5 95.5t-17 120q-41 1 -71.5 13t-51 32.5t-31 46.5t-10.5 54q0 21 7.5 48.5t25.5 47.5q23 0 51 -10t48 -23l8 -16l-82 -79q11 -32 41 -46.5t66 -15.5q6 79 33 139.5t69.5 101t97 61t114.5 20.5
q64 0 116.5 -18.5t90 -56t58 -93.5t20.5 -131q0 -26 -1.5 -42.5t-4.5 -32.5h-495q0 -70 21 -123t57 -88t82.5 -53t96 -18.5t99.5 15t92 47.5l10 -21q-36 -51 -87.5 -77t-105.5 -31q-6 -45 -13.5 -89.5t-18.5 -90.5h-26q-10 47 -17.5 93zM479 660q-47 0 -85.5 -18.5
t-66.5 -53t-45 -84.5t-20 -114h400q1 11 1.5 21t0.5 20q0 51 -14 93t-38.5 72t-58.5 47t-74 17z" />
    <glyph glyph-name="uni04BF" unicode="&#x4bf;" horiz-adv-x="604" 
d="M548 70q-15 -31 -55 -53.5t-88 -27.5q-5 -44 -11 -83.5t-17 -85.5h-26q-10 48 -16 88l-13 85q-90 17 -134.5 85t-45.5 172q-74 2 -108 37t-34 86q0 46 31 82q22 2 43.5 -11t30.5 -29q2 -3 3.5 -6t2.5 -6l-60 -57q3 -14 12.5 -23.5t22.5 -15.5t28.5 -9t29.5 -4
q11 106 68.5 162t155.5 56q35 0 69 -9.5t60.5 -31t43 -58t16.5 -90.5q0 -35 -7 -73h-312q0 -42 10.5 -78.5t31.5 -63.5t53 -42.5t76 -15.5q16 0 34 2.5t35.5 7.5t31.5 11.5t23 14.5zM364 468q-56 0 -86 -38.5t-36 -135.5h219q1 9 1.5 17t0.5 16q0 64 -24 102.5t-75 38.5z
" />
    <glyph glyph-name="uni04C0" unicode="&#x4c0;" horiz-adv-x="352" 
d="M304 0h-256v29q39 18 80 24v593q-20 4 -40 10.5t-40 14.5v29h256v-29q-18 -8 -39 -14.5t-41 -10.5v-593q21 -4 42 -10t38 -14v-29z" />
    <glyph glyph-name="uni04C3" unicode="&#x4c3;" horiz-adv-x="646" 
d="M503 1q0 36 -12 72.5t-31.5 70t-44.5 64t-51 55.5t-50.5 43.5t-42.5 28.5h-64v-282q46 -8 75 -24v-29h-253v29q40 16 82 24v593q-45 6 -82 25v29h253v-29q-16 -7 -35 -13.5t-40 -11.5v-277l60 14l186 263q-20 5 -37.5 11t-33.5 14v29h220v-29q-20 -9 -39 -15t-37 -10
l-200 -265q44 -20 92 -58t88.5 -87t66.5 -106t26 -115q0 -57 -18 -98t-49 -68.5t-72.5 -42t-89.5 -17.5l-6 27q28 6 53.5 18.5t44.5 34.5t30 54t11 78z" />
    <glyph glyph-name="uni04C4" unicode="&#x4c4;" horiz-adv-x="541" 
d="M418 -41q0 47 -19 92t-47 82.5t-60 65t-57 38.5h-40v-188q20 -5 36.5 -10.5t28.5 -13.5v-25h-221v25q27 16 66 24v401q-35 7 -66 24v26h205v-26q-10 -7 -21.5 -13t-27.5 -11v-187l46 10l76 86t67 87l-31.5 13.5t-27.5 14.5v26h193v-26q-10 -8 -26.5 -14t-40.5 -14
l-72 -83t-80 -84q28 -12 64.5 -40t68.5 -68t54 -90t22 -105q0 -86 -46 -134.5t-132 -53.5l-5 28q53 16 73 50.5t20 92.5z" />
    <glyph glyph-name="uni04C5" unicode="&#x4c5;" horiz-adv-x="656" 
d="M202 641q-62 10 -102 30v29h526v-29q-35 -18 -82 -25v-594h110l8 -9q-4 -19 -15 -44t-25 -51.5t-30 -52.5t-30 -45h-27l29 150h-192v29q18 8 37 13.5t39 10.5v595h-187q-4 -157 -14.5 -260.5t-26.5 -171t-36.5 -107.5t-44.5 -71q-20 -26 -49 -38t-56 -12q-7 8 -14.5 22.5
t-14 31t-10.5 33t-5 29.5l15 25l115 -21q15 25 29.5 66t26 104.5t19 152.5t7.5 210z" />
    <glyph glyph-name="uni04C6" unicode="&#x4c6;" horiz-adv-x="546" 
d="M102 86q14 24 25 64t18.5 88t11.5 100.5t4 101.5q-20 6 -36.5 15t-30.5 19v26h409v-26q-32 -18 -66 -24v-406h98l5 -8q-5 -24 -16 -52t-24.5 -54t-27 -47t-22.5 -31h-27l27 148h-162v25q24 17 59 24v407h-132q-1 -53 -6 -112.5t-15 -117t-26 -108t-39 -84.5
q-19 -29 -41 -40.5t-41 -7.5q-15 17 -28.5 44.5t-15.5 50.5l14 25z" />
    <glyph glyph-name="uni04C7" unicode="&#x4c7;" horiz-adv-x="728" 
d="M282 0h-253v29q40 16 82 24v593q-47 7 -82 25v29h253v-29q-17 -9 -36 -15t-39 -10v-261h314v261q-21 5 -39.5 11t-35.5 14v29h253v-29q-18 -10 -39.5 -15.5t-42.5 -9.5v-646q0 -68 -13 -109.5t-38 -64t-61 -30t-82 -7.5l-6 27q26 6 45.5 16.5t32.5 31t19.5 53.5t6.5 83
v333h-314v-280q20 -4 39 -10t36 -14v-29z" />
    <glyph glyph-name="uni04C8" unicode="&#x4c8;" horiz-adv-x="612" 
d="M254 0h-215v25q14 8 31 13.5t35 10.5v401q-18 5 -35 10.5t-31 13.5v26h215v-26q-23 -14 -59 -24v-175h222v175q-35 6 -60 24v26h216v-26q-27 -17 -66 -24v-450q0 -62 -12 -102t-34.5 -63.5t-55.5 -34t-76 -12.5l-5 28q27 8 45 19t28.5 31t15 52t4.5 83v230h-222v-182
q20 -4 34 -10t25 -14v-25z" />
    <glyph glyph-name="uni04C9" unicode="&#x4c9;" horiz-adv-x="730" 
d="M282 0h-253v29q40 16 82 24v593q-47 7 -82 25v29h253v-29q-17 -9 -36 -15t-39 -10v-261h314v261q-21 5 -39.5 11t-35.5 14v29h253v-29q-18 -10 -39.5 -15.5t-42.5 -9.5v-594h111l8 -9q-4 -19 -15 -44t-25 -51.5t-30.5 -52.5t-30.5 -45h-27l30 150h-192v29q36 16 75 24
v280h-314v-280q20 -4 39 -10t36 -14v-29z" />
    </font>
</defs>
</svg>
